<svg xmlns="http://www.w3.org/2000/svg" width="54" height="54" viewBox="0 0 54 54">
  <g id="Group_4009" data-name="Group 4009" transform="translate(-728 -1865)">
    <circle id="Ellipse_113" data-name="Ellipse 113" cx="27" cy="27" r="27" transform="translate(728 1865)" fill="#ff8972"/>
    <g id="Group_3729" data-name="Group 3729" transform="translate(83.117 1659.533)">
      <path id="Path_3884" data-name="Path 3884" d="M701.652,211.257c.092-.912-1.117-1.017-1.117-1.017s.294-.467-.314-.953-1.241.249-1.241.249c-.283-.494-.509-.051-.509-.051s-.217-.74-1.444-.363a1.024,1.024,0,0,0-.737,1.423c-.061-.1-.249-.267-.817-.115-.8.212-.351,1.137-.351,1.137a2.177,2.177,0,0,0,1.3,2.794c2,.724,4.617.215,4.919-.607a1.683,1.683,0,0,0-.5-1.591S701.56,212.169,701.652,211.257Z" transform="translate(-26.247)" fill="#311e69"/>
      <g id="Group_3717" data-name="Group 3717" transform="translate(668.75 210.368)">
        <path id="Path_3885" data-name="Path 3885" d="M700.868,216.054l.1.1A.305.305,0,0,0,700.868,216.054Z" transform="translate(-699.678 -215.981)" fill="#311e69"/>
        <path id="Path_3886" data-name="Path 3886" d="M700.839,217.487a8.914,8.914,0,0,1-3.759-.117c-1.246-.541-.791-1.5-.791-1.5l-.1-.1a.906.906,0,0,0-.715-.011c-.8.212-.351,1.137-.351,1.137a2.177,2.177,0,0,0,1.3,2.794c2,.724,4.617.215,4.919-.607A1.683,1.683,0,0,0,700.839,217.487Z" transform="translate(-694.996 -215.692)" fill="#1e1240"/>
      </g>
      <g id="Group_3718" data-name="Group 3718" transform="translate(662.078 251.567)">
        <path id="Path_3887" data-name="Path 3887" d="M662.455,420.939a5.7,5.7,0,0,0,.44-1.959l2.03.6s-.749.576-.51.951c.1.164.362.189,1.171.439.711.219,1.624.413,1.492,1-.082.368-4.184.381-4.833.02C661.9,421.8,662.142,421.4,662.455,420.939Z" transform="translate(-662.078 -418.98)" fill="#ff6161"/>
      </g>
      <g id="Group_3719" data-name="Group 3719" transform="translate(678.254 252.026)">
        <path id="Path_3888" data-name="Path 3888" d="M742.208,422.687c.276-.425-.127-.9-.1-1.278l2.012-.166a1.82,1.82,0,0,0,.107,1.093c.108.161.366.181,1.181.412.716.2,1.633.375,1.514.965-.074.369-4.174.477-4.832.13C741.745,423.662,741.9,423.153,742.208,422.687Z" transform="translate(-741.895 -421.244)" fill="#ff6161"/>
      </g>
      <path id="Path_3889" data-name="Path 3889" d="M706.4,239.508s8.869,5.714,7.905,8.083-3.8-.065-5.492-1.464c-1.955-1.614-3.551-3.492-3.532-4.345A5.725,5.725,0,0,1,706.4,239.508Z" transform="translate(-34.443 -24.314)" fill="#ad263d"/>
      <path id="Path_3890" data-name="Path 3890" d="M742.867,253.506c1.9-3.842-.4-3.682-1.093-3.2-.963.667-4.02,5.079-3.444,6.089C738.967,257.51,740.968,257.348,742.867,253.506Z" transform="translate(-60.741 -32.724)" fill="#ff6161"/>
      <path id="Path_3891" data-name="Path 3891" d="M709.984,251.99a17.561,17.561,0,0,0,1.939,2c.37-1.078-.833-3.932-.833-3.932Z" transform="translate(-38.197 -32.724)" fill="#311e69"/>
      <path id="Path_3892" data-name="Path 3892" d="M668.833,260.363c.706-2.618-2.054-7.609-2.165-10.67-.1-2.648,1.072-6.915,1.672-9.307.446-1.78,1.711-4.239,3.119-4.69,1.265-.4,3.647-.271,4.28,1.573a10.46,10.46,0,0,1,.493,2.915c-.144,1.324-1.233.738-1.047,2.773.066.146.14.3.223.466.6,1.192,5.255,9.5,6.879,15.336,1.186,4.265,1.907,9.811,1.506,12.97-.183,1.444-.048,2.83-1.1,2.909-.624.047-1.044-.2-1.595-2.083-1.016-3.479-2.611-9.661-2.928-11.033-.406-1.751-2.639-7.348-4.322-9.153,0,0-.4,3.247-.607,9.1-.164,4.536-3.59,9.339-5.4,12.042-.523.781-.9,1.13-1.57,1.137C664.6,274.661,668.461,261.742,668.833,260.363Z" transform="translate(-3.008 -21.125)" fill="#ff6161"/>
      <path id="Path_3893" data-name="Path 3893" d="M729.9,311.345a62.44,62.44,0,0,0-4.057-9.885,27.5,27.5,0,0,0-.059,7.123c.592,3.008,2.294,7.54,3.094,10.615a55.031,55.031,0,0,0,1.512,5.5,3.935,3.935,0,0,0,.832,1.385c.086-.507.1-1.133.186-1.77C731.8,321.156,731.083,315.61,729.9,311.345Z" transform="translate(-50.619 -73.71)" fill="#ad263d"/>
      <g id="Group_3720" data-name="Group 3720" transform="translate(663.933 231.245)">
        <path id="Path_3894" data-name="Path 3894" d="M705.3,318.708h0Z" transform="translate(-698.398 -318.708)" fill="#ad263d"/>
        <path id="Path_3895" data-name="Path 3895" d="M677.53,327.8c.211-5.847.607-9.095.607-9.1s-2.463,2.685-2.271,5.1a22.467,22.467,0,0,1-1.231,9.08c-1.1,2.589-1.036,1.036-2.039,3.722s-1.618,3.719-1.262,4.061a.261.261,0,0,0,.057.039,3.52,3.52,0,0,0,.736-.862C673.94,337.142,677.366,332.34,677.53,327.8Z" transform="translate(-671.232 -318.708)" fill="#ad263d"/>
      </g>
      <path id="Path_3896" data-name="Path 3896" d="M687.771,337.513l-4.038,1.1a10.281,10.281,0,0,0,3.909.979Q687.705,338.448,687.771,337.513Z" transform="translate(-17.266 -102.457)" fill="#311e69"/>
      <g id="Group_3721" data-name="Group 3721" transform="translate(663.653 222.577)">
        <path id="Path_3897" data-name="Path 3897" d="M678.92,276.277c-2.439.664-6.474,0-8.214-.342a25.65,25.65,0,0,0-.85,5.992c.074,2.025,1.306,4.9,1.928,7.364.943.379,4.21.719,5.537-.058a14.581,14.581,0,0,0-.285-4.629c.726.779,1.2,2.453,1.936,4.03,2.12-.178,4.548-.793,4.884-2.195C682.114,282.233,679.821,277.971,678.92,276.277Z" transform="translate(-669.85 -275.935)" fill="#d8e7eb"/>
      </g>
      <path id="Path_3898" data-name="Path 3898" d="M676.549,296.617c.391-1.018-4.344-1.255-6.579-1.309a13.382,13.382,0,0,0-.115,2.066c0,.111.013.226.024.341C671.594,297.737,676.136,297.693,676.549,296.617Z" transform="translate(-6.197 -68.805)" fill="#311e69"/>
      <path id="Path_3899" data-name="Path 3899" d="M707.311,277.862c.262,1.8.837,5.015,1.738,6.176,1.28,1.651,1.636.874,1.8,2.654.089.977.247,2.061.379,2.883,1.259-.347,2.288-.916,2.5-1.792-1.741-4.206-4.034-8.468-4.935-10.162A8.2,8.2,0,0,1,707.311,277.862Z" transform="translate(-36.066 -54.703)" fill="#a7c2c9"/>
      <g id="Group_3722" data-name="Group 3722" transform="translate(663.667 214.395)">
        <path id="Path_3900" data-name="Path 3900" d="M678.6,248.317c-1.482.957-6.159,1.262-8.68.576a36.45,36.45,0,0,1,1.135-6.367,12.2,12.2,0,0,0,2.718-1.919c1.131-1.071.789-3.631,1.035-4.9a4.27,4.27,0,0,1,.862-.145,8.023,8.023,0,0,0,1.133,3.04c.529.537,1.247.7,1.5-.174a5.712,5.712,0,0,0-.136-2.238,2.329,2.329,0,0,1,.813,1.122,10.458,10.458,0,0,1,.493,2.915c-.144,1.324-1.233.738-1.047,2.773.066.146.14.3.223.466.2.405.875,1.633,1.738,3.306A6.657,6.657,0,0,1,678.6,248.317Z" transform="translate(-669.918 -235.564)" fill="#614cd4"/>
      </g>
      <path id="Path_3901" data-name="Path 3901" d="M689.548,281.211l5.652.352c.231.437.495.939.78,1.492C694.79,283.781,691.083,285.6,689.548,281.211Z" transform="translate(-21.903 -57.565)" fill="#311e69"/>
      <path id="Path_3902" data-name="Path 3902" d="M685.716,237.938c.759-.329.743,6.906,2.505,7.838,1.591.842,5.12-2.766,6.57-1.606s-3.955,5.19-7.405,4.494S682.788,239.208,685.716,237.938Z" transform="translate(-17.515 -23.053)" fill="#ff6161"/>
      <path id="Path_3903" data-name="Path 3903" d="M703.075,228.3l-.934,1.978c-.152.326.269,1.536.975,1.358.207-.052.214-.593.227-1l.391-1.887Z" transform="translate(-31.919 -15.373)" fill="#ff6161"/>
      <path id="Path_3904" data-name="Path 3904" d="M707,231.477a2.445,2.445,0,0,1-.5-1.162l.679.311Z" transform="translate(-35.417 -16.984)" fill="#311e69"/>
      <path id="Path_3905" data-name="Path 3905" d="M706.761,222.415l-.175.312a1.257,1.257,0,0,0,.3,1.722,1.078,1.078,0,0,0,1.6-.387,2.619,2.619,0,0,0,.131-1.691C708.541,221.559,706.761,222.415,706.761,222.415Z" transform="translate(-35.315 -10.371)" fill="#ff6161"/>
      <path id="Path_3906" data-name="Path 3906" d="M706.321,223.591a1.058,1.058,0,0,1,.039-.22c.037-.137.061-.349-.169-.3-.335.065-.495.805-.171.953C706.26,224.13,706.31,223.779,706.321,223.591Z" transform="translate(-34.895 -11.2)" fill="#ff6161"/>
      <path id="Path_3907" data-name="Path 3907" d="M716.032,226.186a1.049,1.049,0,0,0,.1-.2c.05-.133.156-.319.316-.147.233.249-.073.942-.421.872C715.765,226.658,715.93,226.344,716.032,226.186Z" transform="translate(-42.903 -13.359)" fill="#ff6161"/>
      <path id="Path_3908" data-name="Path 3908" d="M711.7,229.4a7.64,7.64,0,0,0,.824.291.481.481,0,0,1-.431.058A.7.7,0,0,1,711.7,229.4Z" transform="translate(-39.564 -16.254)" fill="#fff"/>
      <path id="Path_3909" data-name="Path 3909" d="M707.065,229.794a1.647,1.647,0,0,0,.905.144,1.7,1.7,0,0,0,.532-.347c-.006.011-.012.022-.018.033a1.078,1.078,0,0,1-1.6.387,1.206,1.206,0,0,1-.511-1.015A1.559,1.559,0,0,0,707.065,229.794Z" transform="translate(-35.318 -15.933)" fill="#ad263d"/>
      <g id="Group_3726" data-name="Group 3726" transform="translate(671.524 212.045)">
        <g id="Group_3723" data-name="Group 3723" transform="translate(0)">
          <path id="Path_3910" data-name="Path 3910" d="M709.08,224.782a.635.635,0,0,1-.326-.264.426.426,0,0,1-.043-.373h0c.1-.275.4-.165.636-.076s.533.2.429.475a.46.46,0,0,1-.41.278A.663.663,0,0,1,709.08,224.782Zm-.26-.6h0a.313.313,0,0,0,.034.273.52.52,0,0,0,.267.214.413.413,0,0,0,.547-.169c.054-.144-.062-.214-.361-.326a.983.983,0,0,0-.361-.091A.136.136,0,0,0,708.819,224.186Z" transform="translate(-708.686 -223.97)" fill="#311e69"/>
        </g>
        <g id="Group_3724" data-name="Group 3724" transform="translate(1.253 0.373)">
          <path id="Path_3911" data-name="Path 3911" d="M715.263,226.592a.48.48,0,0,1-.388-.555h0a.251.251,0,0,1,.211-.219,1.443,1.443,0,0,1,.641.13.251.251,0,0,1,.109.284.452.452,0,0,1-.207.3.5.5,0,0,1-.222.073A.515.515,0,0,1,715.263,226.592Zm-.157-.66c-.049.009-.1.03-.118.128a.364.364,0,0,0,.3.418.384.384,0,0,0,.281-.049.338.338,0,0,0,.155-.221.135.135,0,0,0-.059-.164.866.866,0,0,0-.273-.085,1.034,1.034,0,0,0-.259-.031Z" transform="translate(-714.866 -225.812)" fill="#311e69"/>
        </g>
        <g id="Group_3725" data-name="Group 3725" transform="translate(1.033 0.417)">
          <path id="Path_3912" data-name="Path 3912" d="M714.028,226.205l.1-.058a.283.283,0,0,0-.348-.1l.037.11A.167.167,0,0,1,714.028,226.205Z" transform="translate(-713.781 -226.026)" fill="#311e69"/>
        </g>
      </g>
      <path id="Path_3913" data-name="Path 3913" d="M738.332,258.615a.827.827,0,0,1-.058-.509,2.935,2.935,0,0,0,2.909-1.062A26.247,26.247,0,0,0,743.1,253.6a4.242,4.242,0,0,1,.421-.758c.192.5.092,1.387-.649,2.885C740.971,259.571,738.97,259.734,738.332,258.615Z" transform="translate(-60.743 -34.948)" fill="#ad263d"/>
      <path id="Path_3914" data-name="Path 3914" d="M684.906,241.228c.1,1.968.561,2.9.533,4.412-.031,1.674,1.129,4.36,2.385,4.389a10.187,10.187,0,0,0,4.057-1.258c.621-.393,2.372-1.863,3.014-1.824a.13.13,0,0,1,.038.009c.877,1.323-4.234,5.009-7.546,4.341C684.311,250.676,683.065,243.646,684.906,241.228Z" transform="translate(-17.515 -25.685)" fill="#ad263d"/>
      <path id="Path_3915" data-name="Path 3915" d="M738.791,376.182l-3.478.546a6.414,6.414,0,0,0,3.807,2.029C739.038,377.918,738.927,377.052,738.791,376.182Z" transform="translate(-58.393 -133.289)" fill="#311e69"/>
      <path id="Path_3916" data-name="Path 3916" d="M734.581,269.093a1.7,1.7,0,0,0,.173,1.5c.491.69.915-.847.633-1.176A1.163,1.163,0,0,0,734.581,269.093Z" transform="translate(-57.728 -47.903)" fill="#ff6161"/>
      <g id="Group_3727" data-name="Group 3727" transform="translate(675.001 221.354)">
        <path id="Path_3917" data-name="Path 3917" d="M730.875,272.867a23.888,23.888,0,0,0-1.649-2.467c-.5-.554-1.275-.871-1.433.288-.076.561.162,2.906-.213,3.769s-2.858,12.952-1.133,16.23,9.115,1.967,9.9.906c3.409-4.618-1.324-11.605-1.259-12.188s.493-1.424-.241-2.093A17.2,17.2,0,0,1,730.875,272.867Z" transform="translate(-725.844 -269.901)" fill="#4cb4d4"/>
        <path id="Path_3918" data-name="Path 3918" d="M737.69,271.474a9.911,9.911,0,0,0,.424,3.164c.48,1.219,3.557,4.541,5.013,5.059s1.4-.647.108-1.813a11.164,11.164,0,0,1-2.958-3.419C739.791,273.3,738.081,270.166,737.69,271.474Z" transform="translate(-735.287 -270.905)" fill="#2567b7"/>
      </g>
      <g id="Group_3728" data-name="Group 3728" transform="translate(682.014 213.621)">
        <path id="Path_3919" data-name="Path 3919" d="M762.816,233.469a1.473,1.473,0,0,1-.5-1.265,1.658,1.658,0,0,0,.012-.433l-.368-.01-.6-.017a1.658,1.658,0,0,0-.012.433,1.472,1.472,0,0,1-.567,1.235c-.387.353-.358,1.921-.3,2.866a.8.8,0,0,0,.775.751l.559.016.326.009a.8.8,0,0,0,.816-.706C763.065,235.406,763.183,233.843,762.816,233.469Z" transform="translate(-760.449 -231.744)" fill="#d8e7eb"/>
        <path id="Path_3920" data-name="Path 3920" d="M767.187,237.111A.8.8,0,0,0,768,236.4c.109-.941.226-2.5-.14-2.878a1.473,1.473,0,0,1-.5-1.265,1.653,1.653,0,0,0,.012-.433l-.368-.01-.088,0a2.971,2.971,0,0,0,.074,1.292c.228.6-.291,1.365-.209,2.274a14.481,14.481,0,0,1,0,1.718l.074,0Z" transform="translate(-765.495 -231.801)" fill="#a7c2c9"/>
      </g>
      <path id="Path_3921" data-name="Path 3921" d="M734.778,267.064a1.079,1.079,0,0,1,.863-.286c.432.113.361.755.588.9s.1.55-.124.394-.558-.495-.825-.442S734.541,267.4,734.778,267.064Z" transform="translate(-57.915 -46.041)" fill="#ff6161"/>
      <path id="Path_3922" data-name="Path 3922" d="M757.278,246.355a1.08,1.08,0,0,1-.228-.88c.141-.423.777-.311.932-.528s.555-.061.385.15-.53.524-.5.794S757.6,246.615,757.278,246.355Z" transform="translate(-75.698 -28.568)" fill="#ff6161"/>
      <path id="Path_3923" data-name="Path 3923" d="M694.886,321.414c.255.991-.4,1.712-.786,2.391a5.468,5.468,0,0,0,2.556-.468,14.582,14.582,0,0,0-.285-4.629S694.455,319.739,694.886,321.414Z" transform="translate(-25.532 -87.463)" fill="#a7c2c9"/>
      <path id="Path_3924" data-name="Path 3924" d="M737.333,316.794a17.933,17.933,0,0,1-2.536,2.937c-.647.591-4.014,1.627-2.4,2.339s3.493-.582,3.4.615-1.746,2.978-1.261,4.208,1.925,1.585-.292,2.363c-1.95.685-4.477-1.788-5.585-1.247.011.022.021.045.033.067,1.725,3.279,9.115,1.967,9.9.906C742,324.364,737.268,317.376,737.333,316.794Z" transform="translate(-53.089 -85.937)" fill="#2567b7"/>
    </g>
  </g>
</svg>
