<svg xmlns="http://www.w3.org/2000/svg" width="54" height="54" viewBox="0 0 54 54">
  <g id="Group_4007" data-name="Group 4007" transform="translate(-545 -1865)">
    <circle id="Ellipse_111" data-name="Ellipse 111" cx="27" cy="27" r="27" transform="translate(545 1865)" fill="#ffd891"/>
    <g id="Group_3614" data-name="Group 3614" transform="translate(279.126 1772.939)">
      <g id="Group_3603" data-name="Group 3603" transform="translate(277.142 126.315)">
        <path id="Path_3743" data-name="Path 3743" d="M308.607,1409.6l-.215.4-1.088,2.042-5.678,5.386-6.09,8.208-4.024-4.252-.441,2.128-5.59-5.136-1.807-1.661-4.567-3.929-1.963-3.565,3.826.08,11.781.245,6.936.022,7.229.022Z" transform="translate(-277.142 -1408.783)" fill="#5a4d35"/>
        <path id="Path_3744" data-name="Path 3744" d="M1089.193,1413.586l-1.3,2.447-5.678,5.386-6.09,8.208.677-6.85,6.066-8.844-.578-.627,5.214.275Z" transform="translate(-1057.729 -1412.771)" fill="#362e22"/>
        <path id="Path_3745" data-name="Path 3745" d="M1287.485,1414.786l3.38-2.635.965-2.659-2.847-.269-2.163,5.783Z" transform="translate(-1263.577 -1408.783)" fill="#5a4d35"/>
        <path id="Path_3746" data-name="Path 3746" d="M829.858,1444.324l2.658,5.453,5.9-6.354Z" transform="translate(-817.135 -1442.195)" fill="#362e22"/>
        <path id="Path_3747" data-name="Path 3747" d="M696,1482.25c.177.213.843,4.348.843,4.348l2.484-4.489Z" transform="translate(-686.354 -1479.992)" fill="#4a3e30"/>
        <path id="Path_3748" data-name="Path 3748" d="M420.451,1432.058l4.665.261,1.336,9.251-5.7-5.065Z" transform="translate(-417.152 -1431.092)" fill="#413628"/>
        <path id="Path_3749" data-name="Path 3749" d="M285.48,1418.378l-1.807-1.661-4.567-3.929-1.963-3.565,3.826.08.529.393,1.485,4.844Z" transform="translate(-277.142 -1408.783)" fill="#887b5b"/>
        <path id="Path_3750" data-name="Path 3750" d="M277.154,1399.889c.239.094,4.222-.22,4.222-.22l22.989.119,4.253.475-4.248.476,1.858.487-21.347.9.666-.9Z" transform="translate(-277.154 -1399.448)" fill="#374e67"/>
        <path id="Path_3751" data-name="Path 3751" d="M277.142,1390.532c.239.094,4.222-.441,4.222-.441l22.989.119,4.253.7-4.248.255,1.858.707-21.347.9.666-1.119Z" transform="translate(-277.142 -1390.092)" fill="#dccaaa"/>
        <path id="Path_3752" data-name="Path 3752" d="M768.257,1788.254c.482-.014,3.779-.439,3.779-.439l-1.156,5.575h0Z" transform="translate(-756.951 -1778.659)" fill="#4a3e30"/>
        <path id="Path_3753" data-name="Path 3753" d="M654.443,1660.427l2.62,3.372,2.622,5.136-4.628-4.252Z" transform="translate(-645.757 -1654.204)" fill="#887b5b"/>
      </g>
      <g id="Group_3613" data-name="Group 3613" transform="translate(280.441 96.537)">
        <g id="Group_3605" data-name="Group 3605" transform="translate(8.138 0)">
          <path id="Path_3754" data-name="Path 3754" d="M1120.8,98.507a1.97,1.97,0,1,1-.985-1.706h0A1.965,1.965,0,0,1,1120.8,98.507Z" transform="translate(-1108.969 -96.537)" fill="#fff"/>
          <path id="Path_3755" data-name="Path 3755" d="M1071.032,205.368a2.559,2.559,0,1,1-.587-1.629,2.523,2.523,0,0,1,.522,1.057A2.489,2.489,0,0,1,1071.032,205.368Z" transform="translate(-1059.198 -200.365)" fill="#fff"/>
          <path id="Path_3756" data-name="Path 3756" d="M1203.841,111.175a2.523,2.523,0,0,1,.522,1.057l-1.3.749a1.978,1.978,0,0,0,.273-1.239,1.868,1.868,0,0,0-.882-1.265,1.665,1.665,0,0,0,.173-.114,2.049,2.049,0,0,0,.812-2.3,1.969,1.969,0,0,1,.4,3.109Z" transform="translate(-1192.594 -107.801)" fill="#a8c5e7"/>
          <path id="Path_3757" data-name="Path 3757" d="M1162.231,426.832a2.884,2.884,0,1,1-5.27-1.621,2.837,2.837,0,0,1,.428-.5,2.882,2.882,0,0,1,4.772,1.494A2.779,2.779,0,0,1,1162.231,426.832Z" transform="translate(-1147.659 -416.41)" fill="#fff"/>
          <path id="Path_3758" data-name="Path 3758" d="M1196.253,285.651a3.07,3.07,0,0,1-2.884,3.064c-.062,0-.124.006-.186.006a3.069,3.069,0,1,1,3.07-3.07Z" transform="translate(-1180.534 -278.298)" fill="#fff"/>
          <path id="Path_3759" data-name="Path 3759" d="M966.734,464.512a3.656,3.656,0,0,1-.2.655,2.53,2.53,0,0,1-2.372,1.854,2.1,2.1,0,0,1-.775-.3,13.326,13.326,0,0,1-3.436-3.3s.377-2.93,2.987-3.057a3.839,3.839,0,0,1,2.034.42,3.548,3.548,0,0,1,1.763,3.73Z" transform="translate(-955.668 -451.981)" fill="#fff"/>
          <path id="Path_3760" data-name="Path 3760" d="M1094.392,303.035a2.78,2.78,0,0,1,.069.623,2.886,2.886,0,0,1-3.709,2.764,2.53,2.53,0,0,1-2.371,1.854,2.1,2.1,0,0,1-.775-.3l-.509-2.219a4.173,4.173,0,0,0,2.353-.153,2.261,2.261,0,0,0,1.232-1.542s.061,0,.164,0a4.047,4.047,0,0,0,1.692-.174,1.887,1.887,0,0,0,.942-2.137.346.346,0,0,1,.14-.133,2.439,2.439,0,0,0,.345-3.752,3.069,3.069,0,0,1,.427,5.164Z" transform="translate(-1079.889 -293.236)" fill="#a8c5e7"/>
          <g id="Group_3604" data-name="Group 3604" transform="translate(0 11.366)">
            <path id="Path_3761" data-name="Path 3761" d="M782.25,598.172c-2.951,2.067-6.3-.2-6.3-.2a6.389,6.389,0,0,1-1.079-4.355,4.307,4.307,0,0,1,.6-1.532c1.581-2.5,5.712-2.138,7.367-.528h0c.092.089.079.384.155.482C783.762,593.029,785.2,596.1,782.25,598.172Z" transform="translate(-774.776 -590.281)" fill="#fff"/>
            <path id="Path_3762" data-name="Path 3762" d="M781.438,652.507c-2.951,2.067-6.3-.2-6.3-.2a6.39,6.39,0,0,1-1.079-4.355h0a4.189,4.189,0,0,0,1.952,2.089c1.233.721,4.886.933,5.867-1.047a3.536,3.536,0,0,0,.15-3.1,2.717,2.717,0,0,1,.254.281C783.049,647.162,784.389,650.44,781.438,652.507Z" transform="translate(-773.983 -644.616)" fill="#a8c5e7"/>
          </g>
        </g>
        <path id="Path_3763" data-name="Path 3763" d="M589.747,1059.49l-.952-6.6-1.737-.678v2.124l-1.522-.189H580.4l-1.227-.916.278-1.019-2.893,1.019-2.026,3.076-.177,3.683Z" transform="translate(-570.816 -1030.21)" fill="#274059"/>
        <g id="Group_3606" data-name="Group 3606" transform="translate(17.416 17.727)">
          <path id="Path_3764" data-name="Path 3764" d="M1178.943,878.347V866.609h-1.958v11.738" transform="translate(-1176.985 -866.608)" fill="#374e67"/>
          <path id="Path_3765" data-name="Path 3765" d="M1176.988,878.33V866.593h1.957V878.33" transform="translate(-1176.988 -866.593)" fill="#374e67"/>
          <path id="Path_3766" data-name="Path 3766" d="M1219.61,889.255c-.063-.185-.095-10.914-.095-10.914h.979v10.268" transform="translate(-1218.536 -878.07)" fill="#274059"/>
          <path id="Path_3767" data-name="Path 3767" d="M1177.552,877.618V866.74h1.425v-.148h-1.989v11.025" transform="translate(-1176.988 -866.593)" fill="#3f5773"/>
        </g>
        <line id="Line_41" data-name="Line 41" x2="1.958" transform="translate(17.416 29.465)" fill="#374e67"/>
        <line id="Line_42" data-name="Line 42" x1="1.957" transform="translate(17.416 29.465)" fill="#374e67"/>
        <path id="Path_3768" data-name="Path 3768" d="M1224.525,1324.383c-.423.381-.852.737-.884.646" transform="translate(-1205.151 -1296.117)" fill="#274059"/>
        <g id="Group_3608" data-name="Group 3608" transform="translate(17.326 15.24)">
          <path id="Path_3769" data-name="Path 3769" d="M1317.3,759.364a.819.819,0,1,1-.41-.71h0A.817.817,0,0,1,1317.3,759.364Z" transform="translate(-1312.38 -758.545)" fill="#a8c5e7"/>
          <path id="Path_3770" data-name="Path 3770" d="M1296.6,803.8a1.064,1.064,0,1,1-.244-.677,1.049,1.049,0,0,1,.217.44A1.036,1.036,0,0,1,1296.6,803.8Z" transform="translate(-1291.682 -801.723)" fill="#a8c5e7"/>
          <path id="Path_3771" data-name="Path 3771" d="M1351.833,764.633a1.049,1.049,0,0,1,.217.44l-.539.311a.822.822,0,0,0,.114-.515.777.777,0,0,0-.367-.526.7.7,0,0,0,.072-.047.852.852,0,0,0,.338-.955.819.819,0,0,1,.166,1.293Z" transform="translate(-1347.156 -763.23)" fill="#74a1d6"/>
          <path id="Path_3772" data-name="Path 3772" d="M1334.529,895.9a1.2,1.2,0,1,1-2.191-.674,1.2,1.2,0,0,1,.992-.526,1.2,1.2,0,0,1,1.17.941A1.157,1.157,0,0,1,1334.529,895.9Z" transform="translate(-1328.469 -891.565)" fill="#a8c5e7"/>
          <path id="Path_3773" data-name="Path 3773" d="M1348.678,837.188a1.277,1.277,0,0,1-1.2,1.274c-.026,0-.052,0-.077,0a1.276,1.276,0,1,1,1.276-1.277Z" transform="translate(-1342.141 -834.131)" fill="#a8c5e7"/>
          <path id="Path_3774" data-name="Path 3774" d="M1253.232,911.568a1.509,1.509,0,0,1-.084.272,1.052,1.052,0,0,1-.986.771.872.872,0,0,1-.322-.124,5.541,5.541,0,0,1-1.429-1.374s.156-1.218,1.242-1.271a1.6,1.6,0,0,1,.846.175,1.475,1.475,0,0,1,.733,1.551Z" transform="translate(-1248.63 -906.357)" fill="#a8c5e7"/>
          <path id="Path_3775" data-name="Path 3775" d="M1306.319,844.418a1.156,1.156,0,0,1,.029.259,1.2,1.2,0,0,1-1.542,1.149,1.052,1.052,0,0,1-.986.771.872.872,0,0,1-.322-.124l-.212-.923a1.736,1.736,0,0,0,.979-.064.94.94,0,0,0,.512-.641h.068a1.683,1.683,0,0,0,.7-.073.785.785,0,0,0,.392-.888.145.145,0,0,1,.058-.055,1.014,1.014,0,0,0,.143-1.56,1.276,1.276,0,0,1,.178,2.148Z" transform="translate(-1300.287 -840.343)" fill="#74a1d6"/>
          <g id="Group_3607" data-name="Group 3607" transform="translate(0 4.727)">
            <path id="Path_3776" data-name="Path 3776" d="M1176.514,967.151a2.462,2.462,0,0,1-2.621-.082,2.657,2.657,0,0,1-.449-1.811,1.79,1.79,0,0,1,.25-.637,2.161,2.161,0,0,1,3.063-.22h0c.038.037.033.16.064.2A1.727,1.727,0,0,1,1176.514,967.151Z" transform="translate(-1173.406 -963.87)" fill="#a8c5e7"/>
            <path id="Path_3777" data-name="Path 3777" d="M1176.176,989.746a2.462,2.462,0,0,1-2.621-.082,2.657,2.657,0,0,1-.449-1.811h0a1.742,1.742,0,0,0,.812.869c.513.3,2.032.388,2.44-.436a1.471,1.471,0,0,0,.063-1.289,1.127,1.127,0,0,1,.105.117A1.833,1.833,0,0,1,1176.176,989.746Z" transform="translate(-1173.076 -986.465)" fill="#74a1d6"/>
          </g>
        </g>
        <path id="Path_3778" data-name="Path 3778" d="M596.184,913.746a.923.923,0,0,1,1.189-.884.758.758,0,0,1,.156-.313.592.592,0,0,1,.12-.935h0a.593.593,0,0,1,.84.75.769.769,0,0,1-.367,1.444.778.778,0,0,1-.093-.006.918.918,0,0,1-.043.23.851.851,0,0,1,.129.149,1.154,1.154,0,0,1,.612-.126c.718.035.874.773.9.9a1.271,1.271,0,0,1,1.082.542,1.294,1.294,0,0,1,.181.461s0,.007,0,.011l0-.011h0a1.922,1.922,0,0,1-.325,1.31,2.107,2.107,0,0,1-1.065.321,1.428,1.428,0,0,1-.836-.262,1.155,1.155,0,0,1-.522-.779,1.349,1.349,0,0,1,.009-.51.891.891,0,0,1-.507-.537.868.868,0,0,1-1.115-.831.834.834,0,0,1,.021-.187A.921.921,0,0,1,596.184,913.746Z" transform="translate(-592.138 -892.773)" fill="#a8c5e7"/>
        <path id="Path_3779" data-name="Path 3779" d="M1115.106,1085.018l0-.005-.012-.018-.007-.01-.019-.029-.01-.015-.025-.04-.011-.017-.037-.06-.007-.011-.052-.087,0,0-.054-.093-.014-.025-.048-.086-.019-.034-.049-.092-.019-.037-.055-.107-.017-.033c-.049-.1-.1-.2-.153-.319l-.01-.022q-.033-.073-.066-.15l-.021-.048-.057-.136-.023-.057c-.018-.046-.037-.093-.055-.141l-.022-.058c-.02-.053-.04-.107-.059-.162l-.016-.044c-.05-.142-.1-.29-.143-.443l-.016-.055q-.025-.087-.049-.177l-.019-.074q-.021-.083-.041-.167l-.019-.08c-.013-.058-.025-.116-.037-.175l-.016-.077q-.02-.1-.038-.208c0-.016-.006-.032-.008-.048q-.022-.132-.039-.268c0-.011,0-.022,0-.034-.01-.077-.018-.155-.026-.234,0-.028,0-.056-.007-.084-.005-.064-.01-.127-.014-.192,0-.032,0-.064-.005-.1,0-.062-.005-.125-.007-.188,0-.033,0-.065,0-.1,0-.067,0-.135,0-.2,0-.029,0-.057,0-.086s0-.075.005-.113c0-.088.009-.176.016-.265,0-.054.009-.108.015-.162,0-.036.008-.073.012-.11s.01-.079.016-.119c.013-.095.028-.19.045-.287.008-.045.016-.09.025-.135.025-.129.053-.258.087-.388.012-.046.024-.093.037-.139l-.01,0a5.418,5.418,0,0,0-2.118-.336c-.075,0-.149-.007-.222-.007h-.107l-.1,0h-.033l-.133.009h-.024c-.062,0-.122.01-.182.017h-.007a5.811,5.811,0,0,0-.944.19l-.1.031-.016.005-.064.021-.029.01-.039.014-.049.018-.019.007-.022.008-.013,0-.011,0-.007,0q.074.269.126.533c.027.136.05.27.067.4.014.1.026.2.034.3h0c.014.139.023.277.028.414h0a8.954,8.954,0,0,1-1.433,5.006h6.61Z" transform="translate(-1092.662 -1055.43)" fill="#5e748c"/>
        <path id="Path_3780" data-name="Path 3780" d="M644.06,1141.258l0,0-.009-.013,0-.007-.013-.02-.007-.011-.018-.028-.008-.013-.026-.042-.005-.008-.037-.062,0,0-.039-.067-.01-.018-.034-.062-.013-.024-.035-.066-.014-.026-.04-.077-.012-.023c-.035-.07-.072-.146-.109-.228l-.007-.016-.047-.107-.015-.034-.041-.1-.016-.041-.039-.1-.016-.042c-.014-.038-.028-.077-.042-.116l-.011-.032c-.035-.1-.07-.207-.1-.317l-.011-.039c-.012-.042-.024-.084-.035-.126l-.014-.053q-.015-.059-.029-.12l-.013-.058c-.009-.041-.018-.083-.027-.125l-.011-.055c-.01-.049-.018-.1-.027-.149,0-.012,0-.023-.006-.035q-.015-.094-.028-.192c0-.008,0-.016,0-.024q-.01-.083-.019-.167c0-.02,0-.04-.005-.06,0-.046-.007-.091-.01-.137,0-.023,0-.046,0-.069,0-.045,0-.089,0-.135,0-.023,0-.047,0-.07,0-.048,0-.1,0-.145,0-.021,0-.041,0-.062s0-.054,0-.081q0-.094.012-.189c0-.039.006-.077.01-.116s.005-.052.009-.078.008-.057.012-.085c.009-.068.02-.136.032-.205.006-.032.011-.064.018-.1.018-.092.038-.185.062-.278.008-.033.017-.067.027-.1l-.007,0a3.875,3.875,0,0,0-1.515-.24c-.053,0-.106,0-.159-.005h-.174l-.1.006h-.017l-.13.012h-.005a4.148,4.148,0,0,0-.675.136l-.073.022-.011,0-.046.015-.021.007-.028.01-.035.013-.013,0-.016.006-.009,0-.008,0-.005,0c.036.128.065.255.09.381.019.1.036.193.048.289.01.071.018.142.024.212h0c.01.1.016.2.02.3h0a6.4,6.4,0,0,1-1.025,3.581h4.728Z" transform="translate(-634.297 -1112.32)" fill="#5e748c"/>
        <path id="Path_3781" data-name="Path 3781" d="M420.451,1339.994h24.382l-1.179-1.252h-6.025l-8.3-.7h-4.272l-.479.976H421Z" transform="translate(-420.451 -1309.462)" fill="#374e67"/>
        <g id="Group_3612" data-name="Group 3612" transform="translate(7.055 18.698)">
          <g id="Group_3610" data-name="Group 3610">
            <path id="Path_3782" data-name="Path 3782" d="M737.685,920.179H726.93a14.568,14.568,0,0,0,2.331-8.146c-.009-.222-.023-.447-.046-.674-.013-.16-.032-.322-.055-.483-.029-.218-.066-.437-.11-.658q-.084-.431-.2-.867s.226-.092.606-.2a9.131,9.131,0,0,1,2.1-.355,7.4,7.4,0,0,1,.757.006,8.814,8.814,0,0,1,3.446.547l.016.006c-.022.075-.042.151-.061.226-.062.24-.115.479-.16.715s-.082.476-.111.71c-.017.143-.033.284-.046.426-.019.222-.033.441-.04.659A14.571,14.571,0,0,0,737.685,920.179Z" transform="translate(-726.93 -908.787)" fill="#8596a6"/>
            <path id="Path_3783" data-name="Path 3783" d="M825.543,954.959c-.045.24-.074.409-.1.643a12.773,12.773,0,0,0-6.286-.06c-.029-.218-.066-.437-.11-.658A13.028,13.028,0,0,1,825.543,954.959Z" transform="translate(-816.923 -953.452)" fill="#fff3c9"/>
            <path id="Path_3784" data-name="Path 3784" d="M832.208,1006.133c-.019.222-.033.441-.04.659a12.789,12.789,0,0,0-6.09-.055c-.009-.222-.023-.447-.046-.674A13.006,13.006,0,0,1,832.208,1006.133Z" transform="translate(-823.75 -1003.49)" fill="#fff3c9"/>
            <path id="Path_3785" data-name="Path 3785" d="M833.311,930.586h-3.72c-1.657-6.531.7-10.386.7-10.386-1.943-.936-5.326-.289-5.482-.258a10.174,10.174,0,0,1,6.526.043C829.866,925.707,833.311,930.586,833.311,930.586Z" transform="translate(-822.556 -919.193)" fill="#5e748c" opacity="0.57" style="mix-blend-mode: multiply;isolation: isolate"/>
            <path id="Path_3786" data-name="Path 3786" d="M755.227,920.475h-2.793c3.142-4.335,2.25-9.617,1.934-11.031a9.132,9.132,0,0,1,2.1-.355C757.731,915.519,756.4,918.357,755.227,920.475Z" transform="translate(-751.847 -909.082)" fill="#bac9cb" opacity="0.6" style="mix-blend-mode: overlay;isolation: isolate"/>
            <path id="Path_3787" data-name="Path 3787" d="M729.05,909.478c1.649,4.988-1.243,9.655-1.963,10.7h-.157a14.568,14.568,0,0,0,2.331-8.146c-.009-.222-.023-.447-.046-.674-.013-.16-.032-.322-.055-.483-.029-.218-.066-.437-.11-.658q-.084-.431-.2-.867a11.129,11.129,0,0,1,6.908-.006A10.983,10.983,0,0,0,729.05,909.478Z" transform="translate(-726.93 -908.79)" fill="#bac9cb" style="mix-blend-mode: overlay;isolation: isolate"/>
            <path id="Path_3788" data-name="Path 3788" d="M775.377,1377.127l.481-.626h.454l-.286.626Z" transform="translate(-774.262 -1365.734)" fill="#1f3e51"/>
            <path id="Path_3789" data-name="Path 3789" d="M865.921,1377.127l.293-.626h.454l-.1.626Z" transform="translate(-862.721 -1365.734)" fill="#1f3e51"/>
            <path id="Path_3790" data-name="Path 3790" d="M1044.419,1377.127l-.293-.626h-.454l.1.626Z" transform="translate(-1036.38 -1365.734)" fill="#1f3e51"/>
            <g id="Group_3609" data-name="Group 3609" transform="translate(5.263 10.767)">
              <path id="Path_3791" data-name="Path 3791" d="M1126.48,1376.5h-.454l.286.626h.65Z" transform="translate(-1122.101 -1376.501)" fill="#1f3e51"/>
              <path id="Path_3792" data-name="Path 3792" d="M956.112,1376.5h-.454l-.127.626h.713l-.127-.626Z" transform="translate(-955.531 -1376.501)" fill="#1f3e51"/>
            </g>
          </g>
          <g id="Group_3611" data-name="Group 3611" transform="translate(4.482 5.328)">
            <path id="Path_3793" data-name="Path 3793" d="M922.716,1141.747l.679-1.176a.213.213,0,0,0-.185-.32h-1.358a.213.213,0,0,0-.185.32l.679,1.176A.213.213,0,0,0,922.716,1141.747Z" transform="translate(-921.639 -1140.252)" fill="#1f3e51"/>
            <path id="Path_3794" data-name="Path 3794" d="M935.184,1149.949l.454-.787a.143.143,0,0,0-.124-.214h-.908a.143.143,0,0,0-.124.214l.454.787A.143.143,0,0,0,935.184,1149.949Z" transform="translate(-934.168 -1148.748)" fill="#ffbe64"/>
          </g>
        </g>
        <path id="Path_3795" data-name="Path 3795" d="M574.543,1404.081l-.184.441H591.89l-.239-.441Z" transform="translate(-570.816 -1373.981)" fill="#1f3e51"/>
        <path id="Path_3796" data-name="Path 3796" d="M1242.26,1212.378h-.691a.109.109,0,0,0-.094.163l.346.6a.108.108,0,0,0,.188,0l.346-.6A.108.108,0,0,0,1242.26,1212.378Z" transform="translate(-1222.56 -1186.691)" fill="#ffd79b"/>
        <path id="Path_3797" data-name="Path 3797" d="M733.159,1230.091h-.47a.074.074,0,0,0-.064.111l.235.407a.074.074,0,0,0,.128,0l.235-.407A.074.074,0,0,0,733.159,1230.091Z" transform="translate(-725.429 -1203.996)" fill="#ffd79b"/>
        <line id="Line_43" data-name="Line 43" x2="0.564" transform="translate(17.416 28.752)" fill="#3f5773"/>
      </g>
    </g>
  </g>
</svg>
