<svg xmlns="http://www.w3.org/2000/svg" width="54" height="54" viewBox="0 0 54 54">
  <g id="Group_4008" data-name="Group 4008" transform="translate(-641 -1865)">
    <circle id="Ellipse_112" data-name="Ellipse 112" cx="27" cy="27" r="27" transform="translate(641 1865)" fill="#d2f1f9"/>
    <g id="Group_3716" data-name="Group 3716" transform="translate(152.104 1438.979)">
      <g id="Group_3615" data-name="Group 3615" transform="translate(498.896 436.443)">
        <path id="Path_3798" data-name="Path 3798" d="M503.241,467.609c.153-2.2,1.635-3.983,2.7-5.87.872-1.539,1.5-3.235,2.47-4.7a5.715,5.715,0,0,1,4.075-2.849c2.216-.146,4.253,1.744,6.458,1.465s3.641-2.552,5.516-3.825c2.615-1.776,6.039-1.511,8.956-.4a10.817,10.817,0,0,1,5.448,4.089,8.588,8.588,0,0,1,1.161,6.016c-.577,3.227-2.948,5.861-3.385,9.114-.184,1.369-.018,2.817-.506,4.1a5.252,5.252,0,0,1-4.623,3.054,24.847,24.847,0,0,1-5.669-.671,38.644,38.644,0,0,0-7.872-.221,17.355,17.355,0,0,1-6.3-.4,6.874,6.874,0,0,1-2.423-1.384c-.632-.56-1.087-1.315-1.769-1.813-.471-.344-1.016-.547-1.509-.852a5.956,5.956,0,0,1-1.93-1.835A5.019,5.019,0,0,1,503.241,467.609Z" transform="translate(-503.23 -450.542)" fill="#d2f1f9"/>
      </g>
      <g id="Group_3698" data-name="Group 3698" transform="translate(498.403 434.84)">
        <g id="Group_3696" data-name="Group 3696" transform="translate(0 0)">
          <g id="Group_3626" data-name="Group 3626" transform="translate(19.565)">
            <g id="Group_3616" data-name="Group 3616">
              <path id="Path_3799" data-name="Path 3799" d="M691.636,445.266a4.354,4.354,0,0,1-1.644-3.12c.03-1.212,1.232-2.406,2.385-2.032.3.1.562.284.854.4a2.576,2.576,0,0,1,.875.4c.3.283.4.814.806.883.48.082.721-.6.578-1.069s-.474-.9-.4-1.385a1.18,1.18,0,0,1,1.16-.867,2.078,2.078,0,0,0,.632-.048,1.173,1.173,0,0,0,.461-.361,20.57,20.57,0,0,1,2.125-2.617c.873-.712,2.352-.908,3.016,0a2.389,2.389,0,0,1-.081,2.424c-.183.365-.4.814-.167,1.149.357.513,1.143.066,1.767.065a1.432,1.432,0,0,1,1.275,1.565,2.455,2.455,0,0,1-1.252,1.791,1.615,1.615,0,0,0-.634.521c-.133.243-.028.632.248.655a1.408,1.408,0,0,0,.241-.026c.443-.04.758.5.662.936a1.973,1.973,0,0,1-.8,1.034,2.647,2.647,0,0,0-.9.969c-.325.784.2,1.814-.338,2.474-.424.524-1.221.456-1.894.423s-1.528.165-1.649.828c-.059.325.093.666.006.985a.928.928,0,0,1-1.226.487c-.653-.251-.971-.933-1.342-1.474a3.685,3.685,0,0,0-1.546-1.2,5.023,5.023,0,0,1-2.428-1.71c-.233-.4-.069-.782-.155-1.2A1.785,1.785,0,0,0,691.636,445.266Z" transform="translate(-689.991 -434.84)" fill="#8ddbbf"/>
            </g>
            <g id="Group_3625" data-name="Group 3625" transform="translate(2.104 4.268)">
              <g id="Group_3617" data-name="Group 3617" transform="translate(1.357)">
                <path id="Path_3800" data-name="Path 3800" d="M724.13,505a.208.208,0,0,1-.208-.2c-.069-4.723-.141-9.606,1.211-14.251.451-1.549,1.067-3.087,1.662-4.574,1.174-2.932,2.388-5.964,2.329-9.124a.208.208,0,0,1,.2-.212.21.21,0,0,1,.212.2c.061,3.244-1.169,6.316-2.359,9.286-.592,1.478-1.2,3.005-1.649,4.535-1.334,4.585-1.263,9.437-1.194,14.129a.208.208,0,0,1-.2.211Z" transform="translate(-723.891 -476.637)" fill="#5b3f41"/>
              </g>
              <g id="Group_3618" data-name="Group 3618" transform="translate(2.576 10.466)">
                <path id="Path_3801" data-name="Path 3801" d="M736.652,580.636a.1.1,0,0,1-.085-.045,7.506,7.506,0,0,1-.736-1.324.1.1,0,1,1,.191-.082,7.3,7.3,0,0,0,.716,1.287.1.1,0,0,1-.085.163Z" transform="translate(-735.822 -579.123)" fill="#5b3f41"/>
              </g>
              <g id="Group_3619" data-name="Group 3619" transform="translate(2.939 13.342)">
                <path id="Path_3802" data-name="Path 3802" d="M739.482,607.887a.1.1,0,0,1-.042-.2,5.5,5.5,0,0,1,1.381-.4.1.1,0,0,1,.031.206,5.284,5.284,0,0,0-1.329.381A.1.1,0,0,1,739.482,607.887Z" transform="translate(-739.378 -607.291)" fill="#5b3f41"/>
              </g>
              <g id="Group_3620" data-name="Group 3620" transform="translate(4.986 2.658)">
                <path id="Path_3803" data-name="Path 3803" d="M759.526,508.2a.1.1,0,0,1-.048-.2c2.255-1.178,3.814-3.369,5.19-5.3a.1.1,0,1,1,.169.121c-1.389,1.953-2.964,4.166-5.263,5.367A.1.1,0,0,1,759.526,508.2Z" transform="translate(-759.422 -502.661)" fill="#5b3f41"/>
              </g>
              <g id="Group_3621" data-name="Group 3621" transform="translate(4.638 0.433)">
                <path id="Path_3804" data-name="Path 3804" d="M757.915,483.22a.1.1,0,0,1-.073-.03,14.439,14.439,0,0,1-1.813-2.154.1.1,0,0,1,.171-.118,14.216,14.216,0,0,0,1.787,2.123.1.1,0,0,1-.073.178Z" transform="translate(-756.011 -480.874)" fill="#5b3f41"/>
              </g>
              <g id="Group_3622" data-name="Group 3622" transform="translate(8.411 4.122)">
                <path id="Path_3805" data-name="Path 3805" d="M793.087,518.071a.1.1,0,0,1-.1-.092,2.448,2.448,0,0,1,.062-.9.1.1,0,0,1,.2.052,2.245,2.245,0,0,0-.057.82.1.1,0,0,1-.091.115Z" transform="translate(-792.967 -517.006)" fill="#5b3f41"/>
              </g>
              <g id="Group_3623" data-name="Group 3623" transform="translate(6.904 6.091)">
                <path id="Path_3806" data-name="Path 3806" d="M778.951,537.236a2.506,2.506,0,0,1-.664-.086.1.1,0,0,1,.055-.2,2.774,2.774,0,0,0,1.5-.055,8.627,8.627,0,0,0,1.432-.6.1.1,0,1,1,.092.186,8.788,8.788,0,0,1-1.468.618A3.46,3.46,0,0,1,778.951,537.236Z" transform="translate(-778.211 -536.279)" fill="#5b3f41"/>
              </g>
              <g id="Group_3624" data-name="Group 3624" transform="translate(0 2.679)">
                <path id="Path_3807" data-name="Path 3807" d="M714.847,510.058a.1.1,0,0,1-.066-.023,5.75,5.75,0,0,1-2.761-3.771c-.043-.164-.088-.335-.138-.5a14.478,14.478,0,0,0-1.271-2.743.1.1,0,1,1,.182-.1,14.626,14.626,0,0,1,1.288,2.783c.051.168.1.34.14.506a5.553,5.553,0,0,0,2.692,3.663.1.1,0,0,1-.066.185Z" transform="translate(-710.598 -502.867)" fill="#5b3f41"/>
              </g>
            </g>
          </g>
          <g id="Group_3627" data-name="Group 3627" transform="translate(22.202 19.161)">
            <path id="Path_3808" data-name="Path 3808" d="M716.527,623.426a2.151,2.151,0,0,1,1.23-.927.624.624,0,0,1,.464.034.641.641,0,0,1,.247.538.831.831,0,0,1-.1.48.409.409,0,0,1-.42.2c-.1-.024-.189-.1-.293-.1-.193,0-.287.232-.326.421a15.156,15.156,0,0,0-.261,1.8,1.388,1.388,0,0,1-.135.591.448.448,0,0,1-.513.23.642.642,0,0,1-.313-.45q-.163-.527-.28-1.066a.446.446,0,0,1,.033-.33,2.873,2.873,0,0,0,.13-.331,6.74,6.74,0,0,1,.311-.716A3.71,3.71,0,0,1,716.527,623.426Z" transform="translate(-715.814 -622.472)" fill="#ff926c"/>
          </g>
          <g id="Group_3628" data-name="Group 3628" transform="translate(23.656 20.182)">
            <path id="Path_3809" data-name="Path 3809" d="M730.721,632.6a.746.746,0,0,0-.406.585c-.009.092.022.212.114.224a.753.753,0,0,0-.249.786c.008.025.026.055.051.049s0-.055-.012-.03a2.8,2.8,0,0,0-.154.382.383.383,0,0,0,.118.355.219.219,0,0,0-.125.255.253.253,0,0,0,.213.149.582.582,0,0,0,.267-.048,1.224,1.224,0,0,0,.477-.308.766.766,0,0,0,.209-.519.184.184,0,0,0-.074-.166,1.018,1.018,0,0,0,.239-.358.353.353,0,0,0-.083-.4.7.7,0,0,0,.128-.683.589.589,0,0,0-.558-.4C730.835,632.469,730.758,632.579,730.721,632.6Z" transform="translate(-730.05 -632.467)" fill="#ff926c"/>
          </g>
          <g id="Group_3687" data-name="Group 3687" transform="translate(0 9.99)">
            <g id="Group_3629" data-name="Group 3629" transform="translate(7.906 23.882)">
              <path id="Path_3810" data-name="Path 3810" d="M576.011,766.548a3.247,3.247,0,0,0-.105,1.841,30.944,30.944,0,0,0,5.565.639,1.612,1.612,0,0,0-.5-1.461,2.5,2.5,0,0,0-.579-.328A10.13,10.13,0,0,0,576.011,766.548Z" transform="translate(-575.819 -766.537)" fill="#5b3f41"/>
            </g>
            <g id="Group_3630" data-name="Group 3630" transform="translate(0 20.667)">
              <path id="Path_3811" data-name="Path 3811" d="M498.422,735.914a1.57,1.57,0,0,0,.053.67l.451,1.981a1.943,1.943,0,0,0,.365.886,1.44,1.44,0,0,0,1.047.409c.385.012.769-.059,1.154-.064a1.462,1.462,0,0,0,.616-.078.79.79,0,0,0,.4-.724,1.839,1.839,0,0,0-.255-.826,10.015,10.015,0,0,0-1.469-1.985c-.278-.31-.551-.626-.83-.934a.584.584,0,0,0-.764-.109A1.2,1.2,0,0,0,498.422,735.914Z" transform="translate(-498.403 -735.049)" fill="#5b3f41"/>
            </g>
            <g id="Group_3637" data-name="Group 3637" transform="translate(15.115 15.883)">
              <g id="Group_3634" data-name="Group 3634" transform="translate(2.195)">
                <g id="Group_3631" data-name="Group 3631" transform="translate(3.013)">
                  <path id="Path_3812" data-name="Path 3812" d="M697.46,691.544a25.543,25.543,0,0,1-.008-2.877c1.094-.113,2.282-.322,3.376-.435a2.5,2.5,0,0,1,.861.01,2.959,2.959,0,0,1-.884,1.046A23.037,23.037,0,0,1,697.46,691.544Z" transform="translate(-697.415 -688.2)" fill="#c8cacc"/>
                </g>
                <g id="Group_3632" data-name="Group 3632" transform="translate(5.424 0.351)">
                  <path id="Path_3813" data-name="Path 3813" d="M721.13,692.13a.1.1,0,0,1-.043-.2l.645-.289a.1.1,0,0,1,.085.19l-.645.288A.105.105,0,0,1,721.13,692.13Z" transform="translate(-721.026 -691.633)" fill="#1b0102"/>
                </g>
                <g id="Group_3633" data-name="Group 3633" transform="translate(0 0.925)">
                  <path id="Path_3814" data-name="Path 3814" d="M668.019,700.843a.1.1,0,0,1-.055-.193l1.284-.791a1.669,1.669,0,0,0,.766-.732,1.753,1.753,0,0,0,.075-.3,1.133,1.133,0,0,1,.2-.542,1.092,1.092,0,0,1,.378-.265,10.4,10.4,0,0,1,2.04-.755.1.1,0,0,1,.051.2,10.183,10.183,0,0,0-2,.74.923.923,0,0,0-.31.211.965.965,0,0,0-.159.448,1.926,1.926,0,0,1-.085.338,1.889,1.889,0,0,1-.851.834l-1.284.791A.1.1,0,0,1,668.019,700.843Z" transform="translate(-667.915 -697.259)" fill="#1b0102"/>
                </g>
              </g>
              <g id="Group_3635" data-name="Group 3635" transform="translate(0.484 2.596)">
                <rect id="Rectangle_49" data-name="Rectangle 49" width="4.413" height="1.172" rx="0.586" transform="matrix(0.839, -0.545, 0.545, 0.839, 0, 2.403)" fill="#1b0202"/>
              </g>
              <g id="Group_3636" data-name="Group 3636" transform="translate(0 1.56)">
                <path id="Path_3815" data-name="Path 3815" d="M646.561,705.505c.351.274,1.754,1.785,1.893,1.938a.653.653,0,0,0,.2.164.392.392,0,0,0,.521-.259c.137.1.32-.017.455-.119a1.209,1.209,0,0,0,.3-.4.981.981,0,0,0,.7-.353,2.377,2.377,0,0,0,.41-.713c.08-.2-.223-.438-.433-.409a1.563,1.563,0,0,1-.217.042c-.23,0-.335-.318-.242-.528a1.933,1.933,0,0,1,.457-.509,1.527,1.527,0,0,0,.354-.574.21.21,0,0,0,0-.171.2.2,0,0,0-.094-.072.81.81,0,0,0-.678.009c-.2.1-.351.273-.552.366a1.83,1.83,0,0,1-1.195-.067,5.221,5.221,0,0,0-1.459-.147.556.556,0,0,0-.284.066.526.526,0,0,0-.186.3,2.44,2.44,0,0,0-.043,1.243C646.481,705.234,646.559,705.589,646.561,705.505Z" transform="translate(-646.419 -703.472)" fill="#ff926c"/>
              </g>
            </g>
            <g id="Group_3638" data-name="Group 3638" transform="translate(0.614 15.973)">
              <path id="Path_3816" data-name="Path 3816" d="M505.994,697.207c-.575-.824-.641-1.952-1.216-2.775a1.269,1.269,0,0,1-.331-1.028,1.22,1.22,0,0,1,.432-.54,22.439,22.439,0,0,1,3.815-2.584,8.037,8.037,0,0,1,4.183-1.184,2.076,2.076,0,0,1,.829.192,1.808,1.808,0,0,1,.615.558,2.841,2.841,0,0,1,.5,1.951,2.7,2.7,0,0,1-.873,1.827c-.238.177-.544.241-.794.413-.378.262-.765.512-1.161.745A18.111,18.111,0,0,1,509.5,696,25.227,25.227,0,0,1,505.994,697.207Z" transform="translate(-504.419 -689.086)" fill="#d63232"/>
            </g>
            <g id="Group_3639" data-name="Group 3639" transform="translate(0.959 4.945)">
              <path id="Path_3817" data-name="Path 3817" d="M511.362,582.269a10.4,10.4,0,0,0-2.58,4.161,6.521,6.521,0,0,0-.591,2.361,7.268,7.268,0,0,1,0,1.245c-.106.6-.519,1.179-.358,1.767.182.666.985.928,1.674.975a33.7,33.7,0,0,1,3.838.04c.713.132,1.387.423,2.086.615a5.967,5.967,0,0,0,5.375-.967,4.114,4.114,0,0,0,1.007-5.112,26.068,26.068,0,0,0-2.194-3.192,35.446,35.446,0,0,0-3.071-2.493,3.99,3.99,0,0,0-3.058-.466A4.813,4.813,0,0,0,511.362,582.269Z" transform="translate(-507.797 -581.096)" fill="#6a8bcc"/>
            </g>
            <g id="Group_3653" data-name="Group 3653" transform="translate(8.393)">
              <g id="Group_3640" data-name="Group 3640" transform="translate(0.013)">
                <path id="Path_3818" data-name="Path 3818" d="M585.461,535.407a1.076,1.076,0,0,0,.03-.552.486.486,0,0,0-.377-.369c-.067-.008-.135,0-.2-.013-.187-.042-.273-.252-.345-.429a3.542,3.542,0,0,0-.688-1.076.907.907,0,0,0-.409-.286.374.374,0,0,0-.434.168c-.056.122-.038.3-.161.353a.221.221,0,0,1-.135,0,1.707,1.707,0,0,1-.492-.277.512.512,0,0,0-.534-.061c-.2.13-.176.429-.086.647a.363.363,0,0,1,.041.157c-.007.121-.144.194-.265.2a2.33,2.33,0,0,0-.363.006.505.505,0,0,0-.281.683,2.516,2.516,0,0,0,.334.468.558.558,0,0,1,.114.538c-.046.1-.142.179-.166.287-.05.223.209.377.334.568s.123.418.272.569c.2.2.542.136.817.053.573-.173,1.145-.36,1.723-.519.157-.043.321-.069.474-.124a1.008,1.008,0,0,0,.371-.254A1.637,1.637,0,0,0,585.461,535.407Z" transform="translate(-580.722 -532.669)" fill="#1b0202"/>
              </g>
              <g id="Group_3641" data-name="Group 3641" transform="translate(0 1.974)">
                <path id="Path_3819" data-name="Path 3819" d="M581.93,553.462c.007-.125-.13-.2-.2-.309-.14-.215.033-.5.246-.646a.533.533,0,0,1,.356-.107.259.259,0,0,1,.233.253c-.01.112-.1.248-.014.316.072.054.171-.02.218-.1.156-.251.183-.592.418-.77a.669.669,0,0,1,.718,0,1.368,1.368,0,0,1,.529.565,1.308,1.308,0,0,1,.1,1.3,4.507,4.507,0,0,1-1.109,2.02.171.171,0,0,1-.262.008,2.477,2.477,0,0,1-.643-.723c-.027.113-.062.225-.1.335-.182.562-.117.44-.3,1a3.408,3.408,0,0,1-1.528-1.085A3.294,3.294,0,0,0,581.93,553.462Z" transform="translate(-580.596 -551.996)" fill="#ff926c"/>
              </g>
              <g id="Group_3642" data-name="Group 3642" transform="translate(3.055 4.24)">
                <path id="Path_3820" data-name="Path 3820" d="M610.567,575.232a.051.051,0,0,1-.023-.005.052.052,0,0,1-.024-.069.248.248,0,0,1,.228-.122.755.755,0,0,1,.135.016c.028,0,.055.01.083.012h.016a.12.12,0,0,1,0-.017,1.365,1.365,0,0,0-.066-.348c-.011-.038-.021-.076-.031-.114-.014-.058-.026-.1-.035-.131a1.826,1.826,0,0,1-.048-.2.052.052,0,1,1,.1-.019,1.734,1.734,0,0,0,.046.193c.01.035.021.075.036.134.009.037.02.074.03.112a1.465,1.465,0,0,1,.07.374.107.107,0,0,1-.13.122c-.03,0-.061-.008-.091-.014a.663.663,0,0,0-.117-.014.149.149,0,0,0-.135.064A.052.052,0,0,1,610.567,575.232Z" transform="translate(-610.515 -574.19)" fill="#1b0102"/>
              </g>
              <g id="Group_3643" data-name="Group 3643" transform="translate(2.636 4.879)">
                <path id="Path_3821" data-name="Path 3821" d="M606.639,580.927a.052.052,0,0,1-.036-.014.632.632,0,0,1-.194-.416.052.052,0,0,1,.1-.006.528.528,0,0,0,.162.347.052.052,0,0,1-.036.09Z" transform="translate(-606.409 -580.442)" fill="#1b0102"/>
              </g>
              <g id="Group_3644" data-name="Group 3644" transform="translate(2.546 5.063)">
                <path id="Path_3822" data-name="Path 3822" d="M605.615,582.483a.052.052,0,0,1-.05-.037l-.037-.126a.052.052,0,0,1,.1-.029l.037.126a.052.052,0,0,1-.035.065Z" transform="translate(-605.526 -582.253)" fill="#1b0102"/>
              </g>
              <g id="Group_3645" data-name="Group 3645" transform="translate(1.277 2.627)">
                <path id="Path_3823" data-name="Path 3823" d="M593.156,558.88a.052.052,0,0,1-.051-.041.364.364,0,0,1,.46-.427.052.052,0,0,1-.03.1.26.26,0,0,0-.328.305.052.052,0,0,1-.04.062Z" transform="translate(-593.097 -558.397)" fill="#1b0102"/>
              </g>
              <g id="Group_3646" data-name="Group 3646" transform="translate(1.42 2.703)">
                <path id="Path_3824" data-name="Path 3824" d="M594.578,559.52a.052.052,0,0,1-.049-.07.292.292,0,0,0-.019-.238.052.052,0,1,1,.091-.05.4.4,0,0,1,.026.323A.052.052,0,0,1,594.578,559.52Z" transform="translate(-594.503 -559.136)" fill="#1b0102"/>
              </g>
              <g id="Group_3647" data-name="Group 3647" transform="translate(1.555 4.708)">
                <path id="Path_3825" data-name="Path 3825" d="M596.347,579.587a.052.052,0,0,1-.04-.019,4.38,4.38,0,0,1-.478-.72.052.052,0,1,1,.092-.049,4.274,4.274,0,0,0,.467.7.052.052,0,0,1-.04.085Z" transform="translate(-595.822 -578.772)" fill="#1b0102"/>
              </g>
              <g id="Group_3648" data-name="Group 3648" transform="translate(2.739 2.919)">
                <path id="Path_3826" data-name="Path 3826" d="M608.032,561.518a.106.106,0,0,1-.037-.007.76.76,0,0,0-.446-.029.1.1,0,1,1-.048-.2.971.971,0,0,1,.568.037.1.1,0,0,1-.037.2Z" transform="translate(-607.421 -561.253)" fill="#1b0102"/>
              </g>
              <g id="Group_3649" data-name="Group 3649" transform="translate(3.784 3.265)">
                <path id="Path_3827" data-name="Path 3827" d="M617.922,565.141a.1.1,0,0,1-.1-.077.563.563,0,0,0-.139-.246.1.1,0,0,1,.15-.144.773.773,0,0,1,.19.337.1.1,0,0,1-.1.131Z" transform="translate(-617.654 -564.642)" fill="#1b0102"/>
              </g>
              <g id="Group_3650" data-name="Group 3650" transform="translate(2.902 3.741)">
                <path id="Path_3828" data-name="Path 3828" d="M609.019,569.445c-.02.09,0,.172.055.184s.108-.052.129-.142,0-.172-.055-.184S609.039,569.355,609.019,569.445Z" transform="translate(-609.011 -569.301)" fill="#1b0202"/>
              </g>
              <g id="Group_3651" data-name="Group 3651" transform="translate(3.585 4.128)">
                <path id="Path_3829" data-name="Path 3829" d="M615.706,573.225c-.019.083,0,.158.05.169s.1-.048.118-.131,0-.158-.05-.169S615.724,573.142,615.706,573.225Z" transform="translate(-615.699 -573.093)" fill="#1b0202"/>
              </g>
              <g id="Group_3652" data-name="Group 3652" transform="translate(1.507 4.794)">
                <path id="Path_3830" data-name="Path 3830" d="M595.754,580.15a6.125,6.125,0,0,1-.341-.538,1.191,1.191,0,0,0,.175,1.075Z" transform="translate(-595.356 -579.612)" fill="#e55a53"/>
              </g>
            </g>
            <g id="Group_3654" data-name="Group 3654" transform="translate(10.282 7.331)">
              <path id="Path_3831" data-name="Path 3831" d="M603.525,612.468a10.516,10.516,0,0,0,8.168-1.916,5.793,5.793,0,0,0-.628-2.194,10.951,10.951,0,0,1-3.445.69,5.334,5.334,0,0,1-3.312-1.015,19.569,19.569,0,0,1-2.094-2.328,3.169,3.169,0,0,0-2.749-1.21,3.491,3.491,0,0,0-.11,2.9,10.4,10.4,0,0,0,1.631,2.5l1.094,1.369C602.444,611.715,602.954,612.354,603.525,612.468Z" transform="translate(-599.094 -604.459)" fill="#6a8bcc"/>
            </g>
            <g id="Group_3655" data-name="Group 3655" transform="translate(6.157 4.292)">
              <path id="Path_3832" data-name="Path 3832" d="M563.14,576.84v-.1c-.306-.168-.662-.3-.968-.47a1.664,1.664,0,0,1-.594-.456,3.394,3.394,0,0,1-.265-.6.669.669,0,0,0-.462-.433,1.752,1.752,0,0,0-.423.047c-.342.034-.679-.16-1.02-.115a.876.876,0,0,0-.707.816,1.233,1.233,0,0,0,.5,1.009,4.608,4.608,0,0,0,1.22.545,4.7,4.7,0,0,1,1.128.629c.361.272.793.619,1.211.445a.776.776,0,0,0,.422-.558A3.541,3.541,0,0,0,563.14,576.84Z" transform="translate(-558.698 -574.698)" fill="#6a8bcc"/>
            </g>
            <g id="Group_3656" data-name="Group 3656" transform="translate(0.946 13.221)">
              <path id="Path_3833" data-name="Path 3833" d="M507.9,664.495a3.572,3.572,0,0,0,2.442,5.07,6.1,6.1,0,0,0,5.715-1.571,5.369,5.369,0,0,0-1.12,2.569,4.783,4.783,0,0,0-.375,2.433,14.064,14.064,0,0,0,2.955.876,1.141,1.141,0,0,0,.589-.046,1.2,1.2,0,0,0,.5-.58l1.481-2.786a5.492,5.492,0,0,0,.933-3.325,4.506,4.506,0,0,0-1.794-2.612,10.238,10.238,0,0,0-5.7-2.365C511.441,662.019,508.573,662.517,507.9,664.495Z" transform="translate(-507.662 -662.136)" fill="#f45a56"/>
            </g>
            <g id="Group_3657" data-name="Group 3657" transform="translate(3.52 5.472)">
              <path id="Path_3834" data-name="Path 3834" d="M533.255,588.362a10.727,10.727,0,0,0-.193,4.783,6.885,6.885,0,0,0,2.43,4.055,11.59,11.59,0,0,0,3.912,1.69c1.747.51,3.155,1.412,4.9,1.922a4.181,4.181,0,0,0,1.178-2.464,27.92,27.92,0,0,1-5.505-4.788,7.351,7.351,0,0,1-.99-1.33,10.4,10.4,0,0,1-.82-2.638,5.549,5.549,0,0,0-1.115-2.5,2.242,2.242,0,0,0-2.5-.68A3.261,3.261,0,0,0,533.255,588.362Z" transform="translate(-532.874 -586.25)" fill="#6a8bcc"/>
            </g>
            <g id="Group_3658" data-name="Group 3658" transform="translate(15.352 17.674)">
              <path id="Path_3835" data-name="Path 3835" d="M649.5,705.746a4.333,4.333,0,0,1-.764,1.882l.553.542A4.141,4.141,0,0,0,649.5,705.746Z" transform="translate(-648.737 -705.746)" fill="#e55a53"/>
            </g>
            <g id="Group_3659" data-name="Group 3659" transform="translate(17.615 21.03)">
              <path id="Path_3836" data-name="Path 3836" d="M671.3,738.954h-.009a.556.556,0,0,1-.388-.276.052.052,0,0,1,.091-.05.458.458,0,0,0,.315.224.052.052,0,0,1-.009.1Z" transform="translate(-670.898 -738.6)" fill="#1b0102"/>
            </g>
            <g id="Group_3660" data-name="Group 3660" transform="translate(18.361 20.519)">
              <path id="Path_3837" data-name="Path 3837" d="M678.637,733.9a.532.532,0,0,1-.424-.213.052.052,0,1,1,.084-.062.438.438,0,0,0,.362.171.052.052,0,1,1,.006.1Z" transform="translate(-678.203 -733.6)" fill="#1b0102"/>
            </g>
            <g id="Group_3661" data-name="Group 3661" transform="translate(18.738 19.879)">
              <path id="Path_3838" data-name="Path 3838" d="M682.466,727.714a.916.916,0,0,1-.22-.024.484.484,0,0,1-.351-.286.052.052,0,0,1,.1-.036.391.391,0,0,0,.278.22,1.25,1.25,0,0,0,.4.01.053.053,0,0,1,.056.047.052.052,0,0,1-.047.056C682.613,727.708,682.54,727.714,682.466,727.714Z" transform="translate(-681.892 -727.334)" fill="#1b0102"/>
            </g>
            <g id="Group_3662" data-name="Group 3662" transform="translate(17.242 20.815)">
              <path id="Path_3839" data-name="Path 3839" d="M667.294,736.82h0a.052.052,0,0,1-.049-.055.437.437,0,0,1,.091-.244.052.052,0,1,1,.082.064.334.334,0,0,0-.069.185A.052.052,0,0,1,667.294,736.82Z" transform="translate(-667.242 -736.501)" fill="#1b0102"/>
            </g>
            <g id="Group_3663" data-name="Group 3663" transform="translate(17.792 20.407)">
              <path id="Path_3840" data-name="Path 3840" d="M672.685,732.782a.051.051,0,0,1-.022,0,.052.052,0,0,1-.025-.069l.081-.174a.052.052,0,0,1,.094.044l-.081.174A.052.052,0,0,1,672.685,732.782Z" transform="translate(-672.633 -732.504)" fill="#1b0102"/>
            </g>
            <g id="Group_3664" data-name="Group 3664" transform="translate(18.359 19.878)">
              <path id="Path_3841" data-name="Path 3841" d="M678.236,727.608a.051.051,0,0,1-.021,0,.052.052,0,0,1-.026-.069l.078-.176a.052.052,0,0,1,.095.042l-.078.176A.052.052,0,0,1,678.236,727.608Z" transform="translate(-678.184 -727.328)" fill="#1b0102"/>
            </g>
            <g id="Group_3665" data-name="Group 3665" transform="translate(18.862 17.535)">
              <path id="Path_3842" data-name="Path 3842" d="M683.458,704.682h-.031a.389.389,0,0,1-.318-.232.052.052,0,1,1,.1-.04.276.276,0,0,0,.487.043.052.052,0,1,1,.088.056A.391.391,0,0,1,683.458,704.682Z" transform="translate(-683.105 -704.377)" fill="#1b0102"/>
            </g>
            <g id="Group_3666" data-name="Group 3666" transform="translate(3.575 7.996)">
              <path id="Path_3843" data-name="Path 3843" d="M534.1,616.914a.052.052,0,0,1-.049-.034,10.457,10.457,0,0,1-.389-5.871.052.052,0,0,1,.1.023,10.352,10.352,0,0,0,.385,5.812.052.052,0,0,1-.031.067A.054.054,0,0,1,534.1,616.914Z" transform="translate(-533.412 -610.968)" fill="#1b0102"/>
            </g>
            <g id="Group_3667" data-name="Group 3667" transform="translate(8.948 9.561)">
              <path id="Path_3844" data-name="Path 3844" d="M592.668,633.949a.053.053,0,0,1-.03-.01,29.673,29.673,0,0,1-3.981-3.225,9.851,9.851,0,0,1-2.628-4.359.052.052,0,0,1,.1-.026,9.745,9.745,0,0,0,2.6,4.312,29.582,29.582,0,0,0,3.967,3.213.052.052,0,0,1-.03.094Z" transform="translate(-586.027 -626.29)" fill="#1b0102"/>
            </g>
            <g id="Group_3668" data-name="Group 3668" transform="translate(8.037 6.64)">
              <path id="Path_3845" data-name="Path 3845" d="M577.837,599.408a.052.052,0,0,1-.051-.04,5.01,5.01,0,0,0-.675-1.6.052.052,0,1,1,.087-.056,5.109,5.109,0,0,1,.689,1.63.052.052,0,0,1-.039.062Z" transform="translate(-577.103 -597.69)" fill="#1b0102"/>
            </g>
            <g id="Group_3669" data-name="Group 3669" transform="translate(9.087 13.011)">
              <path id="Path_3846" data-name="Path 3846" d="M588.53,660.741a.335.335,0,0,1-.222-.069.452.452,0,0,1-.127-.244.459.459,0,0,0-.077-.179.281.281,0,0,0-.335-.031.936.936,0,0,0-.286.289.052.052,0,0,1-.084-.062,1.015,1.015,0,0,1,.321-.319.387.387,0,0,1,.463.055.545.545,0,0,1,.1.219.37.37,0,0,0,.094.192.378.378,0,0,0,.295.032.052.052,0,1,1,.016.1A1.046,1.046,0,0,1,588.53,660.741Z" transform="translate(-587.389 -660.075)" fill="#1b0102"/>
            </g>
            <g id="Group_3670" data-name="Group 3670" transform="translate(12.363 9.55)">
              <path id="Path_3847" data-name="Path 3847" d="M621.33,632.746a.052.052,0,0,1-.036-.089,1.327,1.327,0,0,0,.494-.8,1.2,1.2,0,0,0-.064-.4,7.117,7.117,0,0,0-.989-2.089l-.1-.137a2.344,2.344,0,0,1-.551-1.373c-.015-.11-.03-.224-.051-.334a3.043,3.043,0,0,0-.557-1.255.052.052,0,1,1,.083-.062,3.149,3.149,0,0,1,.576,1.3c.022.113.037.228.052.34a2.249,2.249,0,0,0,.533,1.327l.1.138a7.215,7.215,0,0,1,1,2.12,1.287,1.287,0,0,1,.068.435,1.407,1.407,0,0,1-.525.864A.052.052,0,0,1,621.33,632.746Z" transform="translate(-619.468 -626.189)" fill="#1b0102"/>
            </g>
            <g id="Group_3671" data-name="Group 3671" transform="translate(6.197 4.614)">
              <path id="Path_3848" data-name="Path 3848" d="M563.141,580.95H563.1a1.158,1.158,0,0,1-.443-.158l-2.4-1.25a2.916,2.916,0,0,1-.889-.618,1.01,1.01,0,0,1-.222-1.045.052.052,0,1,1,.095.042.928.928,0,0,0,.205.935,2.834,2.834,0,0,0,.858.593l2.4,1.25a1.077,1.077,0,0,0,.4.146.652.652,0,0,0,.563-.31,1.341,1.341,0,0,0,.194-.665.052.052,0,0,1,.1.007,1.44,1.44,0,0,1-.211.716A.77.77,0,0,1,563.141,580.95Z" transform="translate(-559.083 -577.847)" fill="#1b0102"/>
            </g>
            <g id="Group_3672" data-name="Group 3672" transform="translate(8.654 4.558)">
              <path id="Path_3849" data-name="Path 3849" d="M584.716,578.8h-.009a2,2,0,0,1-1.563-1.427.052.052,0,0,1,.1-.026,1.89,1.89,0,0,0,1.479,1.35.052.052,0,0,1-.008.1Z" transform="translate(-583.143 -577.307)" fill="#1b0102"/>
            </g>
            <g id="Group_3673" data-name="Group 3673" transform="translate(9.096 6.106)">
              <path id="Path_3850" data-name="Path 3850" d="M588.575,593.092a1.381,1.381,0,0,1-1.093-.545.052.052,0,0,1,.083-.062,1.269,1.269,0,0,0,1.137.5.052.052,0,0,1,.011.1A1.284,1.284,0,0,1,588.575,593.092Z" transform="translate(-587.471 -592.464)" fill="#1b0102"/>
            </g>
            <g id="Group_3674" data-name="Group 3674" transform="translate(7.847 4.551)">
              <path id="Path_3851" data-name="Path 3851" d="M575.794,578.29a.052.052,0,0,1-.04-.019,2.577,2.577,0,0,1-.5-.969.052.052,0,1,1,.1-.027,2.474,2.474,0,0,0,.484.929.052.052,0,0,1-.04.085Z" transform="translate(-575.248 -577.237)" fill="#1b0102"/>
            </g>
            <g id="Group_3675" data-name="Group 3675" transform="translate(10.508 6.841)">
              <path id="Path_3852" data-name="Path 3852" d="M602.941,604.615a.1.1,0,0,1-.1-.078,3.247,3.247,0,0,0-.45-.9,2.762,2.762,0,0,1-.545-2.056c0-.14.009-.285.007-.425a1.606,1.606,0,0,0-.511-1.305.1.1,0,1,1,.121-.169,1.8,1.8,0,0,1,.6,1.472c0,.145,0,.292-.007.434a2.567,2.567,0,0,0,.513,1.938,3.448,3.448,0,0,1,.475.964.1.1,0,0,1-.075.126A.1.1,0,0,1,602.941,604.615Z" transform="translate(-601.299 -599.658)" fill="#fffdfd"/>
            </g>
            <g id="Group_3676" data-name="Group 3676" transform="translate(9.112 6.803)">
              <path id="Path_3853" data-name="Path 3853" d="M588.544,603.574h0a.1.1,0,0,1-.1-.1,4.421,4.421,0,0,0-.4-1.584c-.053-.137-.106-.274-.155-.41a2.552,2.552,0,0,1-.036-2.139.1.1,0,1,1,.182.1,2.363,2.363,0,0,0,.05,1.968c.049.135.1.27.153.406a4.568,4.568,0,0,1,.414,1.66A.1.1,0,0,1,588.544,603.574Z" transform="translate(-587.633 -599.283)" fill="#fffdfd"/>
            </g>
            <g id="Group_3677" data-name="Group 3677" transform="translate(3.235 8.984)">
              <path id="Path_3854" data-name="Path 3854" d="M530.515,621.685a.052.052,0,0,1-.038-.016,1.48,1.48,0,0,1-.392-.967.052.052,0,0,1,.051-.053.053.053,0,0,1,.053.051,1.375,1.375,0,0,0,.365.9.052.052,0,0,1-.038.087Z" transform="translate(-530.085 -620.648)" fill="#1b0102"/>
            </g>
            <g id="Group_3678" data-name="Group 3678" transform="translate(16.504 12.249)">
              <path id="Path_3855" data-name="Path 3855" d="M660.072,653.1a.052.052,0,0,1-.052-.046.357.357,0,0,1,.468-.356.62.62,0,0,1,.115.066.644.644,0,0,0,.08.049.314.314,0,0,0,.409-.161.052.052,0,1,1,.1.037.418.418,0,0,1-.552.218.754.754,0,0,1-.093-.056.528.528,0,0,0-.1-.056.254.254,0,0,0-.325.248.052.052,0,0,1-.046.058Z" transform="translate(-660.018 -652.616)" fill="#1b0102"/>
            </g>
            <g id="Group_3679" data-name="Group 3679" transform="translate(7.71 18.589)">
              <path id="Path_3856" data-name="Path 3856" d="M573.957,719.944h0a.052.052,0,0,1-.05-.054,11.65,11.65,0,0,1,.472-2.5,5.777,5.777,0,0,1,1.243-2.671.052.052,0,1,1,.073.074,5.7,5.7,0,0,0-1.216,2.624,11.568,11.568,0,0,0-.468,2.478A.052.052,0,0,1,573.957,719.944Z" transform="translate(-573.905 -714.703)" fill="#1b0102"/>
            </g>
            <g id="Group_3680" data-name="Group 3680" transform="translate(8.682 18.309)">
              <path id="Path_3857" data-name="Path 3857" d="M583.589,713.007a.052.052,0,0,1-.048-.032,1.672,1.672,0,0,1-.086-.975.052.052,0,1,1,.1.022,1.565,1.565,0,0,0,.081.913.052.052,0,0,1-.028.068A.051.051,0,0,1,583.589,713.007Z" transform="translate(-583.419 -711.96)" fill="#1b0102"/>
            </g>
            <g id="Group_3681" data-name="Group 3681" transform="translate(7.985 25.208)">
              <path id="Path_3858" data-name="Path 3858" d="M581.96,780.289h0a23,23,0,0,1-5.325-.671.052.052,0,1,1,.025-.1,22.913,22.913,0,0,0,5.3.668.052.052,0,0,1,0,.1Z" transform="translate(-576.595 -779.516)" fill="#fffdfd"/>
            </g>
            <g id="Group_3682" data-name="Group 3682" transform="translate(0.222 21.121)">
              <path id="Path_3859" data-name="Path 3859" d="M502.47,743.56a1.246,1.246,0,0,1-.4-.059c-.51-.174-.754-.726-.942-1.3a7.95,7.95,0,0,1-.543-2.66.052.052,0,0,1,.052-.05h0a.052.052,0,0,1,.05.054,7.753,7.753,0,0,0,.537,2.625c.179.545.409,1.072.877,1.231a1.725,1.725,0,0,0,.7.034l1.395-.123a.053.053,0,0,1,.056.047.052.052,0,0,1-.047.056l-1.395.123C502.7,743.55,502.586,743.56,502.47,743.56Z" transform="translate(-500.579 -739.494)" fill="#fffdfd"/>
            </g>
            <g id="Group_3683" data-name="Group 3683" transform="translate(11.964 24.594)">
              <path id="Path_3860" data-name="Path 3860" d="M615.615,774.878h0a.052.052,0,0,1-.049-.055,2.112,2.112,0,0,1,.547-1.3.052.052,0,1,1,.076.07,2.007,2.007,0,0,0-.52,1.234A.052.052,0,0,1,615.615,774.878Z" transform="translate(-615.563 -773.508)" fill="#fffdfd"/>
            </g>
            <g id="Group_3684" data-name="Group 3684" transform="translate(7.946 24.289)">
              <path id="Path_3861" data-name="Path 3861" d="M576.953,771.65a.052.052,0,0,1-.05-.039,1.8,1.8,0,0,0-.668-1,.052.052,0,0,1,.062-.084,1.886,1.886,0,0,1,.707,1.055.052.052,0,0,1-.038.063Z" transform="translate(-576.213 -770.52)" fill="#fffdfd"/>
            </g>
            <g id="Group_3685" data-name="Group 3685" transform="translate(1.978 23.825)">
              <path id="Path_3862" data-name="Path 3862" d="M517.827,767.328a.051.051,0,0,1-.021,0,.052.052,0,0,1-.026-.069,2.2,2.2,0,0,1,1.911-1.278.054.054,0,0,1,.054.05.052.052,0,0,1-.05.053,2.1,2.1,0,0,0-1.819,1.217A.052.052,0,0,1,517.827,767.328Z" transform="translate(-517.775 -765.976)" fill="#fffdfd"/>
            </g>
            <g id="Group_3686" data-name="Group 3686" transform="translate(0.302 21.17)">
              <path id="Path_3863" data-name="Path 3863" d="M501.412,740.791a.052.052,0,0,1-.027-.1,1.205,1.205,0,0,0,.515-.678.052.052,0,1,1,.1.029,1.311,1.311,0,0,1-.56.736A.052.052,0,0,1,501.412,740.791Z" transform="translate(-501.36 -739.98)" fill="#fffdfd"/>
            </g>
          </g>
          <g id="Group_3688" data-name="Group 3688" transform="translate(23.916 19.972)">
            <path id="Path_3864" data-name="Path 3864" d="M733.084,630.9a.42.42,0,0,1-.149-.027c-.022-.008-.042-.018-.063-.029a.439.439,0,0,0-.081-.033.088.088,0,0,0-.091.02.052.052,0,0,1-.087-.057.187.187,0,0,1,.2-.064.519.519,0,0,1,.1.041c.018.009.036.018.055.025a.319.319,0,0,0,.433-.308.052.052,0,1,1,.1,0,.422.422,0,0,1-.424.435Z" transform="translate(-732.604 -630.417)" fill="#1b0102"/>
          </g>
          <g id="Group_3689" data-name="Group 3689" transform="translate(23.886 20.816)">
            <path id="Path_3865" data-name="Path 3865" d="M733.318,639.108h0l-.527-.009a.692.692,0,0,1-.33-.063.273.273,0,0,1-.136-.329.052.052,0,0,1,.1.042.17.17,0,0,0,.092.2.6.6,0,0,0,.281.049l.527.01a.052.052,0,0,1,0,.1Z" transform="translate(-732.307 -638.676)" fill="#1b0102"/>
          </g>
          <g id="Group_3690" data-name="Group 3690" transform="translate(23.691 21.69)">
            <path id="Path_3866" data-name="Path 3866" d="M731.174,647.666l-.295,0a.676.676,0,0,1-.253-.039.376.376,0,0,1-.227-.33.052.052,0,0,1,.05-.054.049.049,0,0,1,.054.05.274.274,0,0,0,.163.237.577.577,0,0,0,.215.03c.214,0,.431,0,.646,0h0a.052.052,0,0,1,0,.1C731.412,647.665,731.293,647.666,731.174,647.666Z" transform="translate(-730.4 -647.241)" fill="#1b0102"/>
          </g>
          <g id="Group_3691" data-name="Group 3691" transform="translate(23.647 22.433)">
            <path id="Path_3867" data-name="Path 3867" d="M730.877,654.875h0l-.522-.03a.609.609,0,0,1-.243-.049.242.242,0,0,1-.143-.234.052.052,0,0,1,.1.012.142.142,0,0,0,.086.129.522.522,0,0,0,.2.038l.522.03a.052.052,0,0,1,0,.1Z" transform="translate(-729.964 -654.517)" fill="#1b0102"/>
          </g>
          <g id="Group_3692" data-name="Group 3692" transform="translate(24.136 19.175)">
            <path id="Path_3868" data-name="Path 3868" d="M735.041,623.2a.264.264,0,0,1-.056-.006.3.3,0,0,1-.219-.238.8.8,0,0,1,.007-.3.053.053,0,0,1,.059-.044.052.052,0,0,1,.044.059.707.707,0,0,0-.008.261.2.2,0,0,0,.139.159.338.338,0,0,0,.121-.006.333.333,0,0,1,.2.009.052.052,0,1,1-.043.094.247.247,0,0,0-.14,0A.639.639,0,0,1,735.041,623.2Z" transform="translate(-734.754 -622.614)" fill="#1b0102"/>
          </g>
          <g id="Group_3693" data-name="Group 3693" transform="translate(24.249 20.654)">
            <path id="Path_3869" data-name="Path 3869" d="M735.914,637.639a.052.052,0,0,1-.043-.082.473.473,0,0,0,.066-.393.052.052,0,1,1,.1-.028.577.577,0,0,1-.081.48A.052.052,0,0,1,735.914,637.639Z" transform="translate(-735.862 -637.098)" fill="#1b0102"/>
          </g>
          <g id="Group_3694" data-name="Group 3694" transform="translate(24.054 21.477)">
            <path id="Path_3870" data-name="Path 3870" d="M734,645.774a.052.052,0,0,1-.042-.082.579.579,0,0,0,.094-.47.052.052,0,1,1,.1-.024.684.684,0,0,1-.111.555A.052.052,0,0,1,734,645.774Z" transform="translate(-733.95 -645.158)" fill="#1b0102"/>
          </g>
          <g id="Group_3695" data-name="Group 3695" transform="translate(23.962 22.393)">
            <path id="Path_3871" data-name="Path 3871" d="M733.106,654.48a.052.052,0,0,1-.04-.085.755.755,0,0,0,.13-.235.052.052,0,1,1,.1.034.856.856,0,0,1-.148.267A.052.052,0,0,1,733.106,654.48Z" transform="translate(-733.054 -654.125)" fill="#1b0102"/>
          </g>
        </g>
        <g id="Group_3697" data-name="Group 3697" transform="translate(14.98 31.759)">
          <path id="Path_3872" data-name="Path 3872" d="M660.879,750.07a1.755,1.755,0,0,0-1.1-1.138,1.657,1.657,0,0,0-1.524.192,1.981,1.981,0,0,0-.936-1.773,1.912,1.912,0,0,0-1.966-.022,1.628,1.628,0,0,0-1.539-1.481,3.391,3.391,0,0,0-2.177.748,2.04,2.04,0,0,0-1.012,1.854,1.336,1.336,0,0,0-1.765-.389,2.231,2.231,0,0,0-1.095,1.538,1.538,1.538,0,0,0-2.674.711Z" transform="translate(-645.091 -745.84)" fill="#5b3f41"/>
        </g>
      </g>
      <g id="Group_3703" data-name="Group 3703" transform="translate(526.53 465.824)">
        <g id="Group_3699" data-name="Group 3699" transform="translate(0.199 1.116)">
          <path id="Path_3873" data-name="Path 3873" d="M775.841,751.28h0a.052.052,0,0,1-.049-.055,3.28,3.28,0,0,1,.876-2.027.052.052,0,0,1,.076.071,3.176,3.176,0,0,0-.848,1.962A.052.052,0,0,1,775.841,751.28Z" transform="translate(-775.789 -749.182)" fill="#1b0102"/>
        </g>
        <g id="Group_3702" data-name="Group 3702" transform="translate(0 0)">
          <g id="Group_3700" data-name="Group 3700">
            <path id="Path_3874" data-name="Path 3874" d="M774.166,739.871a.609.609,0,0,1-.077-.031.362.362,0,0,1-.009-.686,1.083,1.083,0,0,1,.365-.079.476.476,0,0,1-.149-.548c.221-.531,1.041-.229.932.31a.442.442,0,0,1,.366-.121.559.559,0,0,1,.343.187.513.513,0,0,1,.136.311.367.367,0,0,1-.131.305.629.629,0,0,1-.486.058.494.494,0,0,1,.131.624.532.532,0,0,1-.6.233.576.576,0,0,1-.39-.525A1.213,1.213,0,0,1,774.166,739.871Z" transform="translate(-773.84 -738.25)" fill="#f45a56"/>
          </g>
          <g id="Group_3701" data-name="Group 3701" transform="translate(0.86 0.886)">
            <path id="Path_3875" data-name="Path 3875" d="M782.424,747.318c.137.091.3.093.354.005s-.005-.233-.142-.324-.3-.093-.354-.005S782.288,747.227,782.424,747.318Z" transform="translate(-782.261 -746.93)" fill="#ffb850"/>
          </g>
        </g>
      </g>
      <g id="Group_3708" data-name="Group 3708" transform="translate(526.774 457.674)">
        <g id="Group_3704" data-name="Group 3704" transform="translate(0 1.531)">
          <path id="Path_3876" data-name="Path 3876" d="M776.282,675.842l-.015,0a.052.052,0,0,1-.036-.064,4.29,4.29,0,0,1,1.7-2.332.052.052,0,1,1,.058.086,4.184,4.184,0,0,0-1.66,2.275A.052.052,0,0,1,776.282,675.842Z" transform="translate(-776.23 -673.435)" fill="#1b0102"/>
        </g>
        <g id="Group_3707" data-name="Group 3707" transform="translate(0.28 0)">
          <g id="Group_3705" data-name="Group 3705">
            <path id="Path_3877" data-name="Path 3877" d="M779.283,660.378a.8.8,0,0,1-.089-.062.475.475,0,0,1,.187-.88,1.42,1.42,0,0,1,.49,0,.625.625,0,0,1-.033-.745c.437-.615,1.4.008,1.1.667a.58.58,0,0,1,.5-.049.734.734,0,0,1,.385.339.674.674,0,0,1,.084.437.481.481,0,0,1-.257.353.826.826,0,0,1-.639-.066.648.648,0,0,1-.013.837.7.7,0,0,1-.839.123.756.756,0,0,1-.348-.785A1.588,1.588,0,0,1,779.283,660.378Z" transform="translate(-778.967 -658.443)" fill="#f45a56"/>
          </g>
          <g id="Group_3706" data-name="Group 3706" transform="translate(1.165 1.189)">
            <path id="Path_3878" data-name="Path 3878" d="M790.517,670.587c.149.156.351.205.451.109s.061-.3-.088-.456-.351-.205-.451-.109S790.368,670.431,790.517,670.587Z" transform="translate(-790.374 -670.082)" fill="#ffb850"/>
          </g>
        </g>
      </g>
      <g id="Group_3713" data-name="Group 3713" transform="translate(519.313 464.372)">
        <g id="Group_3709" data-name="Group 3709" transform="translate(1.069 1.116)">
          <path id="Path_3879" data-name="Path 3879" d="M714.549,737.069a.052.052,0,0,1-.052-.049,3.176,3.176,0,0,0-.847-1.962.052.052,0,1,1,.075-.071,3.28,3.28,0,0,1,.876,2.027.052.052,0,0,1-.049.055Z" transform="translate(-713.635 -734.971)" fill="#1b0102"/>
        </g>
        <g id="Group_3712" data-name="Group 3712" transform="translate(0 0)">
          <g id="Group_3710" data-name="Group 3710">
            <path id="Path_3880" data-name="Path 3880" d="M705.074,725.659a.606.606,0,0,0,.077-.031.362.362,0,0,0,.009-.686,1.083,1.083,0,0,0-.365-.079.476.476,0,0,0,.149-.548c-.221-.531-1.041-.229-.932.31a.442.442,0,0,0-.366-.121.56.56,0,0,0-.343.187.515.515,0,0,0-.136.311.366.366,0,0,0,.132.305.628.628,0,0,0,.486.058.494.494,0,0,0-.131.624.532.532,0,0,0,.6.233.576.576,0,0,0,.39-.525A1.213,1.213,0,0,0,705.074,725.659Z" transform="translate(-703.167 -724.038)" fill="#f45a56"/>
          </g>
          <g id="Group_3711" data-name="Group 3711" transform="translate(0.835 0.886)">
            <path id="Path_3881" data-name="Path 3881" d="M711.717,733.107c-.137.091-.3.093-.354.005s.005-.233.142-.324.3-.093.354-.005S711.854,733.016,711.717,733.107Z" transform="translate(-711.342 -732.719)" fill="#ffb850"/>
          </g>
        </g>
      </g>
      <g id="Group_3714" data-name="Group 3714" transform="translate(511.691 448.505)">
        <path id="Path_3882" data-name="Path 3882" d="M636.646,571.2a.5.5,0,0,0,.053-.724,1.419,1.419,0,0,0-.724-.376,1.463,1.463,0,0,1-.728-.369,4.091,4.091,0,0,1-.3-.507,1.38,1.38,0,0,0-1.332-.552,2.361,2.361,0,0,0-1.315.71c-.25.247-.511.551-.862.551s-.636-.323-.988-.38a1.159,1.159,0,0,0-.969.459,3.635,3.635,0,0,1-.792.781c-.095.054-.2.13-.153.231l7.443.1C636.072,571.126,636.682,571.113,636.646,571.2Z" transform="translate(-628.527 -568.656)" fill="#fff"/>
      </g>
      <g id="Group_3715" data-name="Group 3715" transform="translate(527.066 452.812)">
        <path id="Path_3883" data-name="Path 3883" d="M782.032,612.073a.647.647,0,0,0,.43-.117c.192-.176.1-.509-.089-.691a.982.982,0,0,0-.87-.253,1.051,1.051,0,0,1-.264.045.891.891,0,0,1-.307-.107,1.456,1.456,0,0,0-1.249.039c-.329.172-.874.686-.427,1.029a1.109,1.109,0,0,0,.737.11l.959-.026Z" transform="translate(-779.086 -610.828)" fill="#fff"/>
      </g>
    </g>
  </g>
</svg>
