<svg xmlns="http://www.w3.org/2000/svg" width="84" height="84" viewBox="0 0 84 84">
  <g id="Group_37609" data-name="Group 37609" transform="translate(-660 -440)">
    <text id="_40_" data-name="40 %" transform="translate(702 487)" font-size="16" font-family="Poppins-Medium, Poppins" font-weight="500"><tspan x="-18.736" y="0">40 %</tspan></text>
    <g id="Group_37608" data-name="Group 37608" transform="translate(-237 -69)">
      <path id="Subtraction_3" data-name="Subtraction 3" d="M42,84A41.994,41.994,0,0,1,12.3,12.314,42,42,0,1,1,71.7,71.7,41.724,41.724,0,0,1,42,84ZM42,5.5A36.5,36.5,0,1,0,78.5,42,36.542,36.542,0,0,0,42,5.5Z" transform="translate(897 509)" fill="#e7ebec"/>
      <path id="Subtraction_4" data-name="Subtraction 4" d="M60.016,77.145h0L57,72.539A36.5,36.5,0,0,0,37,5.5V0A42.034,42.034,0,0,1,77.841,32.189,42.643,42.643,0,0,1,79,42,41.989,41.989,0,0,1,60.016,77.145Z" transform="translate(902 509)" fill="#85d8d9"/>
    </g>
  </g>
</svg>
