<svg xmlns="http://www.w3.org/2000/svg" width="35.696" height="27.763" viewBox="0 0 35.696 27.763">
  <g id="Group_37728" data-name="Group 37728" transform="translate(-59 -296)">
    <path id="Path_21" data-name="Path 21" d="M16.865,8.949A5.949,5.949,0,1,1,10.916,3,5.949,5.949,0,0,1,16.865,8.949Zm15.865,0A5.949,5.949,0,1,1,26.78,3,5.949,5.949,0,0,1,32.73,8.949ZM24.658,30.763A14.212,14.212,0,0,0,24.8,28.78a13.822,13.822,0,0,0-2.975-8.587A9.916,9.916,0,0,1,36.7,28.78v1.983Zm-13.743-11.9a9.916,9.916,0,0,1,9.916,9.916v1.983H1V28.78a9.916,9.916,0,0,1,9.916-9.916Z" transform="translate(58 293)" fill="#ff792c"/>
  </g>
</svg>
