<svg xmlns="http://www.w3.org/2000/svg" width="18.513" height="18.513" viewBox="0 0 18.513 18.513">
  <path id="Icon_material-gps-fixed" data-name="Icon material-gps-fixed" d="M10.757,7.391a3.366,3.366,0,1,0,3.366,3.366A3.365,3.365,0,0,0,10.757,7.391ZM18.28,9.915A7.569,7.569,0,0,0,11.6,3.234V1.5H9.915V3.234A7.569,7.569,0,0,0,3.234,9.915H1.5V11.6H3.234A7.569,7.569,0,0,0,9.915,18.28v1.734H11.6V18.28A7.569,7.569,0,0,0,18.28,11.6h1.734V9.915Zm-7.523,6.732a5.891,5.891,0,1,1,5.891-5.891A5.886,5.886,0,0,1,10.757,16.647Z" transform="translate(-1.5 -1.5)" fill="#ff792c"/>
</svg>
