<svg xmlns="http://www.w3.org/2000/svg" width="102.888" height="98.082" viewBox="0 0 102.888 98.082">
  <g id="Group_139" data-name="Group 139" transform="translate(-1590 -149.048)">
    <g id="line_art" transform="translate(1590 149.048)">
      <g id="Group_138" data-name="Group 138" transform="translate(0)">
        <path id="Path_248" data-name="Path 248" d="M371.763,137.1h-43.5a.257.257,0,0,1-.248-.191,73.11,73.11,0,0,1-.907-10.111,10.028,10.028,0,0,1-2.256.784c-2.664.625-6.645.818-12.154,1.085l-.25.012c-9.788.474-14.009-.932-15.067-1.371a72.153,72.153,0,0,0-1.547,9.56.257.257,0,0,1-.256.231H269.388a.257.257,0,1,1,0-.514h25.96c.135-1.287.8-7.377,1.639-9.715a.257.257,0,0,1,.361-.141c.038.02,3.952,1.976,15.076,1.437l.25-.012c7.655-.37,12.024-.582,14.408-1.914-.256-5.381-.44-11.839-.565-17.345l-1.731.158v4.346c0,.006,0,.012,0,.018,0,.055-.434,5.553-4.837,5.553H302.918a5.882,5.882,0,0,1-4.017-1.247,3.963,3.963,0,0,1-1.2-3.04V110.17h-2.593a12.368,12.368,0,0,1-.765,2.05.255.255,0,0,1-.091.106,6.445,6.445,0,0,1-4.924.781c-.449.061-2.678.328-3.434-.239-.432-.324-.429-.861-.424-1.483a5.622,5.622,0,0,0-.567-2.822c-.688-1.376-1.566-4.187-.494-5.993a3.467,3.467,0,0,1,3.1-1.545.264.264,0,0,1,.052,0c.03.005,3.057.511,4.256.016a.256.256,0,0,1,.3.079c.64.815,2.574,2.915,3.816,2.854h.013a6.206,6.206,0,0,1,1.361.161,6.349,6.349,0,0,1,5.981-3.092h11.351c-.627-1.456-1.948-3.517-4.4-3.517-3.763,0-4.139,2.5-4.143,2.526a.257.257,0,0,1-.255.223h-1.832a.257.257,0,0,1-.257-.245c-.005-.126-.581-12.612-2.372-16.552a.257.257,0,0,1,.217-.363c.122-.008,11.762-.767,14.948-1.77-.288-.283-.743-.75-1.212-1.313a42.39,42.39,0,0,0-6.507-.522c-.827,1.487-3.582,1.7-3.7,1.708a.256.256,0,0,1-.274-.235,1.31,1.31,0,0,1,.487-1.159,5.527,5.527,0,0,1,3.14-.8,2.037,2.037,0,0,0-.3-1.606,5.456,5.456,0,0,0-2.847-2.534c-.116-.055-.231-.11-.345-.167a6.462,6.462,0,0,1-1.341,3.483.257.257,0,0,1-.069.053l-11.145,5.932a19.761,19.761,0,0,1,1.293,10.964,23.571,23.571,0,0,1-1.392,5.331.257.257,0,0,1-.322.142c-2.6-.92-4.736-.867-6.357.157-2.6,1.644-3.009,5.271-3.013,5.308a.255.255,0,0,1-.007.04c-1.8,6.715-1.026,8.869-.055,9.493,1.8,1.156,5.469-1.849,5.506-1.879a.257.257,0,0,1,.4.286c-.062.171-1.565,4.193-5.175,4.383a3.584,3.584,0,0,1-2.856-1.539c-2.043-2.4-3.482-7.373-2.905-10.04a4.972,4.972,0,0,1,.909-2.29c.255-.338.384-.508.186-2.485-.266-2.657,1.487-3.873,3.181-5.049a12.012,12.012,0,0,0,2.145-1.744c1.8-2.017,2.973-7.157,3.1-7.712-.4-2.219-.131-3.794.784-4.679a3.075,3.075,0,0,1,2.561-.714c5.346-2.343,10.736-5.165,11.536-5.587l1.034-4.176a.257.257,0,0,1,.493-.02,2.761,2.761,0,0,0,1.051,1.486,11.132,11.132,0,0,0-.226-2.563.257.257,0,0,1,.462-.2c.024.034,2.411,3.355,6.119,3.007a4.518,4.518,0,0,0,3.063-2.292c-.183-.989-.276-1.764-.3-2a.256.256,0,0,1,.04-.169c2.13-3.261,1.714-8.8,1.336-11.541-1.279-.951-3.136-1.251-5.524-.891-4.889.738-6.487,2.395-7.005,3.32.417,3.19.843,6.043.851,6.1a.257.257,0,0,1-.164.279,1.155,1.155,0,0,1-1.015-.068c-.929-.524-1.3-2.29-1.34-2.491-.542-1.71-.547-2.779-.015-3.267a1.127,1.127,0,0,1,.983-.231,2.647,2.647,0,0,1,.165-.426c-.21-1.611-.414-3.3-.561-4.754a8.231,8.231,0,0,1-2.183.074v0c-3.976-.428-5.963-1.2-6.254-2.428-.419-1.774,2.917-3.919,6.449-6.19a51.1,51.1,0,0,0,4.615-3.2c4.915-4.067,8.824-5.627,11.62-4.636,2.133.756,3.587,3,4.322,6.657.774,3.856.551,6.084-.681,6.813a2.538,2.538,0,0,1-2.231-.051l.216,4.963a.257.257,0,0,1-.459.169A3.552,3.552,0,0,0,315.32,56.7c.049.258.118.647.19,1.138a4.974,4.974,0,0,1,1.716,2.958,1.587,1.587,0,0,1,1.6-.078c.415.333.474,1.029.183,2.19-.469,1.873-1.053,2.943-1.738,3.178a.836.836,0,0,1-.381.043,21.413,21.413,0,0,1-2.389,5.8,24.641,24.641,0,0,0,.659,2.64,6.735,6.735,0,0,0,1.688-2.954.257.257,0,0,1,.5.048l.482,3.727a12.843,12.843,0,0,0,9.093,4.221c.189.008,4.583.23,5.911,3.645a.246.246,0,0,1,.014.051c.248,1.506,1.191,5.5,2.564,5.88a3.926,3.926,0,0,1,3.109,2.886c.08.282.564.669,1.124,1.118a10.777,10.777,0,0,1,4.674,8.52,21.254,21.254,0,0,1-2.708,9.8.257.257,0,0,1-.478-.106c-.007-.08-.75-8.05-4.066-10.508a3.452,3.452,0,0,0-2.873-.623.254.254,0,0,1-.109,0,33.931,33.931,0,0,1-3.419-.928,1.666,1.666,0,0,0-.721-.11,28.859,28.859,0,0,1-.212,3.756.257.257,0,0,1-.451.127.53.53,0,0,0-.41-.2,3.658,3.658,0,0,0-1.939.986c.01.5.02,1.026.031,1.564a12.858,12.858,0,0,1,3.35-1.661.257.257,0,0,1,.081-.013.651.651,0,0,1,.571.283c.366.54-.06,1.678-.149,1.9a.257.257,0,0,1-.124.134c-.693.346-1.049.7-1.032,1.02.03.551,1.091,1.078,1.515,1.243,1.224.039,2.248,1.529,2.86,2.683a1.831,1.831,0,0,0,.889-.885,12.734,12.734,0,0,0,.8-2.729c.326-1.54.634-3,1.888-3.622a.257.257,0,0,1,.351.128c.169.391,4.092,9.59.79,11.144a2.9,2.9,0,0,1-2.506.132,4.558,4.558,0,0,1-2.081-2.665c-.084-.223-.211-.523-.372-.854a8.308,8.308,0,0,1-4.124-.188,16.311,16.311,0,0,0,.147,5.216c.3,2.354.613,4.789-.09,7a4.852,4.852,0,0,1-2.107,2.775,83.28,83.28,0,0,0,.853,10.074h43.3a.257.257,0,0,1,0,.513Zm-44.729-28.252c.124,5.412.3,11.753.551,17.073a4.38,4.38,0,0,0,1.646-2.34c.669-2.1.364-4.478.07-6.777a15.453,15.453,0,0,1-.073-5.669.257.257,0,0,1,.327-.179,8.639,8.639,0,0,0,3.994.287c-.6-1.112-1.5-2.351-2.424-2.351a.256.256,0,0,1-.089-.016c-.188-.069-1.835-.7-1.891-1.711-.029-.531.383-1.022,1.225-1.462.163-.443.314-1.116.167-1.334a.125.125,0,0,0-.108-.056,10.441,10.441,0,0,0-3.454,1.824c0,.2.008.393.012.592h1.389a.256.256,0,0,1,.255.225l.183,1.466a.257.257,0,0,1-.232.288Zm-31.809.812h2.736a.257.257,0,0,1,.257.257v4.764a3.472,3.472,0,0,0,1.029,2.662,5.468,5.468,0,0,0,3.642,1.112h17.059c3.857,0,4.305-4.841,4.324-5.067v-4.571a.257.257,0,0,1,.233-.256l2-.182q-.013-.577-.025-1.138h-.119a.257.257,0,0,1-.249-.195,1.228,1.228,0,0,1,.342-1.095c-.011-.548-.022-1.081-.032-1.6l-.063.062a.254.254,0,0,1-.049.039,2.709,2.709,0,0,1-2.406-.313c-.517-.323-.6-.646-.584-.861.027-.309.278-.562.747-.751a10.1,10.1,0,0,0,2.3-1.362c-.042-2.494-.063-4.155-.067-4.451a.257.257,0,0,1,.224-.258,14.463,14.463,0,0,0,2.72-.591,18.98,18.98,0,0,0-2.367-7.625l-.01-.018a8.3,8.3,0,0,1-.292-5.98c-2.811-.689-6.743-1.529-10.462-2.1.416.466.809.857,1.083,1.108a.257.257,0,0,1-.072.426c-2.363,1.013-12.987,1.777-15.132,1.922,1.6,4.041,2.174,14.379,2.262,16.157h1.384c.2-.691,1.082-2.748,4.6-2.748,2.855,0,4.313,2.452,4.955,4.031h1.458a7.907,7.907,0,0,1,7.759,5.316.257.257,0,0,1-.247.328H297.486v1.576a.257.257,0,0,1-.257.257h-1.94A4.122,4.122,0,0,1,295.226,109.657Zm-5.335-27.018a2.389,2.389,0,0,0-1.68.611c-.789.766-1,2.2-.624,4.265a.26.26,0,0,1,0,.1c-.05.235-1.239,5.772-3.226,8a12.373,12.373,0,0,1-2.235,1.823c-1.645,1.142-3.2,2.22-2.963,4.576.209,2.094.072,2.371-.287,2.846a4.538,4.538,0,0,0-.817,2.089c-.49,2.267.7,7.142,2.795,9.6a3.119,3.119,0,0,0,2.438,1.358c2.256-.119,3.637-1.977,4.282-3.133a8.142,8.142,0,0,1-4.016,1.628,2.273,2.273,0,0,1-1.253-.34c-1.643-1.056-1.7-4.34-.169-10.039.039-.342.513-3.941,3.247-5.668,1.711-1.08,3.919-1.177,6.568-.287.53-1.392,3.165-9.053-.083-15.874a.257.257,0,0,1,.111-.337l11.317-6.023a6.442,6.442,0,0,0,1.2-3.374,3.179,3.179,0,0,1-1.188-1.2l-.88,3.555a.257.257,0,0,1-.129.165c-.059.031-5.939,3.149-11.744,5.688a.26.26,0,0,1-.158.016A2.693,2.693,0,0,0,289.891,82.639Zm44.375,28.88c.227.474.36.823.378.869l.006.018a4.133,4.133,0,0,0,1.8,2.351,2.413,2.413,0,0,0,2.074-.13c2.292-1.078.2-7.49-.929-10.208-.84.584-1.091,1.772-1.379,3.129a13.149,13.149,0,0,1-.831,2.838A2.324,2.324,0,0,1,334.266,111.519Zm-44.916,1.07a.256.256,0,0,1,.07.01,5.979,5.979,0,0,0,4.492-.663,12.223,12.223,0,0,0,.668-1.765h-3.4a.257.257,0,0,1-.257-.257v-1.649a.257.257,0,0,1,.257-.257h3.448a1.186,1.186,0,0,0-.209-.308c-.874-.923-3.227-.262-4.059.071a.256.256,0,0,1-.335-.146,1.8,1.8,0,0,1,.071-1.779,2.826,2.826,0,0,1,2.2-.768.258.258,0,0,1,.126.043,4.585,4.585,0,0,0,4.414.033q.105-.282.225-.538a5.84,5.84,0,0,0-1.111-.123l-.07,0c-1.553,0-3.547-2.294-4.052-2.907a12.5,12.5,0,0,1-4.329-.046,2.979,2.979,0,0,0-2.647,1.293c-.835,1.406-.32,3.837.512,5.5a6.147,6.147,0,0,1,.622,3.055c0,.591,0,.907.219,1.069.472.354,2.156.27,3.108.134A.227.227,0,0,1,289.35,112.588Zm45.64-12.917a3.921,3.921,0,0,1,2.38.81c2.886,2.14,3.9,7.915,4.178,10.065a20.746,20.746,0,0,0,2.254-8.82,10.316,10.316,0,0,0-4.482-8.137c-.68-.545-1.171-.939-1.3-1.378a3.427,3.427,0,0,0-2.754-2.532c-1.907-.531-2.811-5.562-2.928-6.264-1.218-3.077-5.4-3.292-5.442-3.293-.407-.012-.8-.043-1.184-.089,2.638,1.008,5.036,2.348,5.66,4a2.649,2.649,0,0,1-.474,2.6c.616.774,3.064,4.1,2,6.867a4.957,4.957,0,0,1-3.108,2.709c.088.884.131,1.729.145,2.5a2.166,2.166,0,0,1,.917.147,32.754,32.754,0,0,0,3.287.892A4.381,4.381,0,0,1,334.991,99.671Zm-43.551,9.985h3.266a3.6,3.6,0,0,0,.069-1.135h-3.334ZM327,107.239c.008.359.016.722.024,1.091l1.249-.114-.122-.977Zm-31.816.769h1.789v-1.576a.257.257,0,0,1,.257-.257H323.8a7.622,7.622,0,0,0-1.332-2.156,7.391,7.391,0,0,0-5.816-2.461h-1.264c.085.247.145.449.182.588,4.178.09,5.307,2.972,5.353,3.1a.257.257,0,0,1-.241.347h-22.17a.257.257,0,0,1-.253-.214c-.048-.286-.333-.485-.694-.62q-.149.312-.277.665a.258.258,0,0,1-.114.136c-.11.062-2.684,1.5-4.973.031a2.236,2.236,0,0,0-1.689.563,1.175,1.175,0,0,0-.086,1.05c.8-.28,3.272-1.011,4.369.147A1.742,1.742,0,0,1,295.183,108.008Zm3.522-2.932h21.564c-.43-.745-1.746-2.418-4.9-2.418a.257.257,0,0,1-.251-.2,7.8,7.8,0,0,0-.274-.9H303.275l-.031,0a5.727,5.727,0,0,0-5.438,2.739A1.515,1.515,0,0,1,298.705,105.076Zm27.67-3.272a10.211,10.211,0,0,1-2.117,1.2c-.305.123-.421.249-.427.319s.1.225.345.38a2.36,2.36,0,0,0,1.845.321c.065-.063.2-.195.388-.357C326.4,103.013,326.386,102.389,326.376,101.8Zm.509-.389c.01.574.021,1.191.034,1.843a3.5,3.5,0,0,1,1.974-.852,1.121,1.121,0,0,1,.381.082,30.824,30.824,0,0,0,.158-3.158,3.694,3.694,0,0,0-1.764,1.394.264.264,0,0,1-.024.028C327.616,100.777,327.337,101.051,326.885,101.415Zm-.07-4.478c.007.518.026,1.884.059,3.817.215-.184.353-.316.394-.356a4.052,4.052,0,0,1,2.159-1.6c-.012-.745-.05-1.557-.131-2.408A14.758,14.758,0,0,1,326.814,96.937Zm.506-8.95a19.4,19.4,0,0,1,2.415,7.7,4.395,4.395,0,0,0,2.686-2.366c1.081-2.8-2.01-6.474-2.041-6.511a.257.257,0,0,1-.005-.327,2.216,2.216,0,0,0,.521-2.266c-1.39-3.69-13.113-5.851-13.546-5.93-1.108-.1-1.914-1.4-2.486-2.962a1.258,1.258,0,0,0-.789.889c-.188.916.641,2.247,1.539,3.352,5.418.787,10.944,2.145,11.359,2.248a.257.257,0,0,1,.178.341A7.918,7.918,0,0,0,327.32,87.987ZM308.178,79.54a4.549,4.549,0,0,0-2.507.678.826.826,0,0,0-.293.458A5,5,0,0,0,308.178,79.54Zm1.132-.527a43.266,43.266,0,0,1,5.568.45c-.808-1.072-1.513-2.347-1.307-3.351a1.774,1.774,0,0,1,1.124-1.273,22.213,22.213,0,0,1-.608-2.322,4.674,4.674,0,0,1-3.152,2.107,7.4,7.4,0,0,1-5.973-2.491,10.99,10.99,0,0,1,.076,2.039c.164.086.337.169.517.255a5.961,5.961,0,0,1,3.075,2.748,2.631,2.631,0,0,1,.385,1.84Zm6.023-3.926c.521,1.461,1.209,2.623,2.07,2.69l.025,0c.176.031,1.725.311,3.737.83a12.755,12.755,0,0,1-3.787-2.958.257.257,0,0,1-.053-.126l-.36-2.788A5.734,5.734,0,0,1,315.333,75.087Zm-1.165-5.238c.043.364.107.813.192,1.313a23,23,0,0,0,2.1-5.427.257.257,0,0,1,.408-.145.29.29,0,0,0,.253,0c.229-.088.823-.538,1.392-2.812.312-1.248.1-1.58-.006-1.665-.138-.111-.488-.15-1.369.291a.257.257,0,0,1-.371-.217,4.552,4.552,0,0,0-1.141-2.545C315.979,61.572,316.208,66.637,314.168,69.849Zm-12.646-8.506a.523.523,0,0,0-.364.124c-.205.19-.457.8.163,2.746a.247.247,0,0,1,.008.03c.09.479.463,1.8,1.091,2.155a.627.627,0,0,0,.384.082c-.1-.684-.4-2.719-.714-5.068a.256.256,0,0,1-.2,0A1.124,1.124,0,0,0,301.522,61.343Zm.385-5.766c.128,1.275.3,2.739.486,4.175.835-1.045,2.731-2.4,7.03-3.044a8.2,8.2,0,0,1,5.5.713c-.094-.587-.167-.937-.171-.955a.257.257,0,0,1,.229-.31,2.532,2.532,0,0,1,1.75.848l-.2-4.526a9.022,9.022,0,0,1-1.426-.929,4.863,4.863,0,0,1-4.243-1.743,14.363,14.363,0,0,1-4.151,2A6.814,6.814,0,0,1,301.907,55.577Zm-2.628-.336a7.658,7.658,0,0,0,2.071-.074c-.1-1.072-.164-1.986-.164-2.6a.257.257,0,0,1,.241-.256,24.567,24.567,0,0,0,4.925-.935,7.935,7.935,0,0,1,6.843-4.251h.064a3.745,3.745,0,0,1,3.626,2.04.253.253,0,0,1,.022.092l.126,2.894a2.264,2.264,0,0,0,1.995.18c.692-.409,1.329-1.829.438-6.269-.7-3.471-2.039-5.582-3.99-6.274-2.613-.927-6.355.6-11.12,4.548a51.441,51.441,0,0,1-4.665,3.232c-3.076,1.978-6.563,4.219-6.227,5.639.227.96,2.181,1.645,5.809,2.036ZM301.7,52.8c.013.576.07,1.36.155,2.263a6.313,6.313,0,0,0,4.168-3.053A24.886,24.886,0,0,1,301.7,52.8Zm13.482-1.777a.258.258,0,0,1,.166.06,8.09,8.09,0,0,0,1.157.794l-.111-2.553a3.273,3.273,0,0,0-3.143-1.691h-.059a7.452,7.452,0,0,0-6.136,3.509,12.924,12.924,0,0,0,3.7-1.9.257.257,0,0,1,.368.056,4.377,4.377,0,0,0,4.029,1.724Z" transform="translate(-269.131 -39.014)" fill="#ffc768"/>
      </g>
    </g>
    <path id="Path_249" data-name="Path 249" d="M1622.707,3488.517v7.889s.217,1.951,3.294,1.864,18.51,0,18.51,0,2.427-.347,2.427-4.031v-5.722Z" transform="translate(-2.637 -3271.004)" fill="#ffc768"/>
  </g>
</svg>
