<svg xmlns="http://www.w3.org/2000/svg" width="15.75" height="21" viewBox="0 0 15.75 21">
  <path id="fi-sr-notebook" d="M17,2.644V.875a.875.875,0,0,0-1.75,0v.962a4.375,4.375,0,0,0-.875-.087H13.5V.875a.875.875,0,0,0-1.75,0V1.75H10V.875a.875.875,0,0,0-1.75,0V1.75H7.375a4.375,4.375,0,0,0-.875.087V.875a.875.875,0,0,0-1.75,0V2.644A4.357,4.357,0,0,0,3,6.125v10.5A4.38,4.38,0,0,0,7.375,21h7a4.38,4.38,0,0,0,4.375-4.375V6.125A4.357,4.357,0,0,0,17,2.644ZM10.875,14.875h-3.5a.875.875,0,0,1,0-1.75h3.5a.875.875,0,0,1,0,1.75Zm3.5-3.5h-7a.875.875,0,0,1,0-1.75h7a.875.875,0,0,1,0,1.75Zm0-3.5h-7a.875.875,0,0,1,0-1.75h7a.875.875,0,0,1,0,1.75Z" transform="translate(-3)" fill="#8f8f8f"/>
</svg>
