<svg xmlns="http://www.w3.org/2000/svg" width="18.6" height="18.6" viewBox="0 0 18.6 18.6">
  <g id="fi-sr-stats" transform="translate(0.5 0.5)">
    <path id="Path_238" data-name="Path 238" d="M16.867,16.134H2.2a.733.733,0,0,1-.733-.733V.733A.733.733,0,1,0,0,.733V15.4a2.2,2.2,0,0,0,2.2,2.2H16.867a.733.733,0,0,0,0-1.467Z" fill="#707070" stroke="#707070" stroke-miterlimit="10" stroke-width="1"/>
    <path id="Path_239" data-name="Path 239" d="M14.733,17.6a.733.733,0,0,0,.733-.733V11.733a.733.733,0,0,0-1.467,0v5.133A.733.733,0,0,0,14.733,17.6Z" transform="translate(-3.733 -2.933)" fill="#707070" stroke="#707070" stroke-miterlimit="10" stroke-width="1"/>
    <path id="Path_240" data-name="Path 240" d="M6.733,17.6a.733.733,0,0,0,.733-.733V11.733a.733.733,0,0,0-1.467,0v5.133A.733.733,0,0,0,6.733,17.6Z" transform="translate(-1.6 -2.933)" fill="#707070" stroke="#707070" stroke-miterlimit="10" stroke-width="1"/>
    <path id="Path_241" data-name="Path 241" d="M18.733,16.267a.733.733,0,0,0,.733-.733v-8.8a.733.733,0,1,0-1.467,0v8.8A.733.733,0,0,0,18.733,16.267Z" transform="translate(-4.8 -1.6)" fill="#707070" stroke="#707070" stroke-miterlimit="10" stroke-width="1"/>
    <path id="Path_242" data-name="Path 242" d="M10.733,16.267a.733.733,0,0,0,.733-.733v-8.8a.733.733,0,1,0-1.467,0v8.8A.733.733,0,0,0,10.733,16.267Z" transform="translate(-2.667 -1.6)" fill="#707070" stroke="#707070" stroke-miterlimit="10" stroke-width="1"/>
  </g>
</svg>
