<svg xmlns="http://www.w3.org/2000/svg" width="24.429" height="19" viewBox="0 0 24.429 19">
  <g id="Group_37223" data-name="Group 37223" transform="translate(-59 -296)">
    <path id="Path_21" data-name="Path 21" d="M11.857,7.071A4.071,4.071,0,1,1,7.786,3,4.071,4.071,0,0,1,11.857,7.071Zm10.857,0A4.071,4.071,0,1,1,18.643,3,4.071,4.071,0,0,1,22.714,7.071ZM17.191,22a9.726,9.726,0,0,0,.095-1.357,9.459,9.459,0,0,0-2.036-5.876,6.786,6.786,0,0,1,10.179,5.876V22ZM7.786,13.857a6.786,6.786,0,0,1,6.786,6.786V22H1V20.643a6.786,6.786,0,0,1,6.786-6.786Z" transform="translate(58 293)" fill="#8f8f8f"/>
  </g>
</svg>
