<svg xmlns="http://www.w3.org/2000/svg" width="17.904" height="19.532" viewBox="0 0 17.904 19.532">
  <g id="fi-sr-shop" transform="translate(-1 0)">
    <path id="Path_236" data-name="Path 236" d="M13.207,13A4.069,4.069,0,0,1,6.7,13a4.033,4.033,0,0,1-5.7.8v4.088a4.074,4.074,0,0,0,4.069,4.069h9.766A4.074,4.074,0,0,0,18.9,17.883v-4.09a4.033,4.033,0,0,1-5.7-.793Z" transform="translate(0 -2.42)" fill="#ff2d3b"/>
    <path id="Path_237" data-name="Path 237" d="M17.846,2.548A3.235,3.235,0,0,0,14.666,0h-.645V2.441a.814.814,0,1,1-1.628,0V0H7.511V2.441a.814.814,0,1,1-1.628,0V0H5.238a3.235,3.235,0,0,0-3.18,2.549L1.018,7.243,1,8.154a2.441,2.441,0,1,0,4.883-.016.814.814,0,0,1,1.628,0,2.441,2.441,0,1,0,4.883,0,.814.814,0,1,1,1.628,0,2.441,2.441,0,1,0,4.883,0V7.411Z" transform="translate(0 0)" fill="#ff2d3b"/>
  </g>
</svg>
