<svg xmlns="http://www.w3.org/2000/svg" width="22.749" height="20.142" viewBox="0 0 22.749 20.142">
  <g id="Group_37220" data-name="Group 37220" transform="translate(-848.873 -302.429)">
    <path id="financial-services" d="M5.26,17.785V11.069H8.842A11.334,11.334,0,0,1,12.682,12.8h2.347c1.061.063,1.618,1.14.587,1.851a4.354,4.354,0,0,1-3.021.468.506.506,0,1,0,0,1c.278.02.579-.044.844-.044,1.388,0,2.532-.267,3.232-1.364l.357-.824,3.489-1.731c1.747-.576,2.987,1.251,1.7,2.521a45.6,45.6,0,0,1-7.774,4.575,5.263,5.263,0,0,1-5.777,0L5.262,17.785ZM.574,10.423H3.942A.577.577,0,0,1,4.516,11v6.887a.576.576,0,0,1-.574.574H.574A.576.576,0,0,1,0,17.884V11a.577.577,0,0,1,.574-.574Zm2.434,5.44a.659.659,0,1,1-.657.657A.659.659,0,0,1,3.008,15.863ZM19.14,5.942a.287.287,0,0,0-.213-.068.3.3,0,0,0-.2.107l-.283.342a1.784,1.784,0,0,0-.279-.118,3.031,3.031,0,0,0-.292-.083l-.044-.479a.291.291,0,0,0-.1-.194.27.27,0,0,0-.211-.063l-.6.059a.3.3,0,0,0-.185.1.276.276,0,0,0-.072.213L16.7,6.2a1.9,1.9,0,0,0-.283.118,2.376,2.376,0,0,0-.259.152l-.381-.307a.268.268,0,0,0-.207-.067.3.3,0,0,0-.2.106L15,6.662a.285.285,0,0,0,.039.407l.322.285a1.706,1.706,0,0,0-.117.279,2.7,2.7,0,0,0-.085.292l-.478.044a.285.285,0,0,0-.2.1.276.276,0,0,0-.05.213l.059.6a.292.292,0,0,0,.1.2.272.272,0,0,0,.211.067l.439-.043a1.758,1.758,0,0,0,.115.283,2.459,2.459,0,0,0,.152.265l-.307.37a.267.267,0,0,0-.067.207.292.292,0,0,0,.106.2l.466.385a.272.272,0,0,0,.213.063.305.305,0,0,0,.2-.1l.285-.346a1.706,1.706,0,0,0,.279.117,2.7,2.7,0,0,0,.292.085l.046.483a.3.3,0,0,0,.1.2.276.276,0,0,0,.213.061l.6-.059a.292.292,0,0,0,.194-.1A.272.272,0,0,0,18.205,11l-.043-.439a1.758,1.758,0,0,0,.283-.12,2.707,2.707,0,0,0,.265-.152l.37.307a.283.283,0,0,0,.409-.039l.385-.466a.278.278,0,0,0,.063-.213.313.313,0,0,0-.1-.2L19.488,9.4a1.712,1.712,0,0,0,.118-.279,2.756,2.756,0,0,0,.083-.292l.479-.044a.281.281,0,0,0,.185-.1.276.276,0,0,0,.063-.213l-.059-.6a.3.3,0,0,0-.1-.2.279.279,0,0,0-.213-.067l-.439.041a2.142,2.142,0,0,0-.12-.281,1.614,1.614,0,0,0-.152-.259l.309-.381a.274.274,0,0,0,.067-.207.292.292,0,0,0-.106-.2l-.463-.37h-.015ZM8.572,3.679V3.422h.5v.257l.133.013c.115.013.22.028.32.046s.185.035.268.056v.626c-.126-.011-.267-.02-.424-.028s-.3-.009-.428-.009a1.125,1.125,0,0,0-.205.017.27.27,0,0,0-.141.065.172.172,0,0,0,.017.257.32.32,0,0,0,.2.054h.27a.959.959,0,0,1,.478.107.7.7,0,0,1,.287.3A1.264,1.264,0,0,1,9.81,6.252a.661.661,0,0,1-.385.278,1.7,1.7,0,0,1-.354.063v.324h-.5V6.594H8.533a1.831,1.831,0,0,1-.226-.024l-.239-.037q-.117-.022-.222-.05V5.85l.3.02.328.013h.309a1.081,1.081,0,0,0,.226-.02A.279.279,0,0,0,9.145,5.8a.137.137,0,0,0-.019-.222.242.242,0,0,0-.148-.046H8.76a1.094,1.094,0,0,1-.722-.209,1.1,1.1,0,0,1,.024-1.427.925.925,0,0,1,.509-.213Zm2.915-2.291a.2.2,0,0,0-.078-.043.128.128,0,0,0-.059,0,.237.237,0,0,0-.08.022.163.163,0,0,0-.057.05l-.468.555a.283.283,0,0,1-.348.068,2.123,2.123,0,0,0-.2-.093c-.072-.031-.144-.057-.217-.081s-.144-.046-.228-.07-.152-.043-.224-.059a.279.279,0,0,1-.218-.263L9.254.717A.239.239,0,0,0,9.23.64.209.209,0,0,0,9.186.584.146.146,0,0,0,9.127.551a.268.268,0,0,0-.08,0l-.981.1a.263.263,0,0,0-.078.02.255.255,0,0,0-.065.052A.217.217,0,0,0,7.89.786h0a.231.231,0,0,0,0,.063l.068.72a.281.281,0,0,1-.2.3q-.091.03-.205.078a1.834,1.834,0,0,0-.2.094H7.341a1.774,1.774,0,0,0-.185.1l-.019.011c-.063.037-.124.076-.185.113a.278.278,0,0,1-.331-.013l-.646-.507A.224.224,0,0,0,5.9,1.7a.118.118,0,0,0-.057,0,.224.224,0,0,0-.078.024H5.758a.2.2,0,0,0-.046.043l-.622.755a.241.241,0,0,0-.043.076.148.148,0,0,0,0,.063v.013a.222.222,0,0,0,.02.065V2.75a.215.215,0,0,0,.044.048l.555.468a.279.279,0,0,1,.07.35,1.9,1.9,0,0,0-.091.194c-.031.076-.059.148-.081.217s-.046.144-.07.226-.043.155-.059.226a.283.283,0,0,1-.254.218l-.763.068a.2.2,0,0,0-.078.024.172.172,0,0,0-.056.043.174.174,0,0,0-.033.063.2.2,0,0,0,0,.076l.1.983a.25.25,0,0,0,.022.08.285.285,0,0,0,.05.063.231.231,0,0,0,.063.033.172.172,0,0,0,.07,0l.72-.068a.281.281,0,0,1,.276.209q.03.091.078.205a2.014,2.014,0,0,0,.107.2l.011.024c.03.059.065.122.1.185V6.9c.037.065.076.128.115.185a.281.281,0,0,1-.019.328l-.513.626A.34.34,0,0,0,5.4,8.1a.111.111,0,0,0,0,.056.237.237,0,0,0,.022.08.185.185,0,0,0,.05.057c.257.211.516.424.77.637a.17.17,0,0,0,.057.03.185.185,0,0,0,.072,0h0a.278.278,0,0,0,.081-.022h.009a.185.185,0,0,0,.05-.039l.463-.555a.279.279,0,0,1,.35-.068,1.92,1.92,0,0,0,.2.093c.072.03.144.057.217.081s.143.046.226.07.154.043.226.059a.278.278,0,0,1,.217.263l.076.763a.211.211,0,0,0,.024.08.185.185,0,0,0,.043.056.167.167,0,0,0,.061.033.211.211,0,0,0,.078,0l.981-.1a.248.248,0,0,0,.081-.022h0A.322.322,0,0,0,9.81,9.6a.222.222,0,0,0,.039-.07.167.167,0,0,0,0-.068L9.78,8.741a.279.279,0,0,1,.185-.291c.074-.026.146-.052.215-.081h.02c.059-.026.12-.056.185-.089H10.4c.07-.035.139-.07.2-.107s.131-.08.2-.124a.281.281,0,0,1,.328.019l.626.513a.25.25,0,0,0,.061.033h0a.137.137,0,0,0,.061,0,.185.185,0,0,0,.078-.02.231.231,0,0,0,.057-.05c.207-.255.42-.524.637-.772a.2.2,0,0,0,.028-.057.154.154,0,0,0,0-.072h0a.278.278,0,0,0-.022-.081A.2.2,0,0,0,12.6,7.5l-.555-.45a.278.278,0,0,1-.07-.35c.033-.063.065-.13.093-.2s.057-.148.081-.217.046-.146.07-.228.041-.15.057-.226a.281.281,0,0,1,.268-.217l.777-.085a.25.25,0,0,0,.08-.022.209.209,0,0,0,.056-.044.25.25,0,0,0,.033-.061h0a.229.229,0,0,0,0-.072l-.1-.981a.265.265,0,0,0-.022-.08V4.258a.283.283,0,0,0-.046-.052.194.194,0,0,0-.063-.035h0a.133.133,0,0,0-.061,0l-.722.068a.281.281,0,0,1-.289-.185c-.024-.067-.052-.137-.083-.215s-.081-.161-.109-.22V3.607a2.119,2.119,0,0,0-.1-.185c-.037-.061-.078-.126-.122-.185a.281.281,0,0,1,.022-.344l.5-.614a.261.261,0,0,0,.041-.072.135.135,0,0,0,0-.056.233.233,0,0,0-.024-.08V2.059a.185.185,0,0,0-.041-.046l-.687-.555a.3.3,0,0,1-.093-.05ZM8.61,2.418a3.1,3.1,0,0,1,.54,0h0a2.873,2.873,0,0,1,.537.107,2.691,2.691,0,0,1,.492.209,2.858,2.858,0,0,1,.439.291h0a2.706,2.706,0,0,1,.37.37,2.83,2.83,0,0,1,.3.45A2.639,2.639,0,0,1,11.6,4.891a3.146,3.146,0,0,1,0,.544h0a2.678,2.678,0,0,1-.107.537v.011a2.864,2.864,0,0,1-.2.487v.011a2.912,2.912,0,0,1-.285.428h0a2.619,2.619,0,0,1-.37.37,2.821,2.821,0,0,1-.455.3,2.545,2.545,0,0,1-.5.211H9.667a2.736,2.736,0,0,1-.533.1,3.147,3.147,0,0,1-.544,0,2.736,2.736,0,0,1-.542-.109,2.8,2.8,0,0,1-.49-.205,2.689,2.689,0,0,1-.439-.291h0a2.826,2.826,0,0,1-.37-.37,3.05,3.05,0,0,1-.3-.444,2.545,2.545,0,0,1-.211-.5V5.955a2.591,2.591,0,0,1-.1-.531h0a2.909,2.909,0,0,1,0-.539,2.776,2.776,0,0,1,.106-.544,2.889,2.889,0,0,1,.207-.49,2.858,2.858,0,0,1,.291-.439h0a2.824,2.824,0,0,1,.82-.67,2.591,2.591,0,0,1,.5-.209,2.671,2.671,0,0,1,.542-.1Zm.5.4a2.845,2.845,0,0,0-.47,0h0a2.251,2.251,0,0,0-.461.085,2.167,2.167,0,0,0-.422.185,2.447,2.447,0,0,0-.385.257,2.221,2.221,0,0,0-.318.315,2.391,2.391,0,0,0-.424.794,2.221,2.221,0,0,0-.093.461,2.824,2.824,0,0,0,0,.468h0a2.264,2.264,0,0,0,.083.452v.009a2.234,2.234,0,0,0,.185.424,2.662,2.662,0,0,0,.257.383,2.341,2.341,0,0,0,.315.32,2.558,2.558,0,0,0,.37.246,2.325,2.325,0,0,0,.422.176,2.221,2.221,0,0,0,.459.093,2.893,2.893,0,0,0,.474,0,2.282,2.282,0,0,0,.453-.083h0a2.234,2.234,0,0,0,.424-.185,2.682,2.682,0,0,0,.381-.254,2.327,2.327,0,0,0,.318-.315,2.388,2.388,0,0,0,.241-.37V6.274a2.537,2.537,0,0,0,.185-.413h0A2.3,2.3,0,0,0,11.2,5.4h0a2.532,2.532,0,0,0,0-.474,2.206,2.206,0,0,0-.259-.881,2.246,2.246,0,0,0-.946-.959,2.578,2.578,0,0,0-.42-.185,2.334,2.334,0,0,0-.455-.091ZM11.579.81a.846.846,0,0,1,.176.083.267.267,0,0,1,.109.056l.755.62a.74.74,0,0,1,.172.2l.015.024a.8.8,0,0,1,.089.279.707.707,0,0,1-.031.3.788.788,0,0,1-.137.246l-.37.466.026.043a2.467,2.467,0,0,1,.131.25c.044.089.081.167.111.239l.017.041.5-.048a.7.7,0,0,1,.287.026h.017a.805.805,0,0,1,.237.13l.024.02a.766.766,0,0,1,.163.2l.015.024a.82.82,0,0,1,.078.267c0,.25.065.726.1.988a.74.74,0,0,1-.02.279v.015a.74.74,0,0,1-.139.259V5.83A.716.716,0,0,1,13.68,6a.759.759,0,0,1-.279.085l-.59.054L12.8,6.2c-.022.076-.048.159-.08.25s-.061.185-.094.255l-.015.035.409.328a.807.807,0,0,1,.237.5h0a.74.74,0,0,1-.148.555L12.46,8.9a.77.77,0,0,1-.224.185.757.757,0,0,1-.281.087.707.707,0,0,1-.294-.03h-.017a.807.807,0,0,1-.231-.126l-.481-.392-.05.03c-.081.046-.161.091-.237.128s-.143.07-.218.1l-.067.03.054.5a.718.718,0,0,1-.031.3.781.781,0,0,1-.141.252v.011a.8.8,0,0,1-.209.167l-.019.011a.827.827,0,0,1-.265.08c-.252,0-.727.063-.99.1a.723.723,0,0,1-.553-.163h0a.768.768,0,0,1-.185-.218.779.779,0,0,1-.085-.281l-.052-.589-.065-.039c-.074-.022-.157-.048-.25-.08s-.174-.061-.254-.094l-.039-.011-.335.407a.74.74,0,0,1-.217.168l-.02.011a.872.872,0,0,1-.254.076H6.441a.727.727,0,0,1-.3-.024A.677.677,0,0,1,5.9,9.374l-.781-.642a.755.755,0,0,1-.185-.222.772.772,0,0,1-.089-.279.661.661,0,0,1,.031-.294A.77.77,0,0,1,5,7.7l.392-.481-.022-.05c-.041-.068-.08-.143-.118-.22h0c-.046-.085-.085-.168-.12-.25L5.11,6.651l-.5.048a.7.7,0,0,1-.3-.031.74.74,0,0,1-.239-.13l-.024-.02a.74.74,0,0,1-.185-.228.779.779,0,0,1-.08-.267c0-.248-.063-.726-.1-.987a.72.72,0,0,1,.024-.3.694.694,0,0,1,.139-.259h0a.776.776,0,0,1,.222-.189.757.757,0,0,1,.279-.083l.59-.054L4.959,4.1c.02-.076.048-.159.078-.252A2.4,2.4,0,0,1,5.131,3.6l.017-.039-.389-.324a.774.774,0,0,1-.185-.2l-.011-.02a.74.74,0,0,1-.085-.267V2.729a.7.7,0,0,1,.028-.3.794.794,0,0,1,.143-.259l.622-.757a.779.779,0,0,1,.2-.172L5.5,1.228a.761.761,0,0,1,.278-.087.661.661,0,0,1,.3.031.781.781,0,0,1,.244.137l.47.37.059-.024c.074-.044.152-.087.228-.124s.165-.081.241-.115L7.363,1.4,7.317.9A.709.709,0,0,1,7.343.614V.6a.781.781,0,0,1,.13-.237L7.491.338A.768.768,0,0,1,7.726.162.74.74,0,0,1,7.992.079a8.744,8.744,0,0,0,.987-.1.751.751,0,0,1,.3.024.777.777,0,0,1,.259.137h.009a.794.794,0,0,1,.174.218A.757.757,0,0,1,9.81.651l.054.59.056.017c.076.02.159.048.252.078s.174.061.254.094l.039.017.324-.389a.759.759,0,0,1,.5-.276.7.7,0,0,1,.3.028Zm5.727,6.4a1.162,1.162,0,0,1,1.151.611,1.1,1.1,0,0,1,.133.446,1.181,1.181,0,0,1-.267.864,1.209,1.209,0,0,1-.344.289,1.11,1.11,0,0,1-.446.133,1.242,1.242,0,0,1-.466-.046,1.259,1.259,0,0,1-.4-.213,1.235,1.235,0,0,1-.285-.352,1.11,1.11,0,0,1-.133-.448,1.2,1.2,0,0,1,.039-.466,1.224,1.224,0,0,1,.213-.4,1.209,1.209,0,0,1,.352-.285,1.1,1.1,0,0,1,.446-.133Z" transform="translate(848.873 302.457)" fill="#8f8f8f" fill-rule="evenodd"/>
  </g>
</svg>
