<svg xmlns="http://www.w3.org/2000/svg" width="18.998" height="19" viewBox="0 0 18.998 19">
  <g id="Group_37289" data-name="Group 37289" transform="translate(-2 -1.998)">
    <path id="Path_273" data-name="Path 273" d="M5.562,5.562A3.562,3.562,0,0,1,11.5,2.908,3.562,3.562,0,0,1,17.234,6.75h1.389a2.375,2.375,0,1,1,0,4.749H12.686V10.312a1.187,1.187,0,1,0-2.375,0V11.5H4.375a2.375,2.375,0,1,1,0-4.749H5.764A3.577,3.577,0,0,1,5.562,5.562ZM10.311,6.75V5.562A1.187,1.187,0,1,0,9.124,6.75Zm3.562,0a1.187,1.187,0,1,0-1.187-1.187V6.75Z" transform="translate(0 0)" fill="#8f8f8f" fill-rule="evenodd"/>
    <path id="Path_274" data-name="Path 274" d="M10.124,11H3v5.937a2.375,2.375,0,0,0,2.375,2.375h4.749ZM12.5,19.311h4.749a2.375,2.375,0,0,0,2.375-2.375V11H12.5Z" transform="translate(0.187 1.687)" fill="#8f8f8f"/>
  </g>
</svg>
