<svg xmlns="http://www.w3.org/2000/svg" width="20.002" height="20" viewBox="0 0 20.002 20">
  <g id="Group_37237" data-name="Group 37237" transform="translate(332.699 -1645.302)">
    <g id="discount" transform="translate(-332.699 1645.302)">
      <path id="Path_24" data-name="Path 24" d="M2.842,8.07l-1.5-2.606a.473.473,0,0,1,.41-.708v0H4.763V1.727a.476.476,0,0,1,.475-.475.483.483,0,0,1,.267.081L8.08,2.83,9.592.226a.473.473,0,0,1,.82,0l1.51,2.6,2.6-1.515a.472.472,0,0,1,.646.173.465.465,0,0,1,.063.238l0,3.027h3.027a.476.476,0,0,1,.475.475.483.483,0,0,1-.081.267l-1.5,2.575,2.6,1.512a.473.473,0,0,1,0,.82l-2.6,1.51,1.515,2.6a.472.472,0,0,1-.173.646.465.465,0,0,1-.238.063l-3.027,0v3.014a.475.475,0,0,1-.75.387l-2.567-1.481L10.41,19.754a.473.473,0,0,1-.82,0l-1.51-2.6-2.606,1.5a.473.473,0,0,1-.708-.41h0V15.23H1.748a.475.475,0,0,1-.387-.75l1.481-2.567L.236,10.4a.473.473,0,0,1,0-.82l2.6-1.512ZM7.271,6.577a1.981,1.981,0,0,1,1.411.5,1.737,1.737,0,0,1,.532,1.328,1.739,1.739,0,0,1-.532,1.33,1.981,1.981,0,0,1-1.411.5,1.984,1.984,0,0,1-1.41-.5,1.74,1.74,0,0,1-.534-1.33,1.736,1.736,0,0,1,.534-1.328,1.977,1.977,0,0,1,1.41-.5Zm4.264.26h1.582l-4.632,6.3H6.9l4.632-6.3ZM7.271,7.988a.377.377,0,0,0-.29.109.527.527,0,0,0,0,.62.442.442,0,0,0,.581,0,.449.449,0,0,0,.1-.311.442.442,0,0,0-.1-.309.376.376,0,0,0-.291-.109Zm5.457,1.758a1.984,1.984,0,0,1,1.41.5,1.74,1.74,0,0,1,.534,1.33,1.736,1.736,0,0,1-.534,1.328,1.977,1.977,0,0,1-1.41.5,1.981,1.981,0,0,1-1.411-.5,1.737,1.737,0,0,1-.532-1.328,1.739,1.739,0,0,1,.532-1.33,1.988,1.988,0,0,1,1.411-.5Zm0,1.411a.38.38,0,0,0-.291.109.527.527,0,0,0,0,.62.375.375,0,0,0,.291.109.379.379,0,0,0,.29-.109.527.527,0,0,0,0-.62.369.369,0,0,0-.29-.109Z" transform="translate(0 0.01)" fill="#8f8f8f" fill-rule="evenodd"/>
    </g>
  </g>
</svg>
