<svg xmlns="http://www.w3.org/2000/svg" width="20.992" height="20" viewBox="0 0 20.992 20">
  <g id="Group_37217" data-name="Group 37217" transform="translate(-845.472 -301.828)">
    <g id="restaurant-waiter" transform="translate(845.472 301.828)">
      <path id="Path_25" data-name="Path 25" d="M6.29,18.426l-.2-5.033L8.354,13.3a8.494,8.494,0,0,1,2.93,1.182l1.758-.07c.8.017,1.247.806.494,1.367a3.252,3.252,0,0,1-2.25.441.379.379,0,1,0,.029.747c.208.009.434-.05.63-.058a2.584,2.584,0,0,0,2.381-1.119l.239-.625,2.564-1.4c1.291-.483,2.161.735,1.235,1.725a34.171,34.171,0,0,1-5.572,3.774,3.947,3.947,0,0,1-4.329.173L6.29,18.426ZM5.08,10.757h15.7a.214.214,0,0,1,.212.212v.924a.214.214,0,0,1-.212.212H5.08a.213.213,0,0,1-.212-.212v-.924a.213.213,0,0,1,.212-.212ZM13.54,1.918c4.3.343,7.918,3.956,7.383,8.21H4.939c-.528-4.281,3.106-7.9,7.435-8.215V1.22H11.69A.22.22,0,0,1,11.471,1V.219A.219.219,0,0,1,11.69,0H14.2a.22.22,0,0,1,.219.219V1a.22.22,0,0,1-.219.219H13.54v.7ZM0,13.221l5.39-.284.239,6.022-5.39.282L0,13.221Z" fill="#8f8f8f" fill-rule="evenodd"/>
    </g>
  </g>
</svg>
