<svg xmlns="http://www.w3.org/2000/svg" width="20.632" height="20.63" viewBox="0 0 20.632 20.63">
  <g id="fi-sr-search" transform="translate(0.003 0.001)" fill="none">
    <path d="M8.6,17.191a8.559,8.559,0,0,0,5.438-1.941l5.128,5.127a.859.859,0,1,0,1.216-1.216L15.25,14.034A8.6,8.6,0,1,0,8.6,17.191Z" stroke="none"/>
    <path d="M 8.60630989074707 15.29106616973877 C 10.14184951782227 15.29106616973877 11.6414098739624 14.75479602813721 12.82874011993408 13.78104591369629 L 13.35667133331299 13.3480806350708 L 13.77849960327148 12.8317756652832 C 14.73670959472656 11.65896606445312 15.27303981781006 10.17905616760254 15.28868961334229 8.664655685424805 C 15.30432987213135 7.150265693664551 14.79869937896729 5.659585952758789 13.86492919921875 4.467236042022705 C 12.58689975738525 2.835275888442993 10.66416931152344 1.899305820465088 8.589759826660156 1.899305820465088 C 7.592589855194092 1.899305820465088 6.628249645233154 2.116945743560791 5.723529815673828 2.546165704727173 C 4.35522985458374 3.19532585144043 3.236549615859985 4.302725791931152 2.573559761047363 5.664375782012939 C 1.910569667816162 7.026015758514404 1.728749632835388 8.58957576751709 2.061599731445312 10.06702613830566 C 2.394379615783691 11.5441255569458 3.228939771652222 12.8784761428833 4.411559581756592 13.8242654800415 C 5.594159603118896 14.77005577087402 7.079359531402588 15.29096603393555 8.595159530639648 15.29105567932129 L 8.60630989074707 15.29106616973877 M 19.76946449279785 20.62927436828613 C 19.54949569702148 20.62927436828613 19.32949447631836 20.54532051086426 19.16169929504395 20.3774356842041 L 14.03358936309814 15.25017547607422 C 12.5003490447998 16.50760650634766 10.57808494567871 17.19388008117676 8.595159530639648 17.19105529785156 C 4.576918125152588 17.19338226318359 1.091559648513794 14.40628623962402 0.2080596685409546 10.48460578918457 C -0.675450325012207 6.562925815582275 1.277159690856934 2.552655696868896 4.909119606018066 0.8295558094978333 C 8.541078567504883 -0.89353346824646 12.88223934173584 0.1308152228593826 15.36080932617188 3.29576587677002 C 17.83938026428223 6.460705757141113 17.79328918457031 10.9208459854126 15.24985980987549 14.03390598297119 L 20.37721061706543 19.16192626953125 C 20.712890625 19.49760627746582 20.712890625 20.04185676574707 20.37721061706543 20.37752532958984 C 20.20936965942383 20.54536628723145 19.98943328857422 20.62927436828613 19.76946449279785 20.62927436828613 Z" stroke="none" fill="#8f8f8f"/>
  </g>
</svg>
