<svg xmlns="http://www.w3.org/2000/svg" width="17.594" height="19.554" viewBox="0 0 17.594 19.554">
  <path id="fi-sr-settings" d="M1.532,14.666a2.444,2.444,0,0,0,3.341.9l.363-.209a7.314,7.314,0,0,0,2.32,1.339v.418a2.444,2.444,0,0,0,4.889,0v-.418a7.314,7.314,0,0,0,2.32-1.341l.364.21a2.446,2.446,0,0,0,2.444-4.237l-.362-.209a7.414,7.414,0,0,0,0-2.681l.362-.209A2.446,2.446,0,0,0,15.129,3.99l-.363.209a7.314,7.314,0,0,0-2.322-1.337V2.444a2.444,2.444,0,1,0-4.889,0v.418A7.314,7.314,0,0,0,5.235,4.2l-.364-.211A2.446,2.446,0,1,0,2.427,8.229l.362.209a7.414,7.414,0,0,0,0,2.681l-.362.209a2.449,2.449,0,0,0-.895,3.339ZM10,6.518A3.259,3.259,0,1,1,6.741,9.777,3.259,3.259,0,0,1,10,6.518Z" transform="translate(-1.203)" fill="#8f8f8f"/>
</svg>
