<svg xmlns="http://www.w3.org/2000/svg" width="50.261" height="48.106" viewBox="0 0 50.261 48.106">
  <path id="Icon_awesome-star" data-name="Icon awesome-star" d="M23.876,1.673,17.741,14.111l-13.725,2a3.008,3.008,0,0,0-1.663,5.129l9.93,9.676L9.934,44.587a3,3,0,0,0,4.359,3.166L26.572,41.3l12.279,6.454a3.007,3.007,0,0,0,4.359-3.166L40.861,30.918l9.93-9.676a3.008,3.008,0,0,0-1.663-5.129l-13.725-2L29.268,1.673a3.009,3.009,0,0,0-5.392,0Z" transform="translate(-1.441 0.001)" fill="#ffc444"/>
</svg>
