<svg xmlns="http://www.w3.org/2000/svg" xmlns:xlink="http://www.w3.org/1999/xlink" width="59.842" height="44.303" viewBox="0 0 59.842 44.303">
  <defs>
    <linearGradient id="linear-gradient" x1="-1.818" y1="0.097" x2="-1.46" y2="2.512" gradientUnits="objectBoundingBox">
      <stop offset="0" stop-color="#ff9085"/>
      <stop offset="1" stop-color="#fb6fbb"/>
    </linearGradient>
    <clipPath id="clip-path">
      <path id="Path_5806" data-name="Path 5806" d="M1998.215,1662.415c0,2.1-.078,4.236-.085,6.35,1.107.459,2.419.971,3.122-.345.976-1.829,4.59-1.49,6.194-1.015,1.986.588,6.4,1.459,6.389-1.586-.007-2.536-1.017-4.1,2.018-4.717s4.7-2.281,4.28-5.086c-.443-2.951,3.162-5.593,1.229-8.011-3.368-4.212-8.971,2.146-9.994,6.286s-2.955,2.55-5.817,2.507c-3.907-.059-1.938,4.2-3.756,5.361C2000.369,1663.068,1999.634,1662.581,1998.215,1662.415Z" transform="translate(-1998.13 -1646.62)" fill="none"/>
    </clipPath>
    <clipPath id="clip-path-2">
      <path id="Path_5815" data-name="Path 5815" d="M1992.407,990.377q-2.746-.969-5.472-2.06c-.033.02-.258-3.963,1.86-5.587,4.18-3.131,1.976-7.177,1.455-9.411-.874-3.18.079-6.627,3.4-5.255,3.242,1.261,4.387-5.125,4.315-10.243-.244-2.534,2.452-4.988,4.917-5.165,2.522-.239,4.813,1.8,5.079,6.8.575,5.851-4.051,8.348-5.919,10.833-1.838,2.44,1.575,5.431-1.594,7.272-2.677,1.665-5.935,2.585-5.072,5.554C1996.271,986.065,1995.773,988.217,1992.407,990.377Z" transform="translate(-1986.912 -952.638)" fill="none"/>
    </clipPath>
    <linearGradient id="linear-gradient-2" x1="2.607" y1="0.655" x2="2.02" y2="1.588" gradientUnits="objectBoundingBox">
      <stop offset="0" stop-color="#aa80f9"/>
      <stop offset="0.996" stop-color="#6165d7"/>
    </linearGradient>
    <linearGradient id="linear-gradient-3" x1="7.268" y1="-2.41" x2="7.448" y2="2.649" gradientUnits="objectBoundingBox">
      <stop offset="0.004" stop-color="#26264f"/>
      <stop offset="1" stop-color="#444b8c"/>
    </linearGradient>
    <linearGradient id="linear-gradient-4" x1="26.146" y1="1.152" x2="26.024" y2="-5.07" gradientUnits="objectBoundingBox">
      <stop offset="0" stop-color="#893976"/>
      <stop offset="1" stop-color="#311944"/>
    </linearGradient>
    <linearGradient id="linear-gradient-5" x1="11.191" y1="-1.485" x2="11.476" y2="1.472" xlink:href="#linear-gradient-3"/>
    <linearGradient id="linear-gradient-6" x1="18.711" y1="1.353" x2="18.624" y2="-3.032" xlink:href="#linear-gradient-4"/>
    <linearGradient id="linear-gradient-7" x1="0" y1="0.5" x2="1" y2="0.5" xlink:href="#linear-gradient"/>
    <linearGradient id="linear-gradient-10" x1="0.251" y1="-0.273" x2="0.631" y2="0.182" xlink:href="#linear-gradient-3"/>
    <linearGradient id="linear-gradient-11" x1="0.289" y1="-0.283" x2="0.825" y2="0.948" gradientUnits="objectBoundingBox">
      <stop offset="0" stop-color="#ffc444"/>
      <stop offset="0.996" stop-color="#f36f56"/>
    </linearGradient>
    <linearGradient id="linear-gradient-12" x1="0.73" y1="-0.261" x2="0.324" y2="0.337" gradientUnits="objectBoundingBox">
      <stop offset="0.004" stop-color="#6165d7"/>
      <stop offset="1" stop-color="#aa80f9"/>
    </linearGradient>
    <linearGradient id="linear-gradient-13" x1="1.029" y1="-0.312" x2="-0.015" y2="0.185" xlink:href="#linear-gradient-2"/>
    <linearGradient id="linear-gradient-14" x1="1.152" y1="-7.44" x2="0.742" y2="-4.411" xlink:href="#linear-gradient-3"/>
    <linearGradient id="linear-gradient-15" x1="1.419" y1="-0.398" x2="-0.076" y2="0.128" xlink:href="#linear-gradient-2"/>
    <linearGradient id="linear-gradient-16" x1="0.362" y1="-2.911" x2="1.388" y2="-2.911" xlink:href="#linear-gradient-4"/>
    <linearGradient id="linear-gradient-17" x1="0.144" y1="-0.454" x2="0.793" y2="0.944" xlink:href="#linear-gradient-11"/>
    <linearGradient id="linear-gradient-18" x1="0.181" y1="-0.527" x2="1.485" y2="1.846" gradientUnits="objectBoundingBox">
      <stop offset="0" stop-color="#ffc444"/>
      <stop offset="0.247" stop-color="#fcaf48"/>
      <stop offset="0.996" stop-color="#f36f56"/>
    </linearGradient>
    <linearGradient id="linear-gradient-19" x1="2.214" y1="0.55" x2="2.904" y2="-1.209" xlink:href="#linear-gradient-4"/>
    <linearGradient id="linear-gradient-20" x1="6.292" y1="-0.124" x2="9.994" y2="-2.099" xlink:href="#linear-gradient-4"/>
    <linearGradient id="linear-gradient-21" x1="0.319" y1="-0.013" x2="0.693" y2="0.811" xlink:href="#linear-gradient-4"/>
    <linearGradient id="linear-gradient-22" x1="-0.085" y1="0.5" x2="1.065" y2="0.5" gradientUnits="objectBoundingBox">
      <stop offset="0" stop-color="#f57e53"/>
      <stop offset="0.005" stop-color="#f58152"/>
      <stop offset="0.042" stop-color="#f8994d"/>
      <stop offset="0.084" stop-color="#fbac49"/>
      <stop offset="0.133" stop-color="#fdb946"/>
      <stop offset="0.196" stop-color="#fec144"/>
      <stop offset="0.318" stop-color="#ffc444"/>
      <stop offset="0.455" stop-color="#fdb946"/>
      <stop offset="0.694" stop-color="#f99c4c"/>
      <stop offset="0.996" stop-color="#f36f56"/>
    </linearGradient>
    <linearGradient id="linear-gradient-23" x1="0.495" y1="0.179" x2="0.556" y2="4.091" gradientUnits="objectBoundingBox">
      <stop offset="0" stop-color="#ffdb44"/>
      <stop offset="1" stop-color="#feef06"/>
    </linearGradient>
    <linearGradient id="linear-gradient-24" x1="0.492" y1="-0.777" x2="0.511" y2="1.295" xlink:href="#linear-gradient-23"/>
    <linearGradient id="linear-gradient-25" x1="-0.119" y1="-41.607" x2="-0.1" y2="-39.175" gradientUnits="objectBoundingBox">
      <stop offset="0.004" stop-color="#f36f56"/>
      <stop offset="0.306" stop-color="#f99c4c"/>
      <stop offset="0.545" stop-color="#fdb946"/>
      <stop offset="0.682" stop-color="#ffc444"/>
      <stop offset="0.804" stop-color="#fec144"/>
      <stop offset="0.867" stop-color="#fdb946"/>
      <stop offset="0.916" stop-color="#fbac49"/>
      <stop offset="0.958" stop-color="#f8994d"/>
      <stop offset="0.995" stop-color="#f58152"/>
      <stop offset="1" stop-color="#f57e53"/>
    </linearGradient>
    <linearGradient id="linear-gradient-29" x1="0.163" y1="-37.96" x2="0.181" y2="-35.528" xlink:href="#linear-gradient-25"/>
    <linearGradient id="linear-gradient-33" x1="-0.081" y1="-34.325" x2="-0.062" y2="-31.894" xlink:href="#linear-gradient-25"/>
    <linearGradient id="linear-gradient-37" x1="-0.228" y1="-30.679" x2="-0.209" y2="-28.248" xlink:href="#linear-gradient-25"/>
    <linearGradient id="linear-gradient-41" x1="-0.119" y1="-26.746" x2="-0.1" y2="-24.314" xlink:href="#linear-gradient-25"/>
    <linearGradient id="linear-gradient-45" x1="0.163" y1="-23.1" x2="0.181" y2="-20.668" xlink:href="#linear-gradient-25"/>
    <linearGradient id="linear-gradient-49" x1="-0.081" y1="-19.465" x2="-0.062" y2="-17.033" xlink:href="#linear-gradient-25"/>
    <linearGradient id="linear-gradient-53" x1="0.046" y1="-15.818" x2="0.065" y2="-13.387" xlink:href="#linear-gradient-25"/>
    <linearGradient id="linear-gradient-54" x1="0.618" y1="-0.405" x2="2.323" y2="-0.405" xlink:href="#linear-gradient-22"/>
    <linearGradient id="linear-gradient-55" x1="1.539" y1="-0.592" x2="1.642" y2="0.028" xlink:href="#linear-gradient-23"/>
    <linearGradient id="linear-gradient-56" x1="1.537" y1="-0.618" x2="1.568" y2="-0.428" xlink:href="#linear-gradient-23"/>
    <linearGradient id="linear-gradient-57" x1="-4.616" y1="-0.978" x2="-4.584" y2="-0.785" xlink:href="#linear-gradient-25"/>
    <linearGradient id="linear-gradient-58" x1="-13.554" y1="-2.962" x2="-12.413" y2="-2.962" gradientUnits="objectBoundingBox">
      <stop offset="0" stop-color="#40447e"/>
      <stop offset="0.996" stop-color="#3c3b6b"/>
    </linearGradient>
    <linearGradient id="linear-gradient-59" x1="17.395" y1="-12.999" x2="51.777" y2="13.614" xlink:href="#linear-gradient-11"/>
    <linearGradient id="linear-gradient-60" x1="0.632" y1="-0.174" x2="1.901" y2="0.838" gradientUnits="objectBoundingBox">
      <stop offset="0" stop-color="#311944"/>
      <stop offset="1" stop-color="#a03976"/>
    </linearGradient>
    <linearGradient id="linear-gradient-61" x1="-0.897" y1="0.5" x2="0.103" y2="0.5" xlink:href="#linear-gradient-60"/>
    <linearGradient id="linear-gradient-62" x1="0.887" y1="0.891" x2="4.381" y2="-0.074" gradientUnits="objectBoundingBox">
      <stop offset="0" stop-color="#311944"/>
      <stop offset="1" stop-color="#893976"/>
    </linearGradient>
    <linearGradient id="linear-gradient-63" x1="4.415" y1="1.788" x2="3.107" y2="0.456" xlink:href="#linear-gradient-2"/>
    <linearGradient id="linear-gradient-64" x1="0.255" y1="-1.426" x2="0.753" y2="-0.667" xlink:href="#linear-gradient-2"/>
    <linearGradient id="linear-gradient-65" x1="1.699" y1="0.902" x2="1.473" y2="0.081" xlink:href="#linear-gradient-2"/>
    <linearGradient id="linear-gradient-66" x1="3.415" y1="0.61" x2="6.775" y2="-1.562" xlink:href="#linear-gradient-11"/>
    <linearGradient id="linear-gradient-67" x1="2.037" y1="1.357" x2="1.448" y2="0.3" xlink:href="#linear-gradient-2"/>
    <linearGradient id="linear-gradient-68" x1="7.933" y1="1.432" x2="8.057" y2="-0.175" xlink:href="#linear-gradient-11"/>
    <linearGradient id="linear-gradient-69" x1="-7.055" y1="1.603" x2="-7.862" y2="-0.224" gradientUnits="objectBoundingBox">
      <stop offset="0" stop-color="#311944"/>
      <stop offset="1" stop-color="#6b3976"/>
    </linearGradient>
    <linearGradient id="linear-gradient-70" x1="4.563" y1="0.25" x2="4.527" y2="3.419" xlink:href="#linear-gradient-11"/>
    <linearGradient id="linear-gradient-71" x1="1.377" y1="0.248" x2="2.234" y2="0.248" xlink:href="#linear-gradient-58"/>
    <linearGradient id="linear-gradient-72" x1="-4.113" y1="1.614" x2="-3.12" y2="1.614" xlink:href="#linear-gradient-58"/>
    <linearGradient id="linear-gradient-73" x1="19.058" y1="-6.901" x2="82.242" y2="52.319" xlink:href="#linear-gradient-11"/>
    <linearGradient id="linear-gradient-74" x1="-0.289" y1="-0.089" x2="4.547" y2="-0.743" xlink:href="#linear-gradient-60"/>
    <linearGradient id="linear-gradient-75" x1="0.036" y1="-3.05" x2="-0.218" y2="1.224" xlink:href="#linear-gradient-60"/>
    <linearGradient id="linear-gradient-76" x1="0.925" y1="0.568" x2="2.128" y2="-0.901" xlink:href="#linear-gradient"/>
    <linearGradient id="linear-gradient-77" x1="0.453" y1="1.209" x2="0.493" y2="0.605" xlink:href="#linear-gradient-3"/>
    <linearGradient id="linear-gradient-78" x1="0.341" y1="0.939" x2="0.642" y2="-0.276" xlink:href="#linear-gradient-3"/>
    <linearGradient id="linear-gradient-79" x1="0" y1="0.5" x2="1" y2="0.5" xlink:href="#linear-gradient-3"/>
    <linearGradient id="linear-gradient-80" x1="0.384" y1="1.047" x2="0.649" y2="-0.416" xlink:href="#linear-gradient-3"/>
    <linearGradient id="linear-gradient-83" x1="0.475" y1="1.004" x2="0.576" y2="-0.995" xlink:href="#linear-gradient-3"/>
    <linearGradient id="linear-gradient-84" x1="0.429" y1="0.313" x2="1.075" y2="1.164" gradientUnits="objectBoundingBox">
      <stop offset="0" stop-color="#fcb148"/>
      <stop offset="0.052" stop-color="#fdb946"/>
      <stop offset="0.142" stop-color="#fec144"/>
      <stop offset="0.318" stop-color="#ffc444"/>
      <stop offset="0.485" stop-color="#fdb946"/>
      <stop offset="0.775" stop-color="#f99c4c"/>
      <stop offset="0.866" stop-color="#f8924f"/>
      <stop offset="1" stop-color="#f8924f"/>
    </linearGradient>
    <linearGradient id="linear-gradient-85" x1="-0.641" y1="0.986" x2="0.67" y2="0.427" gradientUnits="objectBoundingBox">
      <stop offset="0.494" stop-color="#ebeff2"/>
      <stop offset="1" stop-color="#fff"/>
    </linearGradient>
    <linearGradient id="linear-gradient-86" x1="-0.788" y1="1.049" x2="0.523" y2="0.49" xlink:href="#linear-gradient-85"/>
    <linearGradient id="linear-gradient-87" x1="-0.573" y1="10.266" x2="0.045" y2="4.833" xlink:href="#linear-gradient-85"/>
    <linearGradient id="linear-gradient-88" x1="0.546" y1="0.061" x2="0.39" y2="1.002" xlink:href="#linear-gradient-84"/>
  </defs>
  <g id="Group_3918" data-name="Group 3918" transform="translate(-541.267 -945.627)">
    <path id="Path_5799" data-name="Path 5799" d="M582.586,1064.613c.867-9.617-9.253-12.7-16.293-10.071-7.1,2.652-8.873-1.41-18.917.011-10.17,1.439-4.574,16.161-4.574,16.161s1.985,12.873,4.075,18.778c2.079,5.873,20.33,3.279,24.78,2.992,4.424-.285,8.282-.041,11.953-6.636S581.722,1074.2,582.586,1064.613Z" transform="translate(0 -105.927)" fill="#f4f7fa"/>
    <g id="Group_3876" data-name="Group 3876" transform="translate(569.461 959.193)">
      <g id="Group_3875" data-name="Group 3875" transform="translate(0 0)">
        <path id="Path_5800" data-name="Path 5800" d="M2025.1,1668.74a2.517,2.517,0,0,1-.832-.847c-.467-1.262-1.493-3.567-.978-4.892.088-.226,1.188-.108,1.4-.273a2.875,2.875,0,0,0,1.615-.509c1.89-1.258-.15-5.424,3.776-5.39,2.876.025,4.792,1.636,5.819-2.51s6.626-10.5,10-6.288c1.934,2.416-1.673,5.059-1.229,8.011.422,2.8-1.245,4.464-4.28,5.086s-2.023,2.18-2.018,4.717c.006,3.048-4.4,2.168-6.393,1.588C2030.371,1666.966,2025.96,1666.863,2025.1,1668.74Z" transform="translate(-2022.668 -1646.646)" fill="url(#linear-gradient)"/>
        <g id="Group_3874" data-name="Group 3874">
          <g id="Group_3873" data-name="Group 3873" clip-path="url(#clip-path)">
            <g id="Group_3872" data-name="Group 3872" transform="translate(1.103 -0.792)">
              <path id="Path_5801" data-name="Path 5801" d="M2055.147,1654.566l-.01-.072a24.839,24.839,0,0,0,13.372-6.4,30.029,30.029,0,0,0,8.007-12.677l.069.023a30.105,30.105,0,0,1-8.027,12.707A24.911,24.911,0,0,1,2055.147,1654.566Z" transform="translate(-2055.137 -1634.842)" fill="#fcfdfe"/>
              <path id="Path_5802" data-name="Path 5802" d="M2350.615,2547.326a18.968,18.968,0,0,0-9.206-3.024v-.073a19.056,19.056,0,0,1,9.248,3.038Z" transform="translate(-2335.869 -2526.066)" fill="#fcfdfe"/>
              <path id="Path_5803" data-name="Path 5803" d="M2154.5,2159.269l-.03-.066a5.782,5.782,0,0,0,2.964-3.785,16.953,16.953,0,0,0,.688-5.033h.073a17.021,17.021,0,0,1-.691,5.055A5.851,5.851,0,0,1,2154.5,2159.269Z" transform="translate(-2152.543 -2139.844)" fill="#fcfdfe"/>
              <path id="Path_5804" data-name="Path 5804" d="M2772.346,2220.983l-.033-.065c2.5-1.283,5.436-.9,7.455-.346l-.019.07C2777.742,2220.1,2774.829,2219.71,2772.346,2220.983Z" transform="translate(-2758.434 -2208.168)" fill="#fcfdfe"/>
              <path id="Path_5805" data-name="Path 5805" d="M2966.246,1613.562l-.067-.027c.51-1.26,1.146-3.948-.315-7.792l.068-.026C2967.4,1609.585,2966.759,1612.292,2966.246,1613.562Z" transform="translate(-2948.238 -1605.717)" fill="#fcfdfe"/>
            </g>
          </g>
        </g>
      </g>
    </g>
    <g id="Group_3880" data-name="Group 3880" transform="translate(569.244 945.763)">
      <g id="Group_3879" data-name="Group 3879" transform="translate(0 0)">
        <g id="Group_3878" data-name="Group 3878" clip-path="url(#clip-path-2)">
          <path id="Path_5807" data-name="Path 5807" d="M1992.407,990.377q-2.746-.969-5.472-2.06c-.033.02-.258-3.963,1.86-5.587,4.18-3.131,1.976-7.177,1.455-9.411-.862-3.175.061-6.228,3.192-5.626,3.479.6,4.654-4.751,4.521-9.872-.244-2.534,2.452-4.988,4.917-5.165,2.522-.239,4.813,1.8,5.079,6.8.575,5.851-4.051,8.348-5.919,10.833-1.838,2.44,1.575,5.431-1.594,7.272-2.677,1.665-5.935,2.585-5.072,5.554C1996.271,986.065,1995.773,988.217,1992.407,990.377Z" transform="translate(-1986.912 -952.638)" fill="url(#linear-gradient-2)"/>
          <g id="Group_3877" data-name="Group 3877" transform="translate(1.399 -1.489)">
            <path id="Path_5808" data-name="Path 5808" d="M2137.492,914.646l-.078-.009a110.979,110.979,0,0,1,6.428-15.041c.55-1.19,1.137-2.385,1.7-3.539a56.989,56.989,0,0,0,4.018-9.6,21.3,21.3,0,0,0,.341-10.726l.077-.018a21.371,21.371,0,0,1-.342,10.765,57.017,57.017,0,0,1-4.023,9.618c-.568,1.154-1.155,2.348-1.7,3.539A111.461,111.461,0,0,0,2137.492,914.646Z" transform="translate(-2135.901 -875.708)" fill="#beb8f2"/>
            <path id="Path_5809" data-name="Path 5809" d="M2703.012,1265.584l-.048-.062c2.288-1.767,5.095-4.371,6.6-5.77,1.215-1.127,1.222-1.125,1.267-1.109l-.013.037.009.038c-.061.027-.567.5-1.209,1.093C2708.112,1261.209,2705.3,1263.814,2703.012,1265.584Z" transform="translate(-2690.506 -1251.228)" fill="#beb8f2"/>
            <path id="Path_5810" data-name="Path 5810" d="M2572.844,1084.308a10.327,10.327,0,0,0-3.55-7.507.032.032,0,0,0,.019,0l-.03-.073c.022-.009.044,0,.08.023a10.5,10.5,0,0,1,3.559,7.553Z" transform="translate(-2559.412 -1072.833)" fill="#beb8f2"/>
            <path id="Path_5811" data-name="Path 5811" d="M2173.428,1718l-.077-.018a13.281,13.281,0,0,0-.953-7.841,25.349,25.349,0,0,0-2.408-4.573c-.072-.109-.1-.148-.1-.165l.072-.032c.005.012.047.075.1.154a25.426,25.426,0,0,1,2.416,4.587A13.357,13.357,0,0,1,2173.428,1718Z" transform="translate(-2167.743 -1689.311)" fill="#beb8f2"/>
            <path id="Path_5812" data-name="Path 5812" d="M2405.764,2119.871l-.06-.052c2.558-2.963,7.288-2.239,7.326-2.221l.022.042-.035.033,0-.039-.011.037C2412.958,2117.66,2408.3,2116.93,2405.764,2119.871Z" transform="translate(-2398.998 -2093.475)" fill="#beb8f2"/>
            <path id="Path_5813" data-name="Path 5813" d="M2061.236,2521.892l-.078-.011c.141-1.011-.068-2.829-1.862-5.744-.1-.158-.1-.158-.092-.179l.076.02-.038-.01.037-.011c0,.011.042.071.084.139C2061.169,2519.03,2061.379,2520.867,2061.236,2521.892Z" transform="translate(-2059.203 -2484.213)" fill="#beb8f2"/>
            <path id="Path_5814" data-name="Path 5814" d="M2194.8,2584.839l-.073-.031c.313-.729,1.392-2.059,5.1-2.785l.1-.02.021.076-.1.021C2196.172,2582.819,2195.109,2584.125,2194.8,2584.839Z" transform="translate(-2192.107 -2548.982)" fill="#beb8f2"/>
          </g>
        </g>
      </g>
    </g>
    <g id="Group_3882" data-name="Group 3882" transform="translate(564.512 962.709)">
      <path id="Path_5816" data-name="Path 5816" d="M1892.071,3017.585a9.81,9.81,0,0,0-1.3.672c-.021.093.82-.031,1.164-.018s.626-.088.595-.234-.151-.511-.151-.511Z" transform="translate(-1887.903 -2994.481)" fill="url(#linear-gradient-3)"/>
      <path id="Path_5817" data-name="Path 5817" d="M1955.36,2994.371l.078.574a.45.45,0,0,0,.338-.013l.058-.63Z" transform="translate(-1951.239 -2971.737)" fill="url(#linear-gradient-4)"/>
      <path id="Path_5818" data-name="Path 5818" d="M2219.047,2998.562l.148.238a.284.284,0,0,1,.034.223c-.052.2-.156.584-.2.685-.062.137-.887.218-.887.218s-.074-.1.1-.229.281-.145.342-.329a4.857,4.857,0,0,0,.1-.707Z" transform="translate(-2208.919 -2975.914)" fill="url(#linear-gradient-5)"/>
      <path id="Path_5819" data-name="Path 5819" d="M2233.806,2963.825a7.677,7.677,0,0,1,.319.848s.086.11.249-.052.074-.073.074-.073l-.031-.791Z" transform="translate(-2224.296 -2941.782)" fill="url(#linear-gradient-6)"/>
      <path id="Path_5820" data-name="Path 5820" d="M1916.654,2361.306c-.067,1.713-.07,3.574.029,5.562.111,2.239.334,4.308.615,6.184.1,0,.214,0,.329,0,.077,0,.153-.006.225-.011a14.193,14.193,0,0,0,.473-1.511,14.547,14.547,0,0,0,.33-1.77c.246-1.94-.042-2.11.157-3.547.177-1.273.428-1.323.722-3.131.32-1.962.082-2.256-.034-2.362C1919.006,2360.268,1917.849,2360.576,1916.654,2361.306Z" transform="translate(-1913.234 -2350.209)" fill="url(#linear-gradient-7)"/>
      <path id="Path_5821" data-name="Path 5821" d="M1930.317,2360.733c-.47-.432-1.545-.17-2.68.489,1.306,1.411,1.448,2.326,1.292,2.92-.177.671-.715.865-.713,1.6,0,.9.817,1.141.8,2.1-.011.631-.369.625-.454,1.4-.1.922.367,1.24.216,1.923a1.847,1.847,0,0,1-.78,1.073c.038.28.077.558.118.83.1,0,.214,0,.329,0,.078,0,.153-.006.225-.011a14.238,14.238,0,0,0,.473-1.511,14.582,14.582,0,0,0,.33-1.77c.246-1.94-.042-2.109.157-3.547.177-1.273.428-1.323.722-3.131C1930.671,2361.133,1930.433,2360.839,1930.317,2360.733Z" transform="translate(-1924.052 -2350.221)" opacity="0.3" fill="url(#linear-gradient-7)" style="mix-blend-mode: multiply;isolation: isolate"/>
      <path id="Path_5822" data-name="Path 5822" d="M1960.9,2352.089a38.451,38.451,0,0,1,5.273,11.286.687.687,0,0,0,.376.058.7.7,0,0,0,.426-.23,11.074,11.074,0,0,0,.1-2.731,9.409,9.409,0,0,0-.384-2.053c-.311-1-.524-1.058-.929-2.117-.42-1.1-.319-1.374-.721-2.75a18.129,18.129,0,0,0-.9-2.413Z" transform="translate(-1956.672 -2341.021)" fill="url(#linear-gradient-7)"/>
      <path id="Path_5823" data-name="Path 5823" d="M1895.719,1832.339c-1.031-1-1.568-1.048-1.761-1.767a1.907,1.907,0,0,1,.757-2.088c.838-.459,1.643.053,2.277.605a3.47,3.47,0,0,0,2.355,1.144,19.223,19.223,0,0,1,2.59-.014,2.82,2.82,0,0,1,.717.2c.937.411.676,1.84,1.629,2.167.637.219.944-.354,1.842-.311a3.2,3.2,0,0,1,2.459,1.773,4.016,4.016,0,0,1-.967,4.456c-.823.83-2.35,1.64-3.345,1.139-.786-.4-.825-1.4-1.565-1.485-.526-.059-.666.431-1.331.537-1.092.174-2.116-.925-2.395-1.224-.8-.854-.547-1.213-1.464-2.758A10.688,10.688,0,0,0,1895.719,1832.339Z" transform="translate(-1890.963 -1828.306)" fill="url(#linear-gradient-10)"/>
      <path id="Path_5824" data-name="Path 5824" d="M1743.581,1955.936c-.87.957-1.514,2.548-1,3.112a1.047,1.047,0,0,0,.674.256c.923.114,1.362-.565,1.723-.389.464.227.189,1.624.082,2.689-.189,1.879-.692,2.209-.357,2.856.435.841,1.67,1.018,2,1.066,1.141.164,1.333-.367,2.582-.3,1.427.071,1.559.782,2.6.592.955-.174,1.34-.857,2.047-.635.442.139.528.48.957.488a1.022,1.022,0,0,0,.983-.712c.087-.479-.442-1.149-1.367-1.245a2.934,2.934,0,0,1-1.668-.057c-1.084-.386-1.565-1.39-2.1-2.506a7.312,7.312,0,0,1-.88-3.941c.07-.722.228-.919.071-1.325a3.715,3.715,0,0,0-3.219-1.388A4.639,4.639,0,0,0,1743.581,1955.936Z" transform="translate(-1742.398 -1952.048)" fill="url(#linear-gradient-11)"/>
      <g id="Group_3881" data-name="Group 3881" transform="translate(0.245 5.025)">
        <path id="Path_5825" data-name="Path 5825" d="M1755.757,2091.022l3.1.44a.085.085,0,0,1,.07.063l1.05,4.218c.015.06-.066.2-.127.187l-3.034-.734a.084.084,0,0,1-.064-.06l-1.137-3.953C1755.6,2091.125,1755.7,2091.014,1755.757,2091.022Z" transform="translate(-1755.602 -2090.963)" fill="url(#linear-gradient-12)"/>
        <path id="Path_5826" data-name="Path 5826" d="M1755.137,2095.891l3.1.44a.084.084,0,0,1,.07.063l1.05,4.218a.084.084,0,0,1-.1.1l-3.062-.65a.085.085,0,0,1-.064-.061l-1.088-4.008A.084.084,0,0,1,1755.137,2095.891Z" transform="translate(-1755.041 -2095.737)" fill="url(#linear-gradient-13)"/>
        <path id="Path_5827" data-name="Path 5827" d="M1798.725,2088.356l-.087-.336a.045.045,0,0,1,.048-.056l1.133.116a.045.045,0,0,1,.04.036l.077.371a.045.045,0,0,1-.05.054l-1.123-.15A.045.045,0,0,1,1798.725,2088.356Z" transform="translate(-1797.793 -2087.964)" fill="url(#linear-gradient-14)"/>
        <path id="Path_5828" data-name="Path 5828" d="M1757.559,2099.547c-.135-.677.241-1.069-.046-1.614-.407-.77-1.47-.571-1.731-1.185a.929.929,0,0,1,.066-.756l-.711-.1a.085.085,0,0,0-.093.106l1.088,4.008a.084.084,0,0,0,.064.06l1.861.4A1.862,1.862,0,0,1,1757.559,2099.547Z" transform="translate(-1755.041 -2095.738)" opacity="0.3" fill="url(#linear-gradient-15)" style="mix-blend-mode: multiply;isolation: isolate"/>
      </g>
      <path id="Path_5829" data-name="Path 5829" d="M1918.952,2239.742a2.776,2.776,0,0,1-.63-.274,1.141,1.141,0,0,0-.612-.353c-.268-.017-.552.091-.431.135s.326.313.493.427a1.714,1.714,0,0,0,.644.167,1.519,1.519,0,0,1,.354.211Z" transform="translate(-1913.866 -2231.162)" fill="url(#linear-gradient-16)"/>
      <path id="Path_5830" data-name="Path 5830" d="M1865.636,2024.836a2.936,2.936,0,0,1-1.668-.057c-1.084-.386-1.565-1.391-2.1-2.506a7.313,7.313,0,0,1-.88-3.941c.07-.722.228-.919.071-1.325a1.325,1.325,0,0,0-.09-.184,1.518,1.518,0,0,0-.825.87c-.206.688.366,1.327-.024,1.9-.374.548-1.135.308-1.348.788-.23.519.6.93.551,1.763-.056,1-1.3,1.364-1.16,2.05.123.6,1.128.656,1.1.965-.038.367-1.514.814-2.681.237a2.544,2.544,0,0,1-.8-.635,1.047,1.047,0,0,0,.054.826c.435.841,1.67,1.018,2,1.066,1.141.164,1.333-.367,2.582-.3,1.427.071,1.559.782,2.6.591.955-.174,1.34-.857,2.047-.635.442.139.528.48.957.488a1.023,1.023,0,0,0,.983-.712C1867.09,2025.6,1866.562,2024.932,1865.636,2024.836Z" transform="translate(-1853.521 -2013.175)" opacity="0.3" fill="url(#linear-gradient-17)" style="mix-blend-mode: multiply;isolation: isolate"/>
      <path id="Path_5831" data-name="Path 5831" d="M1979.6,1969.172l-.513.727c.212.132,2.482,1.505,4.325.565a2.758,2.758,0,0,0,1.213-1.113,3.007,3.007,0,0,0,.231-2.005,4.392,4.392,0,0,0-2.084-3.171,7.665,7.665,0,0,0-1.5-.536,3.951,3.951,0,0,0-1.139-.222c-.01.032.146.09.252.165.648.459-.39,1.976.34,2.829.7.817,1.715.8,1.809,1.483a1.006,1.006,0,0,1-.223.7A2.561,2.561,0,0,1,1979.6,1969.172Z" transform="translate(-1948.329 -1960.789)" fill="url(#linear-gradient-18)"/>
      <path id="Path_5832" data-name="Path 5832" d="M1882.539,1893.6s.2.843.533,1.006.873.365.936.428a5.6,5.6,0,0,1-2.972.093c.321-.1.407-.138.407-.138a1.871,1.871,0,0,0,.4-.211,1.445,1.445,0,0,0,.418-.478l-.053-.473Z" transform="translate(-1878.353 -1892.337)" fill="url(#linear-gradient-19)"/>
      <path id="Path_5833" data-name="Path 5833" d="M1927.338,1870.738a.476.476,0,0,1-.511.22c-.3-.075-.206-.839.014-.948a.407.407,0,0,1,.315.01.451.451,0,0,1,.194.49c.071-.029.137-.016.157.018s-.03.113-.042.128A.245.245,0,0,1,1927.338,1870.738Z" transform="translate(-1923.072 -1869.177)" fill="url(#linear-gradient-20)"/>
      <path id="Path_5834" data-name="Path 5834" d="M1765.629,2126.014s-.256-.489,0-.629a1.027,1.027,0,0,1,.673,0,.626.626,0,0,1-.249.226A2.029,2.029,0,0,0,1765.629,2126.014Z" transform="translate(-1765.068 -2119.575)" fill="url(#linear-gradient-21)"/>
    </g>
    <g id="Group_3901" data-name="Group 3901" transform="translate(541.805 973.808)">
      <g id="Group_3884" data-name="Group 3884" transform="translate(2.105 12.477)">
        <path id="Path_5835" data-name="Path 5835" d="M678.074,3097.307v1.679c0,.543,3.39.983,7.572.983s7.572-.44,7.572-.983v-1.679Z" transform="translate(-678.07 -3096.324)" fill="url(#linear-gradient-22)"/>
        <ellipse id="Ellipse_139" data-name="Ellipse 139" cx="7.572" cy="0.983" rx="7.572" ry="0.983" transform="translate(0.004)" fill="url(#linear-gradient-23)"/>
        <path id="Path_5836" data-name="Path 5836" d="M685.422,3093.848c-3.7,0-7.576-.354-7.576-1.036,0-.037.013-.1.051-.1s.021.052.021.089c0,.433,3.082.915,7.5.915s7.5-.482,7.5-.915c0-.037.006-.073.044-.073s.028.05.028.087C693,3093.5,689.125,3093.848,685.422,3093.848Z" transform="translate(-677.846 -3091.816)" fill="url(#linear-gradient-24)"/>
        <g id="Group_3883" data-name="Group 3883" transform="translate(2.806 0.61)">
          <path id="Path_5837" data-name="Path 5837" d="M826.911,3078.5c.074-.052.153-.1.238-.152a1.491,1.491,0,0,1,.325-.135,3.108,3.108,0,0,1,.5-.1,6.348,6.348,0,0,1,.748-.04q.439,0,.824.028a5.577,5.577,0,0,1,.678.09,2.093,2.093,0,0,1,.476.148.376.376,0,0,1,.217.2l.853.009a.823.823,0,0,1,.163.015c.048.01.071.022.071.037v.07l-1.1-.01a.553.553,0,0,1-.294.236,2.983,2.983,0,0,1-.6.186l-.4-.056a.472.472,0,0,1-.088-.021c-.023-.008-.034-.018-.034-.028s.031-.029.093-.046.131-.039.209-.064a2.125,2.125,0,0,0,.229-.091.309.309,0,0,0,.15-.125l-2.587-.025a2.5,2.5,0,0,1-.228.147,1.5,1.5,0,0,1-.336.13,3.521,3.521,0,0,1-.521.094,7.3,7.3,0,0,1-.785.039c-.237,0-.468-.008-.694-.027a4.778,4.778,0,0,1-.6-.086,1.885,1.885,0,0,1-.432-.142c-.112-.056-.175-.121-.188-.194l-.7-.007a.936.936,0,0,1-.166-.015c-.048-.01-.073-.022-.073-.038v-.07l.96.009a.516.516,0,0,1,.262-.193,3,3,0,0,1,.487-.146l.321.044c.1.014.146.03.146.048s-.02.022-.06.037l-.144.053a1.326,1.326,0,0,0-.16.072.341.341,0,0,0-.117.094Zm-2.367.1a.253.253,0,0,0,.127.119,1.014,1.014,0,0,0,.244.082,2.488,2.488,0,0,0,.329.047q.183.015.383.014a4.029,4.029,0,0,0,.407-.02,2.4,2.4,0,0,0,.3-.052,1.387,1.387,0,0,0,.229-.075,1.27,1.27,0,0,0,.175-.094Zm5.632-.063a.264.264,0,0,0-.139-.123,1.243,1.243,0,0,0-.28-.088,3.117,3.117,0,0,0-.4-.053q-.226-.018-.5-.016a3.815,3.815,0,0,0-.419.022,2.152,2.152,0,0,0-.3.055,1.116,1.116,0,0,0-.219.081,1.57,1.57,0,0,0-.168.1Z" transform="translate(-822.857 -3078.072)" fill="#fcb048"/>
        </g>
        <path id="Path_5838" data-name="Path 5838" d="M691.681,3052.03c-3.376,0-6.891.3-7.454.872a.682.682,0,0,1,.061.065c.474-.4,3.377-.8,7.392-.8,4.119,0,7.068.423,7.425.832a.7.7,0,0,1,.057-.064C698.7,3052.338,695.117,3052.03,691.681,3052.03Z" transform="translate(-684.104 -3051.924)" fill="url(#linear-gradient-25)"/>
      </g>
      <g id="Group_3886" data-name="Group 3886" transform="translate(0 10.713)">
        <path id="Path_5839" data-name="Path 5839" d="M569.31,3006.156v1.679c0,.543,3.39.983,7.572.983s7.572-.44,7.572-.983v-1.679Z" transform="translate(-569.306 -3005.173)" fill="url(#linear-gradient-22)"/>
        <ellipse id="Ellipse_140" data-name="Ellipse 140" cx="7.572" cy="0.983" rx="7.572" ry="0.983" transform="translate(0.004)" fill="url(#linear-gradient-23)"/>
        <path id="Path_5840" data-name="Path 5840" d="M576.658,3002.7c-3.7,0-7.576-.354-7.576-1.036,0-.038.013-.1.051-.1s.021.052.021.089c0,.433,3.082.915,7.5.915s7.5-.482,7.5-.915c0-.037.006-.073.044-.073s.028.05.028.087C584.234,3002.345,580.361,3002.7,576.658,3002.7Z" transform="translate(-569.082 -3000.666)" fill="url(#linear-gradient-24)"/>
        <g id="Group_3885" data-name="Group 3885" transform="translate(2.806 0.61)">
          <path id="Path_5841" data-name="Path 5841" d="M718.147,2987.348q.111-.077.238-.152a1.505,1.505,0,0,1,.325-.136,3.113,3.113,0,0,1,.5-.1,6.294,6.294,0,0,1,.748-.04q.439,0,.824.028a5.626,5.626,0,0,1,.678.09,2.091,2.091,0,0,1,.476.148.376.376,0,0,1,.217.2l.853.009a.826.826,0,0,1,.164.015c.048.01.071.022.071.037v.07l-1.1-.01a.551.551,0,0,1-.294.236,2.969,2.969,0,0,1-.6.186l-.4-.056a.455.455,0,0,1-.088-.021c-.023-.008-.034-.018-.034-.027s.031-.029.093-.046.131-.039.209-.064a2.123,2.123,0,0,0,.229-.09.312.312,0,0,0,.15-.125l-2.587-.026a2.452,2.452,0,0,1-.228.147,1.5,1.5,0,0,1-.336.13,3.523,3.523,0,0,1-.521.094,7.308,7.308,0,0,1-.785.038c-.237,0-.468-.008-.694-.027a4.689,4.689,0,0,1-.6-.086,1.875,1.875,0,0,1-.432-.141c-.112-.056-.175-.121-.188-.194l-.7-.007a.936.936,0,0,1-.166-.015c-.048-.009-.073-.022-.073-.037v-.07l.96.009a.516.516,0,0,1,.262-.193,3,3,0,0,1,.487-.146l.321.044c.1.014.146.03.146.048s-.02.022-.06.037l-.144.053a1.283,1.283,0,0,0-.16.072.338.338,0,0,0-.117.094Zm-2.368.1a.254.254,0,0,0,.127.119,1.014,1.014,0,0,0,.244.083,2.572,2.572,0,0,0,.329.047q.183.015.383.014a3.959,3.959,0,0,0,.407-.02,2.358,2.358,0,0,0,.3-.052,1.437,1.437,0,0,0,.229-.075,1.3,1.3,0,0,0,.175-.094Zm5.632-.063a.263.263,0,0,0-.139-.123,1.267,1.267,0,0,0-.28-.088,3.113,3.113,0,0,0-.4-.053q-.226-.017-.5-.016a3.939,3.939,0,0,0-.419.022,2.153,2.153,0,0,0-.3.055,1.1,1.1,0,0,0-.218.081,1.5,1.5,0,0,0-.168.1Z" transform="translate(-714.093 -2986.921)" fill="#fcb048"/>
        </g>
        <path id="Path_5842" data-name="Path 5842" d="M582.918,2960.878c-3.376,0-6.891.3-7.454.872a.674.674,0,0,1,.061.065c.474-.4,3.377-.8,7.392-.8,4.119,0,7.068.423,7.425.832a.687.687,0,0,1,.057-.064C589.935,2961.186,586.354,2960.878,582.918,2960.878Z" transform="translate(-575.341 -2960.772)" fill="url(#linear-gradient-29)"/>
      </g>
      <g id="Group_3888" data-name="Group 3888" transform="translate(1.816 8.954)">
        <path id="Path_5843" data-name="Path 5843" d="M663.159,2915.272v1.679c0,.543,3.39.982,7.572.982s7.572-.44,7.572-.982v-1.679Z" transform="translate(-663.155 -2914.289)" fill="url(#linear-gradient-22)"/>
        <ellipse id="Ellipse_141" data-name="Ellipse 141" cx="7.572" cy="0.983" rx="7.572" ry="0.983" transform="translate(0.004)" fill="url(#linear-gradient-23)"/>
        <path id="Path_5844" data-name="Path 5844" d="M670.506,2911.813c-3.7,0-7.576-.354-7.576-1.036,0-.038.013-.1.051-.1s.021.052.021.089c0,.433,3.082.915,7.5.915s7.5-.482,7.5-.915c0-.038.006-.073.044-.073s.029.05.029.087C678.082,2911.46,674.209,2911.813,670.506,2911.813Z" transform="translate(-662.93 -2909.781)" fill="url(#linear-gradient-24)"/>
        <g id="Group_3887" data-name="Group 3887" transform="translate(2.806 0.61)">
          <path id="Path_5845" data-name="Path 5845" d="M812,2896.463c.074-.052.153-.1.238-.152a1.5,1.5,0,0,1,.325-.135,3.108,3.108,0,0,1,.5-.1,6.3,6.3,0,0,1,.748-.04q.439,0,.824.028a5.626,5.626,0,0,1,.678.09,2.092,2.092,0,0,1,.476.148.376.376,0,0,1,.218.2l.853.009a.845.845,0,0,1,.163.015c.048.01.071.022.071.037v.07l-1.1-.011a.552.552,0,0,1-.294.236,2.985,2.985,0,0,1-.6.186l-.4-.056a.455.455,0,0,1-.088-.021c-.023-.008-.034-.017-.034-.028s.031-.029.093-.046.131-.039.209-.064a2.119,2.119,0,0,0,.229-.09.312.312,0,0,0,.15-.125l-2.587-.026a2.506,2.506,0,0,1-.229.147,1.483,1.483,0,0,1-.336.13,3.52,3.52,0,0,1-.521.094,7.369,7.369,0,0,1-.785.038c-.237,0-.468-.008-.694-.027a4.733,4.733,0,0,1-.6-.086,1.871,1.871,0,0,1-.432-.141c-.112-.056-.175-.121-.188-.194l-.7-.007a.934.934,0,0,1-.166-.015c-.048-.009-.073-.022-.073-.038v-.07l.96.009a.517.517,0,0,1,.262-.193,3,3,0,0,1,.487-.146l.321.044c.1.014.146.03.146.048s-.02.022-.06.037l-.144.053a1.323,1.323,0,0,0-.16.072.338.338,0,0,0-.117.094Zm-2.368.1a.256.256,0,0,0,.127.119,1.026,1.026,0,0,0,.244.082,2.488,2.488,0,0,0,.328.047q.183.015.383.014a4.03,4.03,0,0,0,.407-.02,2.316,2.316,0,0,0,.3-.052,1.414,1.414,0,0,0,.229-.075,1.308,1.308,0,0,0,.175-.094Zm5.632-.063a.264.264,0,0,0-.139-.123,1.255,1.255,0,0,0-.28-.088,3.116,3.116,0,0,0-.4-.053q-.226-.017-.5-.016a3.818,3.818,0,0,0-.419.022,2.153,2.153,0,0,0-.3.055,1.083,1.083,0,0,0-.219.081,1.5,1.5,0,0,0-.168.1Z" transform="translate(-807.941 -2896.036)" fill="#fcb048"/>
        </g>
        <path id="Path_5846" data-name="Path 5846" d="M676.766,2870c-3.376,0-6.891.3-7.454.872a.682.682,0,0,1,.061.065c.474-.4,3.377-.8,7.392-.8,4.119,0,7.068.423,7.425.832a.665.665,0,0,1,.057-.064C683.783,2870.3,680.2,2870,676.766,2870Z" transform="translate(-669.189 -2869.889)" fill="url(#linear-gradient-33)"/>
      </g>
      <g id="Group_3890" data-name="Group 3890" transform="translate(2.918 7.19)">
        <path id="Path_5847" data-name="Path 5847" d="M720.108,2824.121v1.679c0,.543,3.39.983,7.572.983s7.572-.44,7.572-.983v-1.679Z" transform="translate(-720.104 -2823.138)" fill="url(#linear-gradient-22)"/>
        <ellipse id="Ellipse_142" data-name="Ellipse 142" cx="7.572" cy="0.983" rx="7.572" ry="0.983" transform="translate(0.004)" fill="url(#linear-gradient-23)"/>
        <path id="Path_5848" data-name="Path 5848" d="M727.456,2820.662c-3.7,0-7.576-.354-7.576-1.036,0-.038.013-.1.051-.1s.021.052.021.089c0,.433,3.082.915,7.5.915s7.5-.482,7.5-.915c0-.038.006-.073.044-.073s.029.05.029.087C735.032,2820.309,731.159,2820.662,727.456,2820.662Z" transform="translate(-719.88 -2818.629)" fill="url(#linear-gradient-24)"/>
        <g id="Group_3889" data-name="Group 3889" transform="translate(2.806 0.61)">
          <path id="Path_5849" data-name="Path 5849" d="M868.945,2805.312c.074-.051.153-.1.238-.152a1.5,1.5,0,0,1,.325-.136,3.113,3.113,0,0,1,.5-.1,6.347,6.347,0,0,1,.748-.04q.439,0,.824.028a5.62,5.62,0,0,1,.678.09,2.093,2.093,0,0,1,.476.147.377.377,0,0,1,.217.2l.853.009a.845.845,0,0,1,.164.015c.048.01.071.022.071.037v.07l-1.1-.01a.552.552,0,0,1-.294.236,2.966,2.966,0,0,1-.6.185l-.4-.055a.471.471,0,0,1-.088-.021c-.023-.009-.034-.018-.034-.028s.031-.029.093-.046.131-.039.209-.064a2.069,2.069,0,0,0,.229-.09.311.311,0,0,0,.15-.125l-2.587-.026a2.4,2.4,0,0,1-.228.147,1.485,1.485,0,0,1-.336.13,3.491,3.491,0,0,1-.521.094,7.361,7.361,0,0,1-.785.039c-.237,0-.468-.008-.694-.027a4.689,4.689,0,0,1-.6-.086,1.875,1.875,0,0,1-.432-.141c-.112-.056-.175-.121-.188-.194l-.7-.007a.913.913,0,0,1-.166-.015c-.048-.009-.073-.022-.073-.037v-.07l.96.009a.516.516,0,0,1,.262-.193,3.029,3.029,0,0,1,.487-.147l.321.044c.1.014.146.03.146.048s-.02.022-.06.037l-.144.053a1.278,1.278,0,0,0-.16.072.338.338,0,0,0-.117.094Zm-2.368.1a.255.255,0,0,0,.128.119,1.026,1.026,0,0,0,.244.082,2.485,2.485,0,0,0,.328.047q.183.015.383.014a3.889,3.889,0,0,0,.407-.02,2.362,2.362,0,0,0,.3-.052,1.431,1.431,0,0,0,.229-.075,1.266,1.266,0,0,0,.175-.094Zm5.632-.063a.265.265,0,0,0-.139-.123,1.264,1.264,0,0,0-.28-.088,3.076,3.076,0,0,0-.4-.053q-.226-.018-.5-.016a3.941,3.941,0,0,0-.419.022,2.15,2.15,0,0,0-.3.055,1.1,1.1,0,0,0-.219.081,1.494,1.494,0,0,0-.168.1Z" transform="translate(-864.891 -2804.885)" fill="#fcb048"/>
        </g>
        <path id="Path_5850" data-name="Path 5850" d="M733.715,2778.843c-3.376,0-6.891.3-7.454.872a.654.654,0,0,1,.061.065c.474-.4,3.377-.8,7.392-.8,4.119,0,7.068.423,7.425.832a.717.717,0,0,1,.057-.064C740.732,2779.151,737.151,2778.843,733.715,2778.843Z" transform="translate(-726.138 -2778.737)" fill="url(#linear-gradient-37)"/>
      </g>
      <g id="Group_3892" data-name="Group 3892" transform="translate(2.105 5.287)">
        <path id="Path_5851" data-name="Path 5851" d="M678.074,2725.779v1.679c0,.543,3.39.982,7.572.982s7.572-.44,7.572-.982v-1.679Z" transform="translate(-678.07 -2724.796)" fill="url(#linear-gradient-22)"/>
        <ellipse id="Ellipse_143" data-name="Ellipse 143" cx="7.572" cy="0.983" rx="7.572" ry="0.983" transform="translate(0.004)" fill="url(#linear-gradient-23)"/>
        <path id="Path_5852" data-name="Path 5852" d="M685.422,2722.32c-3.7,0-7.576-.354-7.576-1.036,0-.037.013-.1.051-.1s.021.052.021.089c0,.433,3.082.915,7.5.915s7.5-.482,7.5-.915c0-.038.006-.073.044-.073s.028.05.028.087C693,2721.967,689.125,2722.32,685.422,2722.32Z" transform="translate(-677.846 -2720.287)" fill="url(#linear-gradient-24)"/>
        <g id="Group_3891" data-name="Group 3891" transform="translate(2.806 0.61)">
          <path id="Path_5853" data-name="Path 5853" d="M826.911,2706.969c.074-.051.153-.1.238-.152a1.491,1.491,0,0,1,.325-.135,3.111,3.111,0,0,1,.5-.1,6.289,6.289,0,0,1,.748-.041q.439,0,.824.028a5.622,5.622,0,0,1,.678.09,2.106,2.106,0,0,1,.476.147.377.377,0,0,1,.217.2l.853.009a.863.863,0,0,1,.163.015c.048.01.071.022.071.037v.07l-1.1-.011a.553.553,0,0,1-.294.236,3,3,0,0,1-.6.186l-.4-.056a.452.452,0,0,1-.088-.021c-.023-.008-.034-.017-.034-.027s.031-.029.093-.046.131-.039.209-.064a2.124,2.124,0,0,0,.229-.09.31.31,0,0,0,.15-.125l-2.587-.026a2.453,2.453,0,0,1-.228.147,1.484,1.484,0,0,1-.336.13,3.515,3.515,0,0,1-.521.094,7.436,7.436,0,0,1-.785.038c-.237,0-.468-.008-.694-.027a4.737,4.737,0,0,1-.6-.086,1.874,1.874,0,0,1-.432-.141c-.112-.056-.175-.121-.188-.194l-.7-.007a.892.892,0,0,1-.166-.015c-.048-.009-.073-.022-.073-.037v-.07l.96.009a.516.516,0,0,1,.262-.193,3,3,0,0,1,.487-.146l.321.044c.1.014.146.03.146.048s-.02.022-.06.037l-.144.053a1.328,1.328,0,0,0-.16.072.341.341,0,0,0-.117.094Zm-2.367.1a.255.255,0,0,0,.127.119,1.014,1.014,0,0,0,.244.082,2.45,2.45,0,0,0,.329.047q.183.015.383.014a4.022,4.022,0,0,0,.407-.02,2.276,2.276,0,0,0,.3-.052,1.434,1.434,0,0,0,.229-.075,1.27,1.27,0,0,0,.175-.094Zm5.632-.063a.263.263,0,0,0-.139-.123,1.254,1.254,0,0,0-.28-.089,3.12,3.12,0,0,0-.4-.053q-.226-.018-.5-.016a3.815,3.815,0,0,0-.419.022,2.152,2.152,0,0,0-.3.055,1.116,1.116,0,0,0-.219.081,1.613,1.613,0,0,0-.168.1Z" transform="translate(-822.857 -2706.542)" fill="#fcb048"/>
        </g>
        <path id="Path_5854" data-name="Path 5854" d="M691.681,2680.5c-3.376,0-6.891.3-7.454.872a.713.713,0,0,1,.061.065c.474-.4,3.377-.8,7.392-.8,4.119,0,7.068.423,7.425.832a.665.665,0,0,1,.057-.064C698.7,2680.809,695.117,2680.5,691.681,2680.5Z" transform="translate(-684.104 -2680.395)" fill="url(#linear-gradient-41)"/>
      </g>
      <g id="Group_3894" data-name="Group 3894" transform="translate(0 3.523)">
        <path id="Path_5855" data-name="Path 5855" d="M569.31,2634.628v1.679c0,.543,3.39.983,7.572.983s7.572-.44,7.572-.983v-1.679Z" transform="translate(-569.306 -2633.645)" fill="url(#linear-gradient-22)"/>
        <ellipse id="Ellipse_144" data-name="Ellipse 144" cx="7.572" cy="0.983" rx="7.572" ry="0.983" transform="translate(0.004)" fill="url(#linear-gradient-23)"/>
        <path id="Path_5856" data-name="Path 5856" d="M576.658,2631.168c-3.7,0-7.576-.354-7.576-1.036,0-.038.013-.1.051-.1s.021.052.021.089c0,.433,3.082.915,7.5.915s7.5-.482,7.5-.915c0-.038.006-.073.044-.073s.028.05.028.088C584.234,2630.815,580.361,2631.168,576.658,2631.168Z" transform="translate(-569.082 -2629.135)" fill="url(#linear-gradient-24)"/>
        <g id="Group_3893" data-name="Group 3893" transform="translate(2.806 0.61)">
          <path id="Path_5857" data-name="Path 5857" d="M718.147,2615.818q.111-.077.238-.152a1.505,1.505,0,0,1,.325-.136,3.113,3.113,0,0,1,.5-.1,6.294,6.294,0,0,1,.748-.04q.439,0,.824.028a5.672,5.672,0,0,1,.678.09,2.1,2.1,0,0,1,.476.148.377.377,0,0,1,.217.2l.853.009a.845.845,0,0,1,.164.015c.048.01.071.022.071.037v.07l-1.1-.01a.552.552,0,0,1-.294.236,2.986,2.986,0,0,1-.6.185l-.4-.055a.453.453,0,0,1-.088-.021c-.023-.008-.034-.017-.034-.027s.031-.029.093-.046.131-.039.209-.064a2.126,2.126,0,0,0,.229-.091.31.31,0,0,0,.15-.125l-2.587-.026a2.356,2.356,0,0,1-.228.147,1.473,1.473,0,0,1-.336.13,3.457,3.457,0,0,1-.521.094,7.5,7.5,0,0,1-.785.039c-.237,0-.468-.008-.694-.027a4.73,4.73,0,0,1-.6-.086,1.875,1.875,0,0,1-.432-.141c-.112-.056-.175-.121-.188-.194l-.7-.007a.913.913,0,0,1-.166-.015c-.048-.01-.073-.022-.073-.037v-.07l.96.009a.515.515,0,0,1,.262-.193,3.047,3.047,0,0,1,.487-.146l.321.044c.1.014.146.03.146.048s-.02.022-.06.037l-.144.053a1.283,1.283,0,0,0-.16.072.341.341,0,0,0-.117.093Zm-2.368.1a.254.254,0,0,0,.127.119,1.014,1.014,0,0,0,.244.083,2.529,2.529,0,0,0,.329.047c.122.01.25.015.383.014a4.03,4.03,0,0,0,.407-.02,2.358,2.358,0,0,0,.3-.052,1.389,1.389,0,0,0,.229-.076,1.243,1.243,0,0,0,.175-.093Zm5.632-.063a.265.265,0,0,0-.139-.123,1.242,1.242,0,0,0-.28-.088,3.066,3.066,0,0,0-.4-.054q-.226-.017-.5-.016a3.939,3.939,0,0,0-.419.022,2.116,2.116,0,0,0-.3.055,1.1,1.1,0,0,0-.218.081,1.577,1.577,0,0,0-.168.1Z" transform="translate(-714.093 -2615.391)" fill="#fcb048"/>
        </g>
        <path id="Path_5858" data-name="Path 5858" d="M582.918,2589.35c-3.376,0-6.891.3-7.454.872a.677.677,0,0,1,.061.065c.474-.4,3.377-.8,7.392-.8,4.119,0,7.068.423,7.425.832a.687.687,0,0,1,.057-.064C589.935,2589.658,586.354,2589.35,582.918,2589.35Z" transform="translate(-575.341 -2589.244)" fill="url(#linear-gradient-45)"/>
      </g>
      <g id="Group_3896" data-name="Group 3896" transform="translate(1.816 1.764)">
        <path id="Path_5859" data-name="Path 5859" d="M663.159,2543.743v1.679c0,.542,3.39.982,7.572.982s7.572-.44,7.572-.982v-1.679Z" transform="translate(-663.155 -2542.76)" fill="url(#linear-gradient-22)"/>
        <ellipse id="Ellipse_145" data-name="Ellipse 145" cx="7.572" cy="0.983" rx="7.572" ry="0.983" transform="translate(0.004)" fill="url(#linear-gradient-23)"/>
        <path id="Path_5860" data-name="Path 5860" d="M670.506,2540.284c-3.7,0-7.576-.354-7.576-1.036,0-.037.013-.1.051-.1s.021.052.021.089c0,.433,3.082.915,7.5.915s7.5-.482,7.5-.915c0-.037.006-.073.044-.073s.029.05.029.087C678.082,2539.931,674.209,2540.284,670.506,2540.284Z" transform="translate(-662.93 -2538.251)" fill="url(#linear-gradient-24)"/>
        <g id="Group_3895" data-name="Group 3895" transform="translate(2.806 0.61)">
          <path id="Path_5861" data-name="Path 5861" d="M812,2524.935q.111-.077.238-.152a1.491,1.491,0,0,1,.325-.136,3.108,3.108,0,0,1,.5-.1,6.3,6.3,0,0,1,.748-.04q.439,0,.824.028a5.622,5.622,0,0,1,.678.09,2.081,2.081,0,0,1,.476.147.377.377,0,0,1,.218.2l.853.009a.825.825,0,0,1,.163.015c.048.01.071.022.071.037v.07l-1.1-.011a.55.55,0,0,1-.294.236,2.969,2.969,0,0,1-.6.186l-.4-.055a.494.494,0,0,1-.088-.021c-.023-.009-.034-.018-.034-.028s.031-.029.093-.046.131-.039.209-.064a2.17,2.17,0,0,0,.229-.09.312.312,0,0,0,.15-.125l-2.587-.026a2.455,2.455,0,0,1-.229.147,1.483,1.483,0,0,1-.336.13,3.52,3.52,0,0,1-.521.094,7.3,7.3,0,0,1-.785.038c-.237,0-.468-.008-.694-.027a4.733,4.733,0,0,1-.6-.086,1.871,1.871,0,0,1-.432-.141c-.112-.056-.175-.121-.188-.194l-.7-.007a.912.912,0,0,1-.166-.015c-.048-.009-.073-.022-.073-.037v-.07l.96.009a.515.515,0,0,1,.262-.193,3,3,0,0,1,.487-.147l.321.044c.1.014.146.03.146.048s-.02.022-.06.037l-.144.053a1.321,1.321,0,0,0-.16.072.34.34,0,0,0-.117.094Zm-2.368.1a.253.253,0,0,0,.127.119,1.014,1.014,0,0,0,.244.083,2.53,2.53,0,0,0,.328.047q.183.015.383.014a3.959,3.959,0,0,0,.407-.02,2.36,2.36,0,0,0,.3-.052,1.412,1.412,0,0,0,.229-.076,1.28,1.28,0,0,0,.175-.093Zm5.632-.063a.265.265,0,0,0-.139-.123,1.267,1.267,0,0,0-.28-.088,3.076,3.076,0,0,0-.4-.053q-.226-.018-.5-.016a3.88,3.88,0,0,0-.419.022,2.153,2.153,0,0,0-.3.055,1.1,1.1,0,0,0-.219.081,1.5,1.5,0,0,0-.168.1Z" transform="translate(-807.941 -2524.508)" fill="#fcb048"/>
        </g>
        <path id="Path_5862" data-name="Path 5862" d="M676.766,2498.466c-3.376,0-6.891.3-7.454.872a.628.628,0,0,1,.061.065c.474-.4,3.377-.8,7.392-.8,4.119,0,7.068.423,7.425.832a.726.726,0,0,1,.057-.064C683.783,2498.774,680.2,2498.466,676.766,2498.466Z" transform="translate(-669.189 -2498.36)" fill="url(#linear-gradient-49)"/>
      </g>
      <g id="Group_3898" data-name="Group 3898" transform="translate(0.872 0)">
        <path id="Path_5863" data-name="Path 5863" d="M614.344,2452.592v1.679c0,.543,3.39.983,7.572.983s7.572-.44,7.572-.983v-1.679Z" transform="translate(-614.34 -2451.609)" fill="url(#linear-gradient-22)"/>
        <ellipse id="Ellipse_146" data-name="Ellipse 146" cx="7.572" cy="0.983" rx="7.572" ry="0.983" transform="translate(0.004)" fill="url(#linear-gradient-23)"/>
        <path id="Path_5864" data-name="Path 5864" d="M621.692,2449.132c-3.7,0-7.576-.354-7.576-1.036,0-.038.013-.1.051-.1s.021.052.021.089c0,.433,3.082.915,7.5.915s7.5-.482,7.5-.915c0-.038.006-.073.044-.073s.028.05.028.088C629.268,2448.779,625.4,2449.132,621.692,2449.132Z" transform="translate(-614.116 -2447.099)" fill="url(#linear-gradient-24)"/>
        <g id="Group_3897" data-name="Group 3897" transform="translate(2.806 0.61)">
          <path id="Path_5865" data-name="Path 5865" d="M763.181,2433.784c.074-.051.153-.1.238-.152a1.491,1.491,0,0,1,.325-.135,3.079,3.079,0,0,1,.5-.1,6.347,6.347,0,0,1,.748-.04q.439,0,.824.028a5.62,5.62,0,0,1,.678.09,2.079,2.079,0,0,1,.476.148.377.377,0,0,1,.218.2l.853.009a.844.844,0,0,1,.163.015c.048.01.071.022.071.037v.07l-1.1-.01a.552.552,0,0,1-.294.236,3,3,0,0,1-.6.186l-.4-.056a.471.471,0,0,1-.088-.021c-.023-.008-.034-.018-.034-.028s.031-.029.093-.046.131-.039.209-.064a2.069,2.069,0,0,0,.229-.09.309.309,0,0,0,.15-.125l-2.587-.026a2.388,2.388,0,0,1-.228.147,1.483,1.483,0,0,1-.336.13,3.491,3.491,0,0,1-.521.094,7.3,7.3,0,0,1-.785.039c-.237,0-.468-.008-.694-.027a4.741,4.741,0,0,1-.6-.086,1.873,1.873,0,0,1-.432-.142q-.168-.084-.188-.194l-.7-.007a.916.916,0,0,1-.166-.014c-.048-.01-.073-.022-.073-.038v-.07l.96.009a.515.515,0,0,1,.262-.193,3,3,0,0,1,.487-.146l.321.044c.1.014.146.03.146.048s-.02.022-.06.037l-.144.053a1.306,1.306,0,0,0-.16.072.338.338,0,0,0-.117.094Zm-2.367.1a.254.254,0,0,0,.127.119,1,1,0,0,0,.244.083,2.488,2.488,0,0,0,.328.047q.183.015.383.014a3.894,3.894,0,0,0,.407-.02,2.36,2.36,0,0,0,.3-.052,1.407,1.407,0,0,0,.229-.075,1.293,1.293,0,0,0,.175-.093Zm5.632-.063a.263.263,0,0,0-.139-.123,1.242,1.242,0,0,0-.28-.088,3.116,3.116,0,0,0-.4-.053q-.226-.018-.5-.016a3.755,3.755,0,0,0-.419.022,2.153,2.153,0,0,0-.3.055,1.114,1.114,0,0,0-.219.081,1.57,1.57,0,0,0-.168.1Z" transform="translate(-759.127 -2433.357)" fill="#fcb048"/>
        </g>
        <path id="Path_5866" data-name="Path 5866" d="M627.952,2407.314c-3.376,0-6.891.3-7.454.872a.691.691,0,0,1,.062.065c.474-.4,3.377-.8,7.392-.8,4.119,0,7.068.423,7.425.832a.655.655,0,0,1,.057-.064C634.969,2407.622,631.388,2407.314,627.952,2407.314Z" transform="translate(-620.375 -2407.208)" fill="url(#linear-gradient-53)"/>
      </g>
      <g id="Group_3900" data-name="Group 3900" transform="translate(16.731 2.139)">
        <path id="Path_5867" data-name="Path 5867" d="M1435.062,2513.768l-1.369.973c-.442.315,1.164,3.332,3.588,6.74s4.747,5.915,5.189,5.6l1.369-.973Z" transform="translate(-1433.62 -2513.741)" fill="url(#linear-gradient-54)"/>
        <path id="Path_5868" data-name="Path 5868" d="M1513.186,2524.758c-.442.314-2.766-2.193-5.189-5.6s-4.03-6.425-3.588-6.74,2.766,2.193,5.189,5.6S1513.629,2524.444,1513.186,2524.758Z" transform="translate(-1502.967 -2512.391)" fill="url(#linear-gradient-55)"/>
        <path id="Path_5869" data-name="Path 5869" d="M1506.081,2519.16c-2.147-3.018-4.1-6.378-3.547-6.774.031-.022.092-.049.114-.019s-.03.047-.06.069c-.353.251,1.041,3.042,3.6,6.645s4.742,5.835,5.095,5.584c.031-.022.063-.037.085-.006s-.024.052-.055.074C1510.76,2525.129,1508.228,2522.178,1506.081,2519.16Z" transform="translate(-1501.107 -2512.354)" fill="url(#linear-gradient-56)"/>
        <g id="Group_3899" data-name="Group 3899" transform="translate(2.99 2.319)">
          <path id="Path_5870" data-name="Path 5870" d="M1590.511,2635.5c.085.031.172.066.262.106a1.483,1.483,0,0,1,.3.187,3.114,3.114,0,0,1,.37.349,6.4,6.4,0,0,1,.466.586q.256.356.455.688a5.582,5.582,0,0,1,.32.6,2.1,2.1,0,0,1,.155.473.377.377,0,0,1-.038.294l.487.7a.829.829,0,0,1,.083.142c.02.044.023.07.011.079l-.057.041-.627-.9a.55.55,0,0,1-.363-.1,2.933,2.933,0,0,1-.5-.382l-.186-.357a.464.464,0,0,1-.034-.084c-.007-.024-.006-.038,0-.044s.041.008.091.049.108.084.174.133a2.149,2.149,0,0,0,.206.134.312.312,0,0,0,.188.05l-1.479-2.123a2.455,2.455,0,0,1-.253-.1,1.491,1.491,0,0,1-.3-.2,3.52,3.52,0,0,1-.378-.37,7.3,7.3,0,0,1-.486-.617c-.138-.193-.265-.386-.38-.581a4.753,4.753,0,0,1-.279-.541,1.887,1.887,0,0,1-.135-.434.3.3,0,0,1,.049-.266l-.4-.576a.915.915,0,0,1-.084-.143c-.021-.045-.025-.072-.012-.082l.057-.041.549.787a.517.517,0,0,1,.31.1,3.007,3.007,0,0,1,.4.312l.15.287c.045.088.061.136.045.147s-.03,0-.065-.028l-.127-.087a1.334,1.334,0,0,0-.151-.089.338.338,0,0,0-.144-.041Zm-1.45-1.874a.255.255,0,0,0-.023.173,1.022,1.022,0,0,0,.074.247,2.474,2.474,0,0,0,.152.295q.094.158.211.32a4,4,0,0,0,.252.32,2.348,2.348,0,0,0,.219.218,1.388,1.388,0,0,0,.194.143,1.3,1.3,0,0,0,.177.088Zm3.316,4.553a.262.262,0,0,0,.019-.185,1.249,1.249,0,0,0-.09-.28,3.119,3.119,0,0,0-.187-.355q-.117-.194-.276-.417a3.872,3.872,0,0,0-.26-.329,2.162,2.162,0,0,0-.221-.216,1.121,1.121,0,0,0-.193-.131,1.557,1.557,0,0,0-.177-.079Z" transform="translate(-1588.131 -2632.17)" fill="#fcb048"/>
        </g>
        <path id="Path_5871" data-name="Path 5871" d="M1516.021,2524.229c-1.957-2.751-4.236-5.443-5.031-5.568a.671.671,0,0,1-.017.087c.6.155,2.61,2.287,4.938,5.559,2.387,3.356,3.752,6,3.626,6.533a.715.715,0,0,1,.085.009C1519.838,2530.126,1518.013,2527.029,1516.021,2524.229Z" transform="translate(-1509.476 -2518.539)" fill="url(#linear-gradient-57)"/>
      </g>
    </g>
    <g id="Group_3915" data-name="Group 3915" transform="translate(544.991 961.432)">
      <g id="Group_3914" data-name="Group 3914" transform="translate(0 0)">
        <g id="Group_3905" data-name="Group 3905" transform="translate(4.33 10.287)">
          <g id="Group_3902" data-name="Group 3902" transform="translate(12.288 7.955)">
            <path id="Path_5872" data-name="Path 5872" d="M1596.491,2739.484c.007-.21.438-.442.687-.334a.653.653,0,0,1,.175.144,2,2,0,0,1,.275.331c.288.441.953.857.875,1.009-.056.11-.48.05-.8-.115-.262-.133-.259-.231-.69-.575C1596.628,2739.64,1596.488,2739.606,1596.491,2739.484Z" transform="translate(-1596.412 -2738.461)" fill="url(#linear-gradient-58)"/>
            <path id="Path_5873" data-name="Path 5873" d="M1592.4,2705.313l.316.519a.287.287,0,0,0,.318.129.187.187,0,0,0,.111-.279l-.465-.748Z" transform="translate(-1592.399 -2704.934)" fill="url(#linear-gradient-59)"/>
          </g>
          <g id="Group_3904" data-name="Group 3904">
            <path id="Path_5874" data-name="Path 5874" d="M957.852,2294.413c-.985.431-.078,3.155,2.72,3.252a11.732,11.732,0,0,1,9.209,4.784c.2-.089.651-.184.532-.417-1.639-3.2-3.43-5.312-5.161-6.274C962.534,2294.3,960.656,2293.186,957.852,2294.413Z" transform="translate(-957.468 -2293.888)" fill="url(#linear-gradient-60)"/>
            <g id="Group_3903" data-name="Group 3903" transform="translate(0)" opacity="0.3" style="mix-blend-mode: multiply;isolation: isolate">
              <path id="Path_5875" data-name="Path 5875" d="M966.6,2298.2c.369.406.634-.1.978-.375a9.252,9.252,0,0,0-2.421-2.071c-2.618-1.455-4.5-2.572-7.3-1.345-.985.431-.078,3.155,2.72,3.252a12.569,12.569,0,0,1,3.093.513C964.654,2297.921,965.7,2296.946,966.6,2298.2Z" transform="translate(-957.469 -2293.888)" fill="url(#linear-gradient-61)"/>
            </g>
          </g>
        </g>
        <g id="Group_3906" data-name="Group 3906" transform="translate(2.525 10.128)">
          <path id="Path_5876" data-name="Path 5876" d="M865.222,2288.535l-.207-.075s-.687-1.205-.792-1.509c-.127-.371,2.621-.343,3.753-1.087,1.189-.782-.217,1.307-.217,1.307Z" transform="translate(-864.219 -2285.688)" fill="url(#linear-gradient-62)"/>
        </g>
        <g id="Group_3909" data-name="Group 3909" transform="translate(0 2.503)">
          <path id="Path_5877" data-name="Path 5877" d="M1023.327,1927.744s.869.412,1.305,2.495a9.272,9.272,0,0,0,1.606,3.181l-.164,1.1-1.425-.19-.382-.471-.429-3.219Z" transform="translate(-1017.722 -1927.046)" fill="url(#linear-gradient-63)"/>
          <g id="Group_3908" data-name="Group 3908" transform="translate(0.325)">
            <path id="Path_5878" data-name="Path 5878" d="M754.051,1891.674a2.874,2.874,0,0,0-3.192,2.128c-.8,2.364-.232,3.557,1.245,6.207.148.266.492.375.508.412q.132.3.262.615a11.293,11.293,0,0,1,4.776-1.15s-.677-4.687-1.113-6.309A2.528,2.528,0,0,0,754.051,1891.674Z" transform="translate(-750.497 -1891.646)" fill="url(#linear-gradient-64)"/>
            <g id="Group_3907" data-name="Group 3907" transform="translate(0 1.687)" opacity="0.3" style="mix-blend-mode: multiply;isolation: isolate">
              <path id="Path_5879" data-name="Path 5879" d="M755.868,1984.34c-1.106.206-2.427-.275-2.722-1.058a12.235,12.235,0,0,1-.443-1.667,3.17,3.17,0,0,0-.956-1.615,4.2,4.2,0,0,1-.7-1.182,4.2,4.2,0,0,0-.19.469c-.8,2.364-.232,3.557,1.245,6.208.149.266.492.375.508.412q.132.3.262.615a11.293,11.293,0,0,1,4.776-1.15s-.123-.743-.27-1.779A2.668,2.668,0,0,1,755.868,1984.34Z" transform="translate(-750.498 -1978.818)" fill="url(#linear-gradient-65)"/>
            </g>
          </g>
          <path id="Path_5880" data-name="Path 5880" d="M946.95,2203.037a2.174,2.174,0,0,0,.758.128,1.722,1.722,0,0,1,.685,0c.351.064,1.079.074.811-.387a1.112,1.112,0,0,0-1.336-.447,1.8,1.8,0,0,1-.669.226Z" transform="translate(-942.823 -2196.241)" fill="url(#linear-gradient-66)"/>
          <path id="Path_5881" data-name="Path 5881" d="M735.582,1932.923s-1.29-.249-1.833,3.986c-.282,2.2,1.672,2.494,4.19,2.347a2,2,0,0,0,.271-1.006s-3.156.266-2.7-1.436C736.03,1934.906,736.371,1932.954,735.582,1932.923Z" transform="translate(-733.722 -1932.121)" fill="url(#linear-gradient-67)"/>
          <path id="Path_5882" data-name="Path 5882" d="M897.622,1904.875l-.053,0a2.015,2.015,0,0,1-1.213-.811.032.032,0,1,1,.051-.037c.005.007.55.747,1.166.785a.472.472,0,0,0,.389-.126.7.7,0,0,0,.14-.495.032.032,0,1,1,.063-.007.754.754,0,0,1-.157.545A.51.51,0,0,1,897.622,1904.875Z" transform="translate(-893.203 -1903.772)" fill="#9f73f8"/>
          <path id="Path_5883" data-name="Path 5883" d="M865.1,2286.742a.031.031,0,0,1-.013-.06,11.8,11.8,0,0,1,4.554-1.041.032.032,0,0,1,.029.034.033.033,0,0,1-.034.029,11.734,11.734,0,0,0-4.524,1.035A.028.028,0,0,1,865.1,2286.742Z" transform="translate(-862.527 -2278.005)" fill="#ae87f9"/>
        </g>
        <g id="Group_3910" data-name="Group 3910" transform="translate(3.725)">
          <path id="Path_5884" data-name="Path 5884" d="M927.163,1835.282a5.6,5.6,0,0,1-.164,1.13c-.1.168.1.449.547.615s.241-.932.241-.932Z" transform="translate(-926.959 -1833.87)" fill="url(#linear-gradient-68)"/>
          <path id="Path_5885" data-name="Path 5885" d="M930.212,1763.989c.552-.2.74-1.506.467-1.649-.157-.082-.3.307-.881.457-.453.116-.741-.024-.934.2a.682.682,0,0,0-.144.425,1.717,1.717,0,0,0,.072.381c.046.179.041.171.056.224a2.389,2.389,0,0,0,.3.634,1.679,1.679,0,0,1,.171-.233,1.468,1.468,0,0,1,.281-.248A1.87,1.87,0,0,1,930.212,1763.989Z" transform="translate(-928.672 -1762.328)" fill="url(#linear-gradient-69)"/>
          <path id="Path_5886" data-name="Path 5886" d="M926.433,1828.134a.9.9,0,0,0,.634.625c.46.115.85-.874.631-1.181a.6.6,0,0,0-.426-.2c-.1,0-.144.025-.309.015s-.186-.037-.24-.015-.141.124-.148.448a.257.257,0,0,0-.235-.17.162.162,0,0,0-.079.039C926.163,1827.79,926.221,1827.971,926.433,1828.134Z" transform="translate(-926.215 -1826.111)" fill="url(#linear-gradient-70)"/>
        </g>
        <g id="Group_3911" data-name="Group 3911" transform="translate(4.167 7.474)">
          <path id="Path_5887" data-name="Path 5887" d="M949.126,2275.437a.057.057,0,0,0-.056.023s-.026.107-.027.11a.054.054,0,0,0,.018.064l1.708,1.222,4-.266-1.732-.407Z" transform="translate(-949.039 -2272.98)" fill="#26264f"/>
          <path id="Path_5888" data-name="Path 5888" d="M950.583,2274.716a.053.053,0,0,0-.04.1l1.708,1.222,4-.266-1.732-.406Z" transform="translate(-950.492 -2272.273)" fill="#444b8c"/>
          <path id="Path_5889" data-name="Path 5889" d="M1036.049,2152.212l1.46-3.623a.135.135,0,0,1,.146-.083l4.473.684a.135.135,0,0,1,.106.18l-1.256,3.409a.135.135,0,0,1-.143.087l-4.687-.583Z" transform="translate(-1034.365 -2148.505)" fill="url(#linear-gradient-71)"/>
          <path id="Path_5890" data-name="Path 5890" d="M1038.466,2156.938l1.495-3.7a.135.135,0,0,1,.146-.083l4.473.683a.135.135,0,0,1,.106.18l-1.257,3.41a.135.135,0,0,1-.143.087Z" transform="translate(-1036.735 -2153.063)" fill="#26264f"/>
          <path id="Path_5891" data-name="Path 5891" d="M1038.466,2306.617l4.821.577a.135.135,0,0,0,.143-.087l.379-1.029c-1.6.34-3.327-.1-5.006-.293Z" transform="translate(-1036.735 -2302.741)" fill="#1f1f44"/>
        </g>
        <g id="Group_3913" data-name="Group 3913" transform="translate(3.208 10.977)">
          <path id="Path_5892" data-name="Path 5892" d="M1449.124,2407.482c.006-.236-.056-.518.49-.536a6.808,6.808,0,0,1,1.6.291c.8.209.832.738-.414.673C1449.982,2407.867,1449.115,2407.817,1449.124,2407.482Z" transform="translate(-1438.486 -2405.447)" fill="url(#linear-gradient-72)"/>
          <path id="Path_5893" data-name="Path 5893" d="M1465.369,2413.141a.219.219,0,0,1-.243.176c-.244-.041-.162-.147-.131-.27s-.037-.237.243-.176A.212.212,0,0,1,1465.369,2413.141Z" transform="translate(-1454.013 -2411.242)" fill="url(#linear-gradient-73)"/>
          <path id="Path_5894" data-name="Path 5894" d="M1347.492,2352.619l.242.037a12.371,12.371,0,0,1,1.562.916c.25.127.366,1.013-.418.8a4.639,4.639,0,0,0-1.91.063Z" transform="translate(-1338.307 -2352.172)" fill="url(#linear-gradient-74)"/>
          <path id="Path_5895" data-name="Path 5895" d="M906.11,2341.012a18.531,18.531,0,0,1-4.2-.183c-.575-.089-2.422.74-2.442,1.263,0,0-.169.8,1.575,1.446l4.286.311c1.5-.357,3.768-1.187,3.949-1.8C909.653,2340.771,907.945,2340.787,906.11,2341.012Z" transform="translate(-899.463 -2340.604)" fill="url(#linear-gradient-75)"/>
          <g id="Group_3912" data-name="Group 3912" transform="translate(1.657)" opacity="0.3" style="mix-blend-mode: multiply;isolation: isolate">
            <path id="Path_5896" data-name="Path 5896" d="M986.865,2330.737c1.112.231,1.6-.465,3.011-.264.915.13,1.14.484,1.677.328a1.7,1.7,0,0,0,.958-.891,8.019,8.019,0,0,0-2.448.036,18.4,18.4,0,0,1-4.158-.176c-.016,0-.317-.231-.317-.231s-.3.064-.516.121A4.128,4.128,0,0,0,986.865,2330.737Z" transform="translate(-985.073 -2329.538)" fill="url(#linear-gradient-76)"/>
          </g>
        </g>
      </g>
    </g>
    <g id="Group_3917" data-name="Group 3917" transform="translate(544.801 945.627)">
      <path id="Path_5897" data-name="Path 5897" d="M733.288,950.091a4.694,4.694,0,0,0-9.376,0,4.4,4.4,0,0,0,1.96,3.63,1.841,1.841,0,0,1,.809,1.519v.342a1.344,1.344,0,0,0,1.344,1.344h1.152a1.344,1.344,0,0,0,1.344-1.344v-.342a1.841,1.841,0,0,1,.809-1.519A4.4,4.4,0,0,0,733.288,950.091Z" transform="translate(-723.912 -945.627)" fill="#f4f7fa" opacity="0.75"/>
      <ellipse id="Ellipse_147" data-name="Ellipse 147" cx="1.04" cy="0.551" rx="1.04" ry="0.551" transform="translate(3.648 12.739)" fill="url(#linear-gradient-77)"/>
      <path id="Path_5898" data-name="Path 5898" d="M894.757,1581.487v.562a.494.494,0,0,0,.28.446,2.635,2.635,0,0,0,1.211.224,2.721,2.721,0,0,0,.966-.168.5.5,0,0,0,.307-.465v-.311Z" transform="translate(-891.451 -1569.181)" fill="url(#linear-gradient-78)"/>
      <path id="Path_5899" data-name="Path 5899" d="M894.757,1581.979a.544.544,0,0,0,.146.1,6.723,6.723,0,0,0,2.442.254.566.566,0,0,0,.147-.081.509.509,0,0,0,.029-.168v-.311l-2.763-.288Z" transform="translate(-891.451 -1569.181)" opacity="0.3" fill="url(#linear-gradient-79)" style="mix-blend-mode: multiply;isolation: isolate"/>
      <path id="Path_5900" data-name="Path 5900" d="M886.347,1561.647a.264.264,0,0,0-.291.262v.016a.554.554,0,0,0,.314.5,6.725,6.725,0,0,0,2.442.254.51.51,0,0,0,.344-.49v-.013a.264.264,0,0,0-.236-.262Z" transform="translate(-882.918 -1549.724)" fill="url(#linear-gradient-80)"/>
      <path id="Path_5901" data-name="Path 5901" d="M891.178,1561.916l-2.573-.268a.263.263,0,0,0-.246.116.55.55,0,0,0,.27.283,6.794,6.794,0,0,0,2.442.286.6.6,0,0,0,.3-.3A.263.263,0,0,0,891.178,1561.916Z" transform="translate(-885.177 -1549.725)" opacity="0.3" fill="url(#linear-gradient-79)" style="mix-blend-mode: multiply;isolation: isolate"/>
      <path id="Path_5902" data-name="Path 5902" d="M886.246,1514.651a.191.191,0,0,0-.19.191v.44a.554.554,0,0,0,.314.5,6.794,6.794,0,0,0,2.442.286.581.581,0,0,0,.344-.522v-.7a.191.191,0,0,0-.19-.191Z" transform="translate(-882.918 -1503.639)" fill="url(#linear-gradient-79)"/>
      <ellipse id="Ellipse_148" data-name="Ellipse 148" cx="1.512" cy="0.357" rx="1.512" ry="0.357" transform="translate(3.176 10.792)" fill="url(#linear-gradient-83)"/>
      <path id="Path_5903" data-name="Path 5903" d="M733.288,950.091a4.694,4.694,0,0,0-9.376,0,4.4,4.4,0,0,0,1.96,3.63,1.841,1.841,0,0,1,.809,1.519v.342a1.344,1.344,0,0,0,1.344,1.344h1.152a1.344,1.344,0,0,0,1.344-1.344v-.342a1.841,1.841,0,0,1,.809-1.519A4.4,4.4,0,0,0,733.288,950.091Z" transform="translate(-723.912 -945.627)" fill="url(#linear-gradient-84)"/>
      <ellipse id="Ellipse_149" data-name="Ellipse 149" cx="1.106" cy="0.262" rx="1.106" ry="0.262" transform="translate(3.582 10.606)" fill="#f4f7fa" opacity="0.5" style="mix-blend-mode: soft-light;isolation: isolate"/>
      <g id="Group_3916" data-name="Group 3916" transform="translate(3.522 3.974)">
        <path id="Path_5904" data-name="Path 5904" d="M906.785,1188.271a.064.064,0,0,1-.063-.056l-.814-6.329a.064.064,0,1,1,.127-.016l.814,6.328a.064.064,0,0,1-.055.072Z" transform="translate(-905.908 -1181.217)" fill="url(#linear-gradient-85)"/>
        <path id="Path_5905" data-name="Path 5905" d="M974.13,1188.271h-.008a.064.064,0,0,1-.055-.072l.814-6.329a.064.064,0,0,1,.127.016l-.814,6.329A.064.064,0,0,1,974.13,1188.271Z" transform="translate(-972.747 -1181.217)" fill="url(#linear-gradient-86)"/>
        <path id="Path_5906" data-name="Path 5906" d="M913.563,1151.623a.064.064,0,0,1-.053-.029l-.225-.341a.01.01,0,0,0-.009-.005.01.01,0,0,0-.009.005l-.148.248a.138.138,0,0,1-.234.006l-.2-.305a.01.01,0,0,0-.009-.005.01.01,0,0,0-.009,0l-.179.259a.138.138,0,0,1-.113.06h0a.139.139,0,0,1-.114-.06l-.258-.369a.012.012,0,0,0-.009,0,.01.01,0,0,0-.009.006l-.235.406a.064.064,0,0,1-.111-.064l.235-.406a.138.138,0,0,1,.233-.01l.258.37a.011.011,0,0,0,.009,0,.01.01,0,0,0,.008,0l.179-.259a.138.138,0,0,1,.229,0l.2.305s.006.006.009.005a.01.01,0,0,0,.009-.005l.148-.248a.138.138,0,0,1,.234-.005l.225.341a.064.064,0,0,1-.053.1Z" transform="translate(-911.517 -1150.959)" fill="url(#linear-gradient-87)"/>
      </g>
      <path id="Path_5907" data-name="Path 5907" d="M728.685,990.4c.1-1.721,3-2.123,2.988-3.66-.008-.946-1.16-1.649-1.406-1.79-1.813-1.037-4.046.161-4.507-.687a.791.791,0,0,1-.03-.572,1.226,1.226,0,0,1,.307-.55,4.346,4.346,0,0,0-.165,7.368,1.841,1.841,0,0,1,.809,1.519v.342a1.344,1.344,0,0,0,1.344,1.344h1.152a1.344,1.344,0,0,0,1.344-1.344v-.273a.881.881,0,0,1-.54.2C729.287,992.293,728.635,991.253,728.685,990.4Z" transform="translate(-723.912 -982.412)" opacity="0.3" fill="url(#linear-gradient-88)" style="mix-blend-mode: multiply;isolation: isolate"/>
      <ellipse id="Ellipse_150" data-name="Ellipse 150" cx="4.034" cy="3.89" rx="4.034" ry="3.89" transform="translate(0.729 0.747)" fill="#f4f7fa" opacity="0.44" style="mix-blend-mode: soft-light;isolation: isolate"/>
    </g>
  </g>
</svg>
