<svg xmlns="http://www.w3.org/2000/svg" width="48.981" height="58.027" viewBox="0 0 48.981 58.027">
  <g id="Group_37648" data-name="Group 37648" transform="translate(-37 -360.946)">
    <path id="Path_5974" data-name="Path 5974" d="M446.68,383.588c-10.235-12.889-34.466-13.61-41.59-3.387-3.926,5.633-2.285,14.053-1.476,18.208a33.2,33.2,0,0,0,5.965,13.611c1.946,2.533,6.673,8.687,13.785,10.093,12.152,2.4,27.316-9.833,28.156-23.639A22.618,22.618,0,0,0,446.68,383.588Z" transform="translate(-365.576 -3.444)" fill="#f4f7fa"/>
    <g id="Group_3937" data-name="Group 3937" transform="translate(-517.376 67.874)">
      <g id="Group_3935" data-name="Group 3935" transform="translate(560.669 293.072)">
        <path id="Path_5908" data-name="Path 5908" d="M602.661,409.764a2.583,2.583,0,0,0-.885-.536,2.54,2.54,0,0,0-.131-.234,10.589,10.589,0,0,1-4.42-4.624,18.16,18.16,0,0,1-6.1,1.8,17.03,17.03,0,0,0-6.822,0,2.6,2.6,0,0,0-4.437-1.168l-.013.017c-.052-.057-.105-.113-.163-.166a183.628,183.628,0,0,1-5.045,3.611,2.6,2.6,0,0,0,.15,3.668l.035.03a2.416,2.416,0,0,0,2.7,2.679,3.727,3.727,0,0,0,3.559.017,2.532,2.532,0,0,0,.286-.017,3.721,3.721,0,0,0,4.351-.556,2.58,2.58,0,0,0,1.452.465,2.414,2.414,0,0,0,1.018.091,3.721,3.721,0,0,0,4.351-.556,2.6,2.6,0,0,0,2.694.166,3.724,3.724,0,0,0,4.17-.653,2.595,2.595,0,0,0,3.242-4.037Z" transform="translate(-570.543 -375.244)" fill="#7bad3e"/>
        <path id="Path_5909" data-name="Path 5909" d="M610.315,374.24a2.029,2.029,0,0,0-.7-.42,1.859,1.859,0,0,0-.1-.184,8.311,8.311,0,0,1-3.469-3.629,14.273,14.273,0,0,1-4.784,1.416,3.5,3.5,0,0,1-5.956-1.033,2.037,2.037,0,0,0-2.878.117l-.011.013c-.04-.044-.083-.089-.128-.13a145,145,0,0,1-3.959,2.833,2.037,2.037,0,0,0,.117,2.879c.009.008.019.015.028.023a1.9,1.9,0,0,0,2.121,2.1,2.924,2.924,0,0,0,2.793.014,1.917,1.917,0,0,0,.224-.014,2.919,2.919,0,0,0,3.414-.437,2.024,2.024,0,0,0,1.14.366,1.9,1.9,0,0,0,.8.071,2.919,2.919,0,0,0,3.414-.437,2.035,2.035,0,0,0,2.114.13,2.922,2.922,0,0,0,3.272-.512,2.036,2.036,0,0,0,2.545-3.168Z" transform="translate(-580.819 -349.826)" fill="#7bad3e"/>
        <path id="Path_5910" data-name="Path 5910" d="M576.493,335.456a1.428,1.428,0,0,0-.488-.3,1.458,1.458,0,0,0-.072-.129,5.835,5.835,0,0,1-2.437-2.549,10,10,0,0,1-3.361.995,2.459,2.459,0,0,1-4.185-.726,1.432,1.432,0,0,0-2.022.083l-.008.009c-.028-.031-.058-.062-.089-.092a99.787,99.787,0,0,1-2.782,1.991,1.431,1.431,0,0,0,.083,2.023l.019.016a1.333,1.333,0,0,0,1.491,1.477,2.055,2.055,0,0,0,1.962.01,1.31,1.31,0,0,0,.158-.01,2.051,2.051,0,0,0,2.4-.307,1.423,1.423,0,0,0,.8.257,1.344,1.344,0,0,0,.562.05,2.052,2.052,0,0,0,2.4-.307,1.43,1.43,0,0,0,1.485.091,2.053,2.053,0,0,0,2.3-.36,1.431,1.431,0,0,0,1.788-2.226Z" transform="translate(-560.669 -322.068)" fill="#7bad3e"/>
        <path id="Path_5911" data-name="Path 5911" d="M656.632,323.662a1.38,1.38,0,0,0-.469-.4c-.021-.059-.044-.116-.069-.172a2.484,2.484,0,0,0-.325-2.185,1.09,1.09,0,0,0-1.61-.258,2.157,2.157,0,0,0-.407-.973,1.124,1.124,0,0,0-1.943.11,2.286,2.286,0,0,0-.348,1.01,1.049,1.049,0,0,0-.938.213,2.178,2.178,0,0,0-.407-.973,1.124,1.124,0,0,0-1.943.111,2.151,2.151,0,0,0-.286.661,1.045,1.045,0,0,0-.978.2,2.168,2.168,0,0,0-.407-.973,1.124,1.124,0,0,0-1.943.111l-.007.012c-.027-.042-.056-.083-.086-.122a1.124,1.124,0,0,0-1.943.111,2.524,2.524,0,0,0-.244,2.086,1.467,1.467,0,0,0-.486.471,2.481,2.481,0,0,0,.079,2.71l.019.022a2.217,2.217,0,0,0,.4,1.52,1.067,1.067,0,0,0,1.028.458,1.5,1.5,0,0,0,1.886.013.886.886,0,0,0,.152-.013,1.567,1.567,0,0,0,2.3-.411,1.128,1.128,0,0,0,.77.344.945.945,0,0,0,.539.067,1.568,1.568,0,0,0,2.305-.411,1.058,1.058,0,0,0,1.427.122,1.572,1.572,0,0,0,2.21-.482,1.112,1.112,0,0,0,1.8-.272A2.48,2.48,0,0,0,656.632,323.662Z" transform="translate(-620.664 -312.459)" fill="#7bad3e"/>
        <path id="Path_5912" data-name="Path 5912" d="M617.061,308.233a1.35,1.35,0,0,0-.469-.324,1.533,1.533,0,0,0-.069-.141,1.729,1.729,0,0,0-.325-1.787,1.247,1.247,0,0,0-1.61-.211,1.621,1.621,0,0,0-.407-.8,1.26,1.26,0,0,0-1.943.09,1.661,1.661,0,0,0-.348.826,1.231,1.231,0,0,0-.938.174,1.626,1.626,0,0,0-.407-.8,1.259,1.259,0,0,0-1.943.09,1.621,1.621,0,0,0-.286.541,1.228,1.228,0,0,0-.978.165,1.622,1.622,0,0,0-.407-.8,1.259,1.259,0,0,0-1.943.09l-.008.01c-.027-.034-.056-.068-.086-.1a1.259,1.259,0,0,0-1.943.09,1.741,1.741,0,0,0-.243,1.706,1.38,1.38,0,0,0-.487.385,1.727,1.727,0,0,0,.08,2.217l.019.018a1.578,1.578,0,0,0,.4,1.244,1.181,1.181,0,0,0,1.029.375,1.762,1.762,0,0,0,1.885.011,1.139,1.139,0,0,0,.151-.011,1.788,1.788,0,0,0,2.3-.336,1.256,1.256,0,0,0,.77.281,1.135,1.135,0,0,0,.539.055,1.789,1.789,0,0,0,2.305-.336,1.234,1.234,0,0,0,1.427.1,1.792,1.792,0,0,0,2.209-.394,1.255,1.255,0,0,0,1.8-.223A1.727,1.727,0,0,0,617.061,308.233Z" transform="translate(-591.267 -301.605)" fill="#7bad3e"/>
        <g id="Group_3927" data-name="Group 3927" transform="translate(4.703 5.773)">
          <path id="Path_5913" data-name="Path 5913" d="M629.277,365.716s-.007-.663-.02-1.824-.006-2.819-.011-4.809c0-1,.007-2.073.01-3.213s.017-2.343.026-3.586.027-2.529.041-3.835.038-2.633.057-3.96c.052-2.653.1-5.306.151-7.793.038-1.244.058-2.446.107-3.586s.082-2.218.135-3.213.1-1.908.147-2.716.1-1.513.141-2.094.08-1.036.11-1.347l.043-.477s.015.166.043.477.065.767.11,1.347.093,1.285.141,2.094.1,1.721.147,2.716.093,2.073.135,3.213.069,2.342.107,3.586c.048,2.487.1,5.141.151,7.793.019,1.327.038,2.654.057,3.96s.028,2.591.041,3.835.018,2.446.026,3.586.015,2.218.01,3.213c0,1.99-.008,3.648-.012,4.809s-.019,1.824-.019,1.824Z" transform="translate(-616.317 -321.274)" fill="#8a5d33"/>
          <g id="Group_3919" data-name="Group 3919" transform="translate(13.752 4.203)">
            <path id="Path_5914" data-name="Path 5914" d="M632.448,341.287l.137-.049c.092-.034.227-.086.4-.157.343-.142.832-.359,1.4-.658a17.426,17.426,0,0,0,3.851-2.71c.316-.293.612-.605.9-.921.144-.156.272-.323.408-.481s.251-.329.375-.489l.339-.491.3-.486c.184-.323.353-.632.488-.928.073-.146.136-.288.19-.427l.16-.391c.085-.25.166-.468.222-.65l.162-.577s-.046.213-.128.586c-.045.186-.112.408-.183.666l-.137.4c-.046.142-.1.29-.166.441-.118.308-.271.63-.438.97l-.277.512-.316.52c-.116.171-.23.348-.353.522s-.25.348-.387.517c-.27.341-.555.68-.861,1s-.622.629-.943.924-.653.567-.983.82a18.8,18.8,0,0,1-1.875,1.285c-.571.345-1.066.6-1.418.772-.177.085-.318.15-.416.193l-.154.066Z" transform="translate(-632.448 -331.873)" fill="#8a5d33"/>
            <path id="Path_5915" data-name="Path 5915" d="M656.592,339.484s.155.049.447.116a10.446,10.446,0,0,0,1.213.2c.253.028.529.047.821.053a8.279,8.279,0,0,0,.916-.032,6.2,6.2,0,0,0,.963-.167c.164-.034.32-.1.481-.145a4.912,4.912,0,0,0,.464-.2,4.23,4.23,0,0,0,.843-.548,4.046,4.046,0,0,0,.654-.727l.136-.195.113-.2.11-.2.088-.205a3.01,3.01,0,0,0,.153-.4c.039-.133.089-.258.117-.384a6.535,6.535,0,0,0,.138-.691c.029-.208.06-.39.064-.541.021-.3.032-.474.032-.474s-.005.173-.014.475c0,.152-.022.335-.044.545a6.692,6.692,0,0,1-.113.7c-.023.129-.069.257-.1.393a3.044,3.044,0,0,1-.14.413l-.082.213-.1.21-.109.214-.132.206a4.212,4.212,0,0,1-.651.78,4.371,4.371,0,0,1-.86.606,5.148,5.148,0,0,1-.478.229c-.166.058-.328.128-.5.171a6.539,6.539,0,0,1-1,.212,8.481,8.481,0,0,1-.949.069c-.3.006-.589,0-.852-.023a10.743,10.743,0,0,1-1.265-.163c-.152-.029-.27-.055-.352-.074l-.126-.031Z" transform="translate(-650.3 -334.004)" fill="#8a5d33"/>
          </g>
          <g id="Group_3920" data-name="Group 3920" transform="translate(0 5.991)">
            <path id="Path_5916" data-name="Path 5916" d="M606.343,349.019l-.154-.066c-.1-.043-.239-.107-.415-.193-.353-.171-.848-.428-1.419-.772a18.768,18.768,0,0,1-1.875-1.284c-.329-.253-.657-.532-.983-.821s-.643-.6-.943-.924-.591-.658-.861-1c-.137-.168-.259-.347-.387-.517s-.237-.351-.353-.521l-.315-.52-.277-.512c-.167-.339-.32-.662-.438-.969-.065-.151-.12-.3-.166-.442s-.094-.276-.137-.4c-.071-.257-.139-.479-.183-.665l-.128-.586.162.577c.055.182.136.4.221.65l.16.39c.054.138.117.281.19.426.135.3.3.605.488.928l.3.486.339.491c.124.16.244.327.375.489s.264.325.408.481c.283.316.579.629.9.921a17.4,17.4,0,0,0,3.85,2.71c.569.3,1.058.516,1.4.658.172.071.307.123.4.157l.138.049Z" transform="translate(-592.591 -338.824)" fill="#8a5d33"/>
            <path id="Path_5917" data-name="Path 5917" d="M586.827,346.835l-.126.031c-.081.02-.2.045-.352.074a10.788,10.788,0,0,1-1.264.163c-.263.019-.549.029-.851.023a8.464,8.464,0,0,1-.949-.068,6.529,6.529,0,0,1-1-.212c-.169-.043-.331-.113-.5-.17a5.249,5.249,0,0,1-.478-.228,4.418,4.418,0,0,1-.86-.606,4.233,4.233,0,0,1-.651-.78l-.131-.206-.108-.214c-.036-.07-.071-.14-.1-.209s-.055-.143-.083-.213a3.147,3.147,0,0,1-.14-.413c-.035-.136-.081-.265-.1-.393a6.54,6.54,0,0,1-.113-.7c-.022-.21-.045-.393-.044-.544-.009-.3-.014-.476-.014-.476s.012.173.032.474c0,.151.035.332.064.541a6.6,6.6,0,0,0,.138.691c.027.126.077.252.117.384a2.905,2.905,0,0,0,.154.4l.088.205.11.2.113.2.135.2a4.065,4.065,0,0,0,.654.727,4.21,4.21,0,0,0,.844.548,4.9,4.9,0,0,0,.464.2c.161.049.317.11.481.145a6.294,6.294,0,0,0,.963.167,8.282,8.282,0,0,0,.916.031c.292-.005.568-.025.821-.053a10.335,10.335,0,0,0,1.214-.2c.291-.067.446-.116.446-.116Z" transform="translate(-578.96 -340.955)" fill="#8a5d33"/>
          </g>
          <g id="Group_3921" data-name="Group 3921" transform="translate(13.752 16.45)">
            <path id="Path_5918" data-name="Path 5918" d="M632.448,386.8l.106-.038c.071-.025.177-.065.31-.119.268-.108.651-.274,1.1-.5a13.589,13.589,0,0,0,3.025-2.091c.249-.226.483-.468.706-.714s.427-.5.618-.753l.269-.382.239-.378c.146-.251.281-.493.388-.723s.2-.447.279-.638.133-.366.178-.508l.131-.451s-.035.167-.1.461c-.034.146-.086.321-.14.524s-.132.427-.233.665-.209.5-.338.765l-.214.4-.245.411c-.176.274-.366.551-.576.821s-.432.538-.671.792a14.161,14.161,0,0,1-2.975,2.41c-.448.275-.837.48-1.114.618-.139.069-.25.12-.328.155l-.122.053Z" transform="translate(-632.448 -379.505)" fill="#8a5d33"/>
            <path id="Path_5919" data-name="Path 5919" d="M651.481,385.429s.119.038.347.092a8.114,8.114,0,0,0,.946.164,6.811,6.811,0,0,0,1.355.024,4.9,4.9,0,0,0,.752-.126c.128-.027.249-.074.376-.111a3.881,3.881,0,0,0,.362-.155,3.3,3.3,0,0,0,.66-.423,3.175,3.175,0,0,0,.513-.564l.107-.152.089-.159.087-.156.07-.16a2.312,2.312,0,0,0,.121-.313c.031-.1.071-.2.093-.3a5.154,5.154,0,0,0,.111-.541c.023-.163.048-.305.052-.424.018-.237.027-.372.027-.372s0,.136-.009.373c0,.119-.016.263-.032.428a5.1,5.1,0,0,1-.086.551c-.017.1-.052.2-.08.309a2.32,2.32,0,0,1-.109.325l-.064.168-.082.165-.084.169-.1.162a3.289,3.289,0,0,1-.51.617,3.453,3.453,0,0,1-.676.482,3.984,3.984,0,0,1-.376.182c-.13.046-.258.1-.391.137a5.171,5.171,0,0,1-.785.171,7.154,7.154,0,0,1-1.419.043,8.383,8.383,0,0,1-1-.124c-.12-.022-.214-.042-.278-.057l-.1-.024Z" transform="translate(-646.503 -381.176)" fill="#8a5d33"/>
          </g>
          <g id="Group_3922" data-name="Group 3922" transform="translate(3 17.851)">
            <path id="Path_5920" data-name="Path 5920" d="M612.069,393.034l-.123-.053c-.078-.035-.188-.087-.328-.156-.278-.138-.667-.342-1.114-.618a14.148,14.148,0,0,1-2.975-2.41c-.239-.253-.461-.522-.671-.791s-.4-.548-.576-.822l-.245-.411-.214-.4c-.13-.267-.247-.522-.338-.765s-.164-.467-.233-.665c-.054-.2-.106-.377-.14-.524l-.1-.461.131.452c.045.143.109.312.178.508s.162.411.28.638.242.472.388.723l.239.378.269.381c.191.253.4.508.618.754s.457.488.706.714a13.59,13.59,0,0,0,3.025,2.091c.446.23.829.4,1.1.5.133.054.24.094.311.119l.106.037Z" transform="translate(-601.317 -384.955)" fill="#8a5d33"/>
            <path id="Path_5921" data-name="Path 5921" d="M596.809,391.281l-.1.024c-.064.015-.158.035-.278.058a8.584,8.584,0,0,1-1,.123,7.149,7.149,0,0,1-1.418-.043,5.132,5.132,0,0,1-.786-.171c-.133-.034-.26-.09-.391-.136a4.1,4.1,0,0,1-.376-.182,3.469,3.469,0,0,1-.676-.482,3.327,3.327,0,0,1-.51-.617l-.1-.163-.085-.169-.082-.165-.064-.168a2.45,2.45,0,0,1-.109-.325c-.027-.107-.062-.208-.08-.309a5.278,5.278,0,0,1-.086-.551c-.016-.165-.034-.309-.032-.428-.006-.237-.009-.373-.009-.373l.027.372c0,.119.029.261.052.423a5.181,5.181,0,0,0,.111.541c.022.1.062.2.093.3a2.35,2.35,0,0,0,.121.312l.07.16.086.156.089.159.107.152a3.185,3.185,0,0,0,.513.564,3.308,3.308,0,0,0,.66.423,3.723,3.723,0,0,0,.363.154c.126.038.248.085.375.111a4.9,4.9,0,0,0,.751.126,6.8,6.8,0,0,0,1.355-.024,8.183,8.183,0,0,0,.946-.164c.227-.054.346-.092.346-.092Z" transform="translate(-590.628 -386.626)" fill="#8a5d33"/>
          </g>
          <g id="Group_3923" data-name="Group 3923" transform="translate(13.752 26.6)">
            <path id="Path_5922" data-name="Path 5922" d="M632.448,426.282l.106-.037c.071-.025.177-.065.31-.119.268-.108.651-.274,1.1-.5a13.591,13.591,0,0,0,3.025-2.091c.249-.226.483-.469.706-.714s.427-.5.618-.754l.269-.382.239-.378c.146-.252.281-.492.388-.724s.2-.448.279-.638.133-.365.178-.508l.131-.451s-.035.168-.1.461c-.034.146-.086.32-.14.523s-.132.427-.233.664-.209.5-.338.765l-.214.4-.245.411c-.176.274-.366.552-.576.822s-.432.538-.671.792a14.148,14.148,0,0,1-2.975,2.41c-.448.276-.837.481-1.114.618-.139.068-.25.12-.328.155l-.122.053Z" transform="translate(-632.448 -418.984)" fill="#8a5d33"/>
            <path id="Path_5923" data-name="Path 5923" d="M651.481,424.908s.119.038.347.092a8.164,8.164,0,0,0,.946.164,6.84,6.84,0,0,0,1.355.024,4.847,4.847,0,0,0,.752-.126c.128-.027.249-.074.376-.111a3.8,3.8,0,0,0,.362-.154,3.289,3.289,0,0,0,.66-.424,3.146,3.146,0,0,0,.513-.564l.107-.152.089-.159.087-.156.07-.16a2.311,2.311,0,0,0,.121-.313c.031-.1.071-.2.093-.3a5.117,5.117,0,0,0,.111-.541c.023-.163.048-.3.052-.423.018-.236.027-.372.027-.372s0,.136-.009.373c0,.119-.016.263-.032.427a5.119,5.119,0,0,1-.086.551c-.017.1-.052.2-.08.31a2.342,2.342,0,0,1-.109.325l-.064.168-.082.165c-.028.056-.056.111-.084.169l-.1.163a3.316,3.316,0,0,1-.51.617,3.485,3.485,0,0,1-.676.482c-.12.073-.251.121-.376.182s-.258.1-.391.137a5.15,5.15,0,0,1-.785.171,7.215,7.215,0,0,1-1.419.043,8.672,8.672,0,0,1-1-.124c-.12-.022-.214-.042-.278-.057l-.1-.024Z" transform="translate(-646.503 -420.655)" fill="#8a5d33"/>
          </g>
          <g id="Group_3924" data-name="Group 3924" transform="translate(3 28.002)">
            <path id="Path_5924" data-name="Path 5924" d="M612.069,432.514l-.123-.054c-.078-.034-.188-.086-.328-.155-.278-.138-.667-.343-1.114-.618a14.155,14.155,0,0,1-2.975-2.41c-.239-.253-.461-.522-.671-.792s-.4-.548-.576-.822l-.245-.41-.214-.4c-.13-.268-.247-.522-.338-.764s-.164-.468-.233-.665c-.054-.2-.106-.377-.14-.523l-.1-.461.131.451c.045.142.109.312.178.508s.162.411.28.638.242.472.388.724l.239.378.269.381c.191.253.4.508.618.754s.457.487.706.714a13.619,13.619,0,0,0,3.025,2.091c.446.229.829.4,1.1.5.133.054.24.094.311.119l.106.036Z" transform="translate(-601.317 -424.435)" fill="#8a5d33"/>
            <path id="Path_5925" data-name="Path 5925" d="M596.809,430.761l-.1.024c-.064.015-.158.035-.278.058a8.619,8.619,0,0,1-1,.124,7.209,7.209,0,0,1-1.418-.043,5.236,5.236,0,0,1-.786-.171c-.133-.035-.26-.09-.391-.137s-.257-.109-.376-.182a3.445,3.445,0,0,1-.676-.482,3.326,3.326,0,0,1-.51-.617l-.1-.163-.085-.169-.082-.165-.064-.168a2.449,2.449,0,0,1-.109-.325c-.027-.107-.062-.208-.08-.309a5.3,5.3,0,0,1-.086-.551c-.016-.165-.034-.309-.032-.428-.006-.237-.009-.373-.009-.373l.027.372c0,.119.029.26.052.423a5.2,5.2,0,0,0,.111.541c.022.1.062.2.093.3a2.353,2.353,0,0,0,.121.313l.07.161.086.156.089.159.107.152a3.151,3.151,0,0,0,.513.564,3.3,3.3,0,0,0,.66.423,3.931,3.931,0,0,0,.363.155c.126.037.248.084.375.111a4.842,4.842,0,0,0,.751.126,6.864,6.864,0,0,0,1.355-.024,8.146,8.146,0,0,0,.946-.164c.227-.054.346-.092.346-.092Z" transform="translate(-590.628 -426.106)" fill="#8a5d33"/>
          </g>
          <g id="Group_3925" data-name="Group 3925" transform="translate(13.711)">
            <path id="Path_5926" data-name="Path 5926" d="M632.288,320.2l.071-.026c.044-.016.11-.041.2-.077.171-.069.412-.179.695-.327a9.193,9.193,0,0,0,.934-.561c.167-.11.327-.24.5-.365s.328-.268.479-.419a5.877,5.877,0,0,0,.443-.458l.205-.237c.065-.08.122-.165.182-.246l.173-.24.144-.244a3.378,3.378,0,0,0,.244-.459l.178-.4.1-.325c.057-.181.089-.284.089-.284l-.072.289c-.023.093-.051.2-.082.333l-.155.417a3.451,3.451,0,0,1-.219.48l-.131.257-.162.255c-.055.086-.109.176-.17.262l-.2.254a6.123,6.123,0,0,1-.426.5c-.145.165-.313.308-.466.461s-.323.283-.488.406a9.5,9.5,0,0,1-.93.638c-.284.17-.528.3-.7.384-.086.043-.158.075-.208.1l-.073.032Z" transform="translate(-632.288 -315.524)" fill="#8a5d33"/>
            <path id="Path_5927" data-name="Path 5927" d="M644.226,319.2s.071.024.213.06a5.055,5.055,0,0,0,.59.111,4.275,4.275,0,0,0,.846.028,2.655,2.655,0,0,0,.931-.23,2.036,2.036,0,0,0,.414-.258,1.982,1.982,0,0,0,.326-.347,2.2,2.2,0,0,0,.227-.39,2.621,2.621,0,0,0,.14-.384,3.171,3.171,0,0,0,.075-.34c.017-.1.033-.192.037-.267.013-.15.02-.235.02-.235s0,.086,0,.236a2.705,2.705,0,0,1-.016.271,3.349,3.349,0,0,1-.05.35,2.708,2.708,0,0,1-.114.405,2.277,2.277,0,0,1-.207.428,2.119,2.119,0,0,1-.322.4,2.225,2.225,0,0,1-.431.316,2.9,2.9,0,0,1-.994.328,4.6,4.6,0,0,1-.91.04,5.5,5.5,0,0,1-.641-.071l-.179-.034-.066-.015Z" transform="translate(-641.072 -316.583)" fill="#8a5d33"/>
          </g>
          <g id="Group_3926" data-name="Group 3926" transform="translate(6.886 0.887)">
            <path id="Path_5928" data-name="Path 5928" d="M619.335,324.036l-.073-.032c-.05-.022-.121-.054-.208-.1-.176-.084-.42-.213-.7-.384a9.481,9.481,0,0,1-.93-.638c-.165-.123-.323-.268-.489-.406s-.321-.3-.466-.46a6.154,6.154,0,0,1-.425-.5l-.2-.254c-.061-.086-.114-.177-.17-.262l-.162-.255-.131-.257a3.4,3.4,0,0,1-.218-.48l-.156-.417c-.032-.128-.06-.241-.083-.333l-.072-.289.089.284.1.325.178.4a3.476,3.476,0,0,0,.244.459l.144.244.174.24c.06.08.116.166.181.246l.205.236a5.876,5.876,0,0,0,.442.458c.15.151.322.281.479.419s.33.255.5.365a9.37,9.37,0,0,0,.934.562c.283.147.524.257.695.326.086.036.152.061.2.077l.071.026Z" transform="translate(-612.51 -318.975)" fill="#8a5d33"/>
            <path id="Path_5929" data-name="Path 5929" d="M609.678,323.053l-.066.015-.18.035a5.374,5.374,0,0,1-.64.071,4.6,4.6,0,0,1-.91-.039,2.912,2.912,0,0,1-.994-.328,2.227,2.227,0,0,1-.431-.316,2.114,2.114,0,0,1-.322-.4,1.466,1.466,0,0,1-.117-.214,1.427,1.427,0,0,1-.09-.213,2.729,2.729,0,0,1-.114-.406,3.337,3.337,0,0,1-.05-.35,2.667,2.667,0,0,1-.016-.272c0-.15,0-.236,0-.236l.021.235c0,.075.021.165.037.267a3.272,3.272,0,0,0,.075.34,2.632,2.632,0,0,0,.141.384,1.3,1.3,0,0,0,.1.2,1.351,1.351,0,0,0,.125.193,1.97,1.97,0,0,0,.325.347,2.025,2.025,0,0,0,.415.257,2.658,2.658,0,0,0,.931.23,4.265,4.265,0,0,0,.846-.028,5.088,5.088,0,0,0,.589-.111c.142-.036.213-.06.214-.06Z" transform="translate(-605.744 -320.033)" fill="#8a5d33"/>
          </g>
        </g>
        <g id="Group_3928" data-name="Group 3928" transform="translate(22.826 21.016)">
          <path id="Path_5930" data-name="Path 5930" d="M651.719,376.681a1.459,1.459,0,1,1-2.024.4A1.459,1.459,0,0,1,651.719,376.681Z" transform="translate(-649.448 -376.016)" fill="#b7d16e"/>
          <path id="Path_5931" data-name="Path 5931" d="M660.69,375.105a1.736,1.736,0,1,1-2.408.476A1.735,1.735,0,0,1,660.69,375.105Z" transform="translate(-655.793 -374.812)" fill="#b7d16e"/>
          <path id="Path_5932" data-name="Path 5932" d="M669.841,378.318a.97.97,0,1,1-1.345.266A.969.969,0,0,1,669.841,378.318Z" transform="translate(-663.476 -377.294)" fill="#b7d16e"/>
          <path id="Path_5933" data-name="Path 5933" d="M654.136,391.93a.97.97,0,1,1-1.345.266A.97.97,0,0,1,654.136,391.93Z" transform="translate(-651.809 -387.407)" fill="#b7d16e"/>
          <path id="Path_5934" data-name="Path 5934" d="M673.227,383.174a1.578,1.578,0,1,1-2.188.432A1.578,1.578,0,0,1,673.227,383.174Z" transform="translate(-665.289 -380.826)" fill="#b7d16e"/>
          <path id="Path_5935" data-name="Path 5935" d="M658.419,380.191a2.568,2.568,0,1,1-3.563.7A2.569,2.569,0,0,1,658.419,380.191Z" transform="translate(-653.142 -378.485)" fill="#b7d16e"/>
        </g>
        <g id="Group_3929" data-name="Group 3929" transform="translate(7.812 18.671)">
          <path id="Path_5936" data-name="Path 5936" d="M593.326,367.56a1.459,1.459,0,1,1-2.024.4A1.459,1.459,0,0,1,593.326,367.56Z" transform="translate(-591.055 -366.896)" fill="#b7d16e"/>
          <path id="Path_5937" data-name="Path 5937" d="M602.3,365.985a1.735,1.735,0,1,1-2.408.476A1.736,1.736,0,0,1,602.3,365.985Z" transform="translate(-597.399 -365.691)" fill="#b7d16e"/>
          <path id="Path_5938" data-name="Path 5938" d="M611.447,369.2a.97.97,0,1,1-1.345.266A.97.97,0,0,1,611.447,369.2Z" transform="translate(-605.083 -368.173)" fill="#b7d16e"/>
          <path id="Path_5939" data-name="Path 5939" d="M595.743,382.809a.97.97,0,1,1-1.345.266A.97.97,0,0,1,595.743,382.809Z" transform="translate(-593.416 -378.286)" fill="#b7d16e"/>
          <path id="Path_5940" data-name="Path 5940" d="M614.833,374.054a1.577,1.577,0,1,1-2.189.432A1.578,1.578,0,0,1,614.833,374.054Z" transform="translate(-606.895 -371.706)" fill="#b7d16e"/>
          <path id="Path_5941" data-name="Path 5941" d="M600.025,371.071a2.568,2.568,0,1,1-3.563.7A2.569,2.569,0,0,1,600.025,371.071Z" transform="translate(-594.748 -369.364)" fill="#b7d16e"/>
        </g>
        <g id="Group_3930" data-name="Group 3930" transform="translate(8.332 29.824)">
          <path id="Path_5942" data-name="Path 5942" d="M596.207,411.647a2.01,2.01,0,1,1-2.789.55A2.01,2.01,0,0,1,596.207,411.647Z" transform="translate(-593.077 -410.732)" fill="#b7d16e"/>
          <path id="Path_5943" data-name="Path 5943" d="M608.567,409.475a2.391,2.391,0,1,1-3.318.655A2.392,2.392,0,0,1,608.567,409.475Z" transform="translate(-601.819 -409.07)" fill="#b7d16e"/>
          <path id="Path_5944" data-name="Path 5944" d="M621.176,413.9a1.336,1.336,0,1,1-1.854.367A1.336,1.336,0,0,1,621.176,413.9Z" transform="translate(-612.406 -412.491)" fill="#b7d16e"/>
          <path id="Path_5945" data-name="Path 5945" d="M599.537,432.658a1.336,1.336,0,1,1-1.854.366A1.337,1.337,0,0,1,599.537,432.658Z" transform="translate(-596.331 -426.425)" fill="#b7d16e"/>
          <path id="Path_5946" data-name="Path 5946" d="M625.84,420.594a2.173,2.173,0,1,1-3.015.6A2.174,2.174,0,0,1,625.84,420.594Z" transform="translate(-614.903 -417.358)" fill="#b7d16e"/>
          <path id="Path_5947" data-name="Path 5947" d="M605.438,416.483a3.539,3.539,0,1,1-4.91.969A3.539,3.539,0,0,1,605.438,416.483Z" transform="translate(-598.167 -414.131)" fill="#b7d16e"/>
        </g>
        <g id="Group_3931" data-name="Group 3931" transform="translate(13.829 0)">
          <path id="Path_5948" data-name="Path 5948" d="M616.867,295.057a1.549,1.549,0,1,1-2.149.424A1.549,1.549,0,0,1,616.867,295.057Z" transform="translate(-614.456 -294.352)" fill="#b7d16e"/>
          <path id="Path_5949" data-name="Path 5949" d="M626.391,293.384a1.843,1.843,0,1,1-2.557.505A1.843,1.843,0,0,1,626.391,293.384Z" transform="translate(-621.192 -293.072)" fill="#b7d16e"/>
          <path id="Path_5950" data-name="Path 5950" d="M636.106,296.794a1.03,1.03,0,1,1-1.428.282A1.03,1.03,0,0,1,636.106,296.794Z" transform="translate(-629.349 -295.708)" fill="#b7d16e"/>
          <path id="Path_5951" data-name="Path 5951" d="M619.434,311.247a1.029,1.029,0,1,1-1.428.282A1.03,1.03,0,0,1,619.434,311.247Z" transform="translate(-616.963 -306.444)" fill="#b7d16e"/>
          <path id="Path_5952" data-name="Path 5952" d="M639.7,301.952a1.675,1.675,0,1,1-2.323.459A1.675,1.675,0,0,1,639.7,301.952Z" transform="translate(-631.273 -299.458)" fill="#b7d16e"/>
          <path id="Path_5953" data-name="Path 5953" d="M623.98,298.783a2.727,2.727,0,1,1-3.783.747A2.726,2.726,0,0,1,623.98,298.783Z" transform="translate(-618.378 -296.972)" fill="#b7d16e"/>
        </g>
        <g id="Group_3932" data-name="Group 3932" transform="translate(23.57 7.576)">
          <path id="Path_5954" data-name="Path 5954" d="M675.372,339.128a1.549,1.549,0,1,1,2.185-.149A1.549,1.549,0,0,1,675.372,339.128Z" transform="translate(-669.057 -332.845)" fill="#b7d16e"/>
          <path id="Path_5955" data-name="Path 5955" d="M664.129,337.782a1.843,1.843,0,1,1,2.6-.177A1.843,1.843,0,0,1,664.129,337.782Z" transform="translate(-660.63 -331.462)" fill="#b7d16e"/>
          <path id="Path_5956" data-name="Path 5956" d="M659.306,338.146a1.03,1.03,0,1,1,1.453-.1A1.03,1.03,0,0,1,659.306,338.146Z" transform="translate(-657.254 -332.792)" fill="#b7d16e"/>
          <path id="Path_5957" data-name="Path 5957" d="M677.676,325.923a1.03,1.03,0,1,1,1.452-.1A1.03,1.03,0,0,1,677.676,325.923Z" transform="translate(-670.901 -323.712)" fill="#b7d16e"/>
          <path id="Path_5958" data-name="Path 5958" d="M652.917,328.625a1.675,1.675,0,1,1,2.363-.161A1.675,1.675,0,0,1,652.917,328.625Z" transform="translate(-652.343 -324.879)" fill="#b7d16e"/>
          <path id="Path_5959" data-name="Path 5959" d="M662.44,327.319a2.727,2.727,0,1,1,3.847-.262A2.726,2.726,0,0,1,662.44,327.319Z" transform="translate(-659.15 -322.538)" fill="#b7d16e"/>
        </g>
        <g id="Group_3933" data-name="Group 3933" transform="translate(4.438 7.848)">
          <path id="Path_5960" data-name="Path 5960" d="M593.847,335.062a1.071,1.071,0,1,1,1.51-.1A1.071,1.071,0,0,1,593.847,335.062Z" transform="translate(-589.483 -330.72)" fill="#b7d16e"/>
          <path id="Path_5961" data-name="Path 5961" d="M586.076,334.132a1.273,1.273,0,1,1,1.8-.123A1.273,1.273,0,0,1,586.076,334.132Z" transform="translate(-583.657 -329.764)" fill="#b7d16e"/>
          <path id="Path_5962" data-name="Path 5962" d="M582.742,334.384a.712.712,0,1,1,1-.068A.712.712,0,0,1,582.742,334.384Z" transform="translate(-581.324 -330.683)" fill="#b7d16e"/>
          <path id="Path_5963" data-name="Path 5963" d="M595.44,325.935a.711.711,0,1,1,1-.068A.712.712,0,0,1,595.44,325.935Z" transform="translate(-590.757 -324.406)" fill="#b7d16e"/>
          <path id="Path_5964" data-name="Path 5964" d="M578.326,327.8a1.158,1.158,0,1,1,1.633-.111A1.158,1.158,0,0,1,578.326,327.8Z" transform="translate(-577.93 -325.212)" fill="#b7d16e"/>
          <path id="Path_5965" data-name="Path 5965" d="M584.908,326.9a1.885,1.885,0,1,1,2.659-.181A1.885,1.885,0,0,1,584.908,326.9Z" transform="translate(-582.634 -323.595)" fill="#b7d16e"/>
        </g>
        <g id="Group_3934" data-name="Group 3934" transform="translate(25.965 29.929)">
          <path id="Path_5966" data-name="Path 5966" d="M663.186,410.735a.981.981,0,1,1-1.362.268A.981.981,0,0,1,663.186,410.735Z" transform="translate(-661.658 -410.288)" fill="#b7d16e"/>
          <path id="Path_5967" data-name="Path 5967" d="M669.221,409.674a1.168,1.168,0,1,1-1.62.32A1.167,1.167,0,0,1,669.221,409.674Z" transform="translate(-665.926 -409.477)" fill="#b7d16e"/>
          <path id="Path_5968" data-name="Path 5968" d="M675.378,411.835a.653.653,0,1,1-.9.179A.652.652,0,0,1,675.378,411.835Z" transform="translate(-671.096 -411.147)" fill="#b7d16e"/>
          <path id="Path_5969" data-name="Path 5969" d="M664.812,420.994a.652.652,0,1,1-.905.179A.653.653,0,0,1,664.812,420.994Z" transform="translate(-663.247 -417.951)" fill="#b7d16e"/>
          <path id="Path_5970" data-name="Path 5970" d="M677.656,415.1a1.061,1.061,0,1,1-1.473.291A1.062,1.062,0,0,1,677.656,415.1Z" transform="translate(-672.315 -413.523)" fill="#b7d16e"/>
          <path id="Path_5971" data-name="Path 5971" d="M667.694,413.1a1.728,1.728,0,1,1-2.4.473A1.728,1.728,0,0,1,667.694,413.1Z" transform="translate(-664.144 -411.948)" fill="#b7d16e"/>
        </g>
      </g>
      <g id="Group_3936" data-name="Group 3936" transform="translate(571.545 340.224)">
        <path id="Path_5972" data-name="Path 5972" d="M613.6,482.207l.325-2.007-.165-.417a6.348,6.348,0,0,0-.417-1.251c-.087.921-1.154.859-1.043.581a1.093,1.093,0,0,0-.208-1.1c.087.469-.347,1.164-.643,1.026s-.069-1.529.122-1.686c-.608.122-.678,1.008-1.112,1.321a4.549,4.549,0,0,0-.256-2.207,3.031,3.031,0,0,1-.746,2.293,2.307,2.307,0,0,0-.006-1.616,2.231,2.231,0,0,1-1.581,1.971,4.7,4.7,0,0,0-.174-1.572,4.719,4.719,0,0,1-.747,2.173,3.658,3.658,0,0,0-.956-2.433,4.951,4.951,0,0,1,.278,2.589,3.888,3.888,0,0,0-.764-1.338,4.378,4.378,0,0,1,.122,2.172,2.451,2.451,0,0,0-2.1-2.276,2.472,2.472,0,0,1,1.529,2.693c-.278-.695-1.477-.869-2.085-.573a1.883,1.883,0,0,1,1.875,1.659Z" transform="translate(-602.969 -476.465)" fill="#7bad3e"/>
        <path id="Path_5973" data-name="Path 5973" d="M641.622,487.748H645.2a1.635,1.635,0,0,1,1.694-1.227c-.557-.235-1.655-.1-1.909.456a1.932,1.932,0,0,1,1.4-2.142,2.091,2.091,0,0,0-1.926,1.81,3.045,3.045,0,0,1,.112-1.727,3.006,3.006,0,0,0-.7,1.064,3.462,3.462,0,0,1,.254-2.059,2.708,2.708,0,0,0-.875,1.934c-.35-.539-.8-1.45-.684-1.727a3.279,3.279,0,0,0-.159,1.25,1.985,1.985,0,0,1-.783-.392Z" transform="translate(-631.684 -482.006)" fill="#7bad3e"/>
      </g>
    </g>
  </g>
</svg>
