<svg xmlns="http://www.w3.org/2000/svg" xmlns:xlink="http://www.w3.org/1999/xlink" width="49" height="49.258" viewBox="0 0 49 49.258">
  <defs>
    <linearGradient id="linear-gradient" x1="0.109" y1="0.014" x2="0.923" y2="0.858" gradientUnits="objectBoundingBox">
      <stop offset="0" stop-color="#ff9085"/>
      <stop offset="1" stop-color="#fb6fbb"/>
    </linearGradient>
    <linearGradient id="linear-gradient-2" x1="0.959" y1="-0.003" x2="1.67" y2="-0.797" gradientUnits="objectBoundingBox">
      <stop offset="0.004" stop-color="#e38ddd"/>
      <stop offset="1" stop-color="#9571f6"/>
    </linearGradient>
    <linearGradient id="linear-gradient-3" x1="4.876" y1="6.408" x2="6.109" y2="8.059" xlink:href="#linear-gradient-2"/>
    <clipPath id="clip-path">
      <path id="Path_5702" data-name="Path 5702" d="M2258.082,918.795a16.653,16.653,0,0,1-4.01-8c-.729-4.164.888-5.743.913-10.534.036-6.839-4.55-9.843-2.726-12.7a4.485,4.485,0,0,1,4.444-1.877c4.515,1,8.117,12.169,4.389,18.7-1.686,2.953-3.954,3.646-4.782,6.895C2255.579,914.143,2256.921,916.954,2258.082,918.795Z" transform="translate(-2251.831 -885.599)" fill="url(#linear-gradient)"/>
    </clipPath>
    <clipPath id="clip-path-2">
      <path id="Path_5708" data-name="Path 5708" d="M2339.491,1181.03a8.443,8.443,0,0,1-1.468-5.489c.51-3.977,4.346-4.352,6.145-9.142,1.45-3.863-.281-5.657,1.843-8.716.355-.512,2.206-3.284,4.543-3.074a3.793,3.793,0,0,1,2.37,1.319c2.516,2.869,1.327,9.53-2.091,13.792-1.964,2.449-2.975,2.348-6.776,5.843A27.357,27.357,0,0,0,2339.491,1181.03Z" transform="translate(-2337.971 -1154.597)" fill="url(#linear-gradient-2)"/>
    </clipPath>
    <linearGradient id="linear-gradient-6" x1="-3.062" y1="-0.991" x2="-4.474" y2="0.204" gradientUnits="objectBoundingBox">
      <stop offset="0" stop-color="#aa80f9"/>
      <stop offset="0.996" stop-color="#6165d7"/>
    </linearGradient>
    <clipPath id="clip-path-3">
      <path id="Path_5715" data-name="Path 5715" d="M515.416,1480.631a8.442,8.442,0,0,0,1.468-5.489c-.51-3.977-4.346-4.352-6.144-9.142-1.45-3.863.281-5.657-1.843-8.716-.355-.512-2.206-3.284-4.542-3.074a3.792,3.792,0,0,0-2.37,1.319c-2.516,2.869-1.327,9.53,2.091,13.792,1.964,2.449,2.975,2.348,6.776,5.843A27.358,27.358,0,0,1,515.416,1480.631Z" transform="translate(-500.638 -1454.198)" fill="url(#linear-gradient-3)"/>
    </clipPath>
    <linearGradient id="linear-gradient-8" x1="1.951" y1="-0.785" x2="0.539" y2="0.41" xlink:href="#linear-gradient"/>
    <linearGradient id="linear-gradient-9" x1="-0.402" y1="0.553" x2="0.417" y2="0.514" gradientUnits="objectBoundingBox">
      <stop offset="0" stop-color="#ab316d"/>
      <stop offset="1" stop-color="#792d3d"/>
    </linearGradient>
    <linearGradient id="linear-gradient-10" y1="0.5" x2="1" y2="0.5" gradientUnits="objectBoundingBox">
      <stop offset="0" stop-color="#ffc444"/>
      <stop offset="0.996" stop-color="#f36f56"/>
    </linearGradient>
    <linearGradient id="linear-gradient-12" x1="0.372" y1="0.438" x2="0.975" y2="1.516" xlink:href="#linear-gradient-10"/>
    <linearGradient id="linear-gradient-13" x1="0.281" y1="0.33" x2="0.838" y2="1.577" xlink:href="#linear-gradient-10"/>
    <linearGradient id="linear-gradient-14" x1="0.618" y1="-0.27" x2="0.232" y2="2.961" xlink:href="#linear-gradient-9"/>
    <linearGradient id="linear-gradient-15" x1="5.84" y1="-8.958" x2="-2.105" y2="5.114" xlink:href="#linear-gradient-9"/>
    <linearGradient id="linear-gradient-16" x1="4.325" y1="-6.276" x2="-3.62" y2="7.797" xlink:href="#linear-gradient-9"/>
    <linearGradient id="linear-gradient-17" x1="-0.164" y1="0.379" x2="-0.007" y2="0.414" xlink:href="#linear-gradient-6"/>
    <linearGradient id="linear-gradient-18" x1="0.409" y1="0.374" x2="1.055" y2="1.45" xlink:href="#linear-gradient-6"/>
    <linearGradient id="linear-gradient-19" x1="0.244" y1="0.028" x2="1.092" y2="1.589" gradientUnits="objectBoundingBox">
      <stop offset="0" stop-color="#444b8c"/>
      <stop offset="0.996" stop-color="#26264f"/>
    </linearGradient>
    <linearGradient id="linear-gradient-20" x1="0.053" y1="0.495" x2="1.058" y2="0.495" xlink:href="#linear-gradient"/>
    <linearGradient id="linear-gradient-21" x1="0.358" y1="-0.161" x2="1.035" y2="0.997" xlink:href="#linear-gradient-6"/>
    <linearGradient id="linear-gradient-22" x1="0" y1="0.5" x2="1" y2="0.5" xlink:href="#linear-gradient-6"/>
    <linearGradient id="linear-gradient-23" x1="-0.085" y1="0.5" x2="1.065" y2="0.5" gradientUnits="objectBoundingBox">
      <stop offset="0" stop-color="#fcb148"/>
      <stop offset="0.052" stop-color="#fdb946"/>
      <stop offset="0.142" stop-color="#fec144"/>
      <stop offset="0.318" stop-color="#ffc444"/>
      <stop offset="0.485" stop-color="#fdb946"/>
      <stop offset="0.775" stop-color="#f99c4c"/>
      <stop offset="0.866" stop-color="#f8924f"/>
      <stop offset="1" stop-color="#f8924f"/>
    </linearGradient>
    <linearGradient id="linear-gradient-24" x1="0.495" y1="0.179" x2="0.556" y2="4.091" gradientUnits="objectBoundingBox">
      <stop offset="0" stop-color="#ffdb44"/>
      <stop offset="1" stop-color="#feef06"/>
    </linearGradient>
    <linearGradient id="linear-gradient-25" x1="0.492" y1="-0.777" x2="0.511" y2="1.295" xlink:href="#linear-gradient-24"/>
    <linearGradient id="linear-gradient-26" x1="0.034" y1="-71.649" x2="0.053" y2="-69.217" gradientUnits="objectBoundingBox">
      <stop offset="0.004" stop-color="#f36f56"/>
      <stop offset="0.306" stop-color="#f99c4c"/>
      <stop offset="0.545" stop-color="#fdb946"/>
      <stop offset="0.682" stop-color="#ffc444"/>
      <stop offset="0.804" stop-color="#fec144"/>
      <stop offset="0.867" stop-color="#fdb946"/>
      <stop offset="0.916" stop-color="#fbac49"/>
      <stop offset="0.958" stop-color="#f8994d"/>
      <stop offset="0.995" stop-color="#f58152"/>
      <stop offset="1" stop-color="#f57e53"/>
    </linearGradient>
    <linearGradient id="linear-gradient-28" x1="0.495" y1="0.179" x2="0.556" y2="4.091" xlink:href="#linear-gradient-24"/>
    <linearGradient id="linear-gradient-30" x1="0.316" y1="-68.003" x2="0.335" y2="-65.571" xlink:href="#linear-gradient-26"/>
    <linearGradient id="linear-gradient-34" x1="0.072" y1="-64.368" x2="0.091" y2="-61.936" xlink:href="#linear-gradient-26"/>
    <linearGradient id="linear-gradient-38" x1="-0.075" y1="-60.722" x2="-0.056" y2="-58.29" xlink:href="#linear-gradient-26"/>
    <linearGradient id="linear-gradient-42" x1="0.034" y1="-56.788" x2="0.053" y2="-54.356" xlink:href="#linear-gradient-26"/>
    <linearGradient id="linear-gradient-46" x1="0.316" y1="-53.142" x2="0.335" y2="-50.71" xlink:href="#linear-gradient-26"/>
    <linearGradient id="linear-gradient-50" x1="0.072" y1="-49.507" x2="0.091" y2="-47.075" xlink:href="#linear-gradient-26"/>
    <linearGradient id="linear-gradient-54" x1="0.199" y1="-45.861" x2="0.218" y2="-43.429" xlink:href="#linear-gradient-26"/>
    <linearGradient id="linear-gradient-55" x1="2.083" y1="-0.464" x2="3.787" y2="-0.464" xlink:href="#linear-gradient-23"/>
    <linearGradient id="linear-gradient-56" x1="3.217" y1="-0.656" x2="3.32" y2="-0.036" xlink:href="#linear-gradient-24"/>
    <linearGradient id="linear-gradient-57" x1="3.211" y1="-0.682" x2="3.243" y2="-0.492" xlink:href="#linear-gradient-24"/>
    <linearGradient id="linear-gradient-58" x1="-6.079" y1="-3.298" x2="-6.046" y2="-3.105" xlink:href="#linear-gradient-26"/>
    <linearGradient id="linear-gradient-59" x1="-0.371" y1="-0.357" x2="0.347" y2="0.326" xlink:href="#linear-gradient-6"/>
    <linearGradient id="linear-gradient-60" x1="0.879" y1="0.041" x2="-0.08" y2="1.169" xlink:href="#linear-gradient-6"/>
    <linearGradient id="linear-gradient-61" x1="0.572" y1="-7.394" x2="0.485" y2="2.024" xlink:href="#linear-gradient-2"/>
    <linearGradient id="linear-gradient-62" x1="0.934" y1="0.071" x2="-0.244" y2="1.233" xlink:href="#linear-gradient-2"/>
    <linearGradient id="linear-gradient-63" x1="0.122" y1="0.072" x2="1.346" y2="1.46" xlink:href="#linear-gradient-9"/>
    <linearGradient id="linear-gradient-64" x1="0.275" y1="0.504" x2="2.544" y2="0.432" xlink:href="#linear-gradient-9"/>
    <linearGradient id="linear-gradient-65" x1="0.289" y1="0.507" x2="2.546" y2="0.437" xlink:href="#linear-gradient-9"/>
    <linearGradient id="linear-gradient-66" x1="0.369" y1="0.967" x2="1.705" y2="-3.322" xlink:href="#linear-gradient-9"/>
    <linearGradient id="linear-gradient-67" x1="0.945" y1="0.114" x2="0.274" y2="0.9" xlink:href="#linear-gradient-9"/>
    <linearGradient id="linear-gradient-68" x1="1.054" y1="-0.596" x2="0.38" y2="1.034" xlink:href="#linear-gradient-9"/>
    <linearGradient id="linear-gradient-69" x1="0.353" y1="0.561" x2="1.687" y2="0.327" xlink:href="#linear-gradient-9"/>
    <linearGradient id="linear-gradient-70" x1="0.388" y1="0.531" x2="1.791" y2="0.182" xlink:href="#linear-gradient-9"/>
    <linearGradient id="linear-gradient-71" x1="0.368" y1="0.954" x2="1.712" y2="-4.207" xlink:href="#linear-gradient-9"/>
  </defs>
  <g id="Group_3871" data-name="Group 3871" transform="translate(-402.576 -373.159)">
    <path id="Path_5696" data-name="Path 5696" d="M446.68,383.588c-10.235-12.889-34.466-13.61-41.59-3.387-3.926,5.633-2.285,14.053-1.476,18.208a33.2,33.2,0,0,0,5.965,13.611c1.946,2.533,6.673,8.687,13.785,10.093,12.152,2.4,27.316-9.833,28.156-23.639A22.618,22.618,0,0,0,446.68,383.588Z" fill="#f4f7fa"/>
    <g id="Group_3826" data-name="Group 3826" transform="translate(433.822 381.817)">
      <g id="Group_3820" data-name="Group 3820" transform="translate(0 0)">
        <g id="Group_3819" data-name="Group 3819">
          <path id="Path_5697" data-name="Path 5697" d="M2258.082,918.795a16.653,16.653,0,0,1-4.01-8c-.729-4.164.888-5.743.913-10.534.036-6.839-4.55-9.843-2.726-12.7a4.485,4.485,0,0,1,4.444-1.877c4.515,1,8.117,12.169,4.389,18.7-1.686,2.953-3.954,3.646-4.782,6.895C2255.579,914.143,2256.921,916.954,2258.082,918.795Z" transform="translate(-2251.831 -885.599)" fill="url(#linear-gradient)"/>
          <g id="Group_3818" data-name="Group 3818" clip-path="url(#clip-path)">
            <g id="Group_3817" data-name="Group 3817" transform="translate(-0.549 -0.217)" style="mix-blend-mode: soft-light;isolation: isolate">
              <path id="Path_5698" data-name="Path 5698" d="M2304.548,901.427a16.13,16.13,0,0,1-.18-2.758,15.162,15.162,0,0,1,1.1-5.162,37.294,37.294,0,0,0,1.207-4.064c.735-3.184.921-4.271.828-5.854a14.766,14.766,0,0,0-2.054-6.654,14.4,14.4,0,0,0-3.777-4.143l.036-.049a14.457,14.457,0,0,1,3.792,4.161,14.824,14.824,0,0,1,2.063,6.682c.093,1.59-.093,2.681-.829,5.871a37.394,37.394,0,0,1-1.209,4.07,15.112,15.112,0,0,0-1.093,5.143,16.081,16.081,0,0,0,.179,2.747Z" transform="translate(-2300.278 -872.744)" fill="#fff"/>
              <path id="Path_5699" data-name="Path 5699" d="M2226.3,892.976l-.021-.046a5.465,5.465,0,0,0-4.1-3.031,9.54,9.54,0,0,0-2.819-.14l-.008-.061a9.606,9.606,0,0,1,2.838.141,5.535,5.535,0,0,1,4.12,3.02,7.916,7.916,0,0,0,1.181-2.484,7.111,7.111,0,0,0-.924-5.869l.051-.033a7.169,7.169,0,0,1,.931,5.92,7.852,7.852,0,0,1-1.223,2.544Z" transform="translate(-2219.359 -884.274)" fill="#fff"/>
              <path id="Path_5700" data-name="Path 5700" d="M2378.826,1510.64h-.068l0-.025a6.262,6.262,0,0,0-2.214-4.123,5.107,5.107,0,0,0-1.755-.947l.014-.059a5.174,5.174,0,0,1,1.777.957,6.318,6.318,0,0,1,2.234,4.138h.008a6.574,6.574,0,0,0,5.565-3.113l.053.03a6.041,6.041,0,0,1-3.51,2.795A7.321,7.321,0,0,1,2378.826,1510.64Z" transform="translate(-2372.159 -1494.793)" fill="#fff"/>
              <path id="Path_5701" data-name="Path 5701" d="M2384.049,1774.54a3.5,3.5,0,0,1-1.051-.137l-.021-.007v-.022c.027-2.37-2.577-5.13-2.6-5.157l.044-.042c.027.028,2.631,2.787,2.621,5.177a4.116,4.116,0,0,0,1.685.08,7.58,7.58,0,0,0,4.106-2.152l.042.045a7.636,7.636,0,0,1-4.144,2.168A5.06,5.06,0,0,1,2384.049,1774.54Z" transform="translate(-2377.654 -1754.028)" fill="#fff"/>
            </g>
          </g>
        </g>
      </g>
      <g id="Group_3824" data-name="Group 3824" transform="translate(1.455 4.545)">
        <g id="Group_3823" data-name="Group 3823">
          <path id="Path_5703" data-name="Path 5703" d="M2339.491,1181.03a8.443,8.443,0,0,1-1.468-5.489c.51-3.977,4.346-4.352,6.145-9.142,1.45-3.863-.281-5.657,1.843-8.716.355-.512,2.206-3.284,4.543-3.074a3.793,3.793,0,0,1,2.37,1.319c2.516,2.869,1.327,9.53-2.091,13.792-1.964,2.449-2.975,2.348-6.776,5.843A27.357,27.357,0,0,0,2339.491,1181.03Z" transform="translate(-2337.971 -1154.597)" fill="url(#linear-gradient-2)"/>
          <g id="Group_3822" data-name="Group 3822" clip-path="url(#clip-path-2)">
            <g id="Group_3821" data-name="Group 3821" transform="translate(1.415 -1.375)" style="mix-blend-mode: soft-light;isolation: isolate">
              <path id="Path_5704" data-name="Path 5704" d="M2422.042,1102.747c-.672-3.406-.326-6.033,1.03-7.807a5.82,5.82,0,0,1,2.029-1.637,6.353,6.353,0,0,0,2.338-1.975,5.513,5.513,0,0,0,1.049-2.827,13.4,13.4,0,0,1,1.012-3.636,14.289,14.289,0,0,1,1.686-2.959,6.787,6.787,0,0,0,1.263-2.522,9.782,9.782,0,0,0-.61-6.17l.057-.023a9.84,9.84,0,0,1,.613,6.209,6.835,6.835,0,0,1-1.272,2.542,14.212,14.212,0,0,0-1.679,2.948,13.342,13.342,0,0,0-1.008,3.621,5.559,5.559,0,0,1-1.059,2.853,6.41,6.41,0,0,1-2.358,1.992,5.769,5.769,0,0,0-2.011,1.621c-1.345,1.759-1.688,4.369-1.019,7.758Z" transform="translate(-2421.709 -1073.191)" fill="#fff"/>
              <path id="Path_5705" data-name="Path 5705" d="M2806.9,1241.114l0-.041c0-.05-.437-4.985-2.794-6.1l.026-.055c2.274,1.078,2.778,5.632,2.825,6.112a9.193,9.193,0,0,0,4.531-3.81,8.68,8.68,0,0,0,1.045-2.458l.06.012a8.766,8.766,0,0,1-1.053,2.477,9.252,9.252,0,0,1-4.6,3.85Z" transform="translate(-2797.639 -1232.03)" fill="#fff"/>
              <path id="Path_5706" data-name="Path 5706" d="M2713.459,1545.4h-.05l0-.026a12.973,12.973,0,0,0-1.259-3.732,19.967,19.967,0,0,0-1.007-1.815l.051-.033a19.938,19.938,0,0,1,1.011,1.821,13.1,13.1,0,0,1,1.261,3.725,11.225,11.225,0,0,0,8.622-4.484l.049.036a11.285,11.285,0,0,1-8.674,4.509Z" transform="translate(-2706.249 -1531.91)" fill="#fff"/>
              <path id="Path_5707" data-name="Path 5707" d="M2586.024,1887.922a8.614,8.614,0,0,1-1.764-.152l-.031-.008.009-.031c.831-2.824-1.3-6.008-1.327-6.04l.051-.034c.022.032,2.158,3.216,1.344,6.06a13.43,13.43,0,0,0,7.765-1.218l.025.056A14.892,14.892,0,0,1,2586.024,1887.922Z" transform="translate(-2580.188 -1867.997)" fill="#fff"/>
            </g>
          </g>
        </g>
      </g>
      <g id="Group_3825" data-name="Group 3825" transform="translate(2.459 15.586)">
        <path id="Path_5709" data-name="Path 5709" d="M2397.386,1822.323a15.334,15.334,0,0,1,2.741-3.339c2.424-2.217,3.983-2.173,4.68-3.89.722-1.776-.607-2.663.3-4.689.076-.17,1.066-2.307,2.749-2.379a3.4,3.4,0,0,1,2.476,1.4c1.61,1.8,2.547,5.179.972,7.709-1.493,2.4-4.488,2.823-5.441,2.952-1.672.226-2.275-.208-3.956.067A9.441,9.441,0,0,0,2397.386,1822.323Z" transform="translate(-2397.386 -1808.023)" fill="url(#linear-gradient-6)"/>
      </g>
    </g>
    <g id="Group_3832" data-name="Group 3832" transform="translate(404.233 391.425)">
      <g id="Group_3830" data-name="Group 3830" transform="translate(0 0)">
        <g id="Group_3829" data-name="Group 3829">
          <path id="Path_5710" data-name="Path 5710" d="M515.416,1480.631a8.442,8.442,0,0,0,1.468-5.489c-.51-3.977-4.346-4.352-6.144-9.142-1.45-3.863.281-5.657-1.843-8.716-.355-.512-2.206-3.284-4.542-3.074a3.792,3.792,0,0,0-2.37,1.319c-2.516,2.869-1.327,9.53,2.091,13.792,1.964,2.449,2.975,2.348,6.776,5.843A27.358,27.358,0,0,1,515.416,1480.631Z" transform="translate(-500.638 -1454.198)" fill="url(#linear-gradient-3)"/>
          <g id="Group_3828" data-name="Group 3828" clip-path="url(#clip-path-3)">
            <g id="Group_3827" data-name="Group 3827" transform="translate(-1.001 -1.375)" style="mix-blend-mode: soft-light;isolation: isolate">
              <path id="Path_5711" data-name="Path 5711" d="M737.759,1402.349l-.06-.012c.669-3.388.326-6-1.019-7.758a5.77,5.77,0,0,0-2.011-1.621,6.407,6.407,0,0,1-2.358-1.992,5.563,5.563,0,0,1-1.06-2.853,13.345,13.345,0,0,0-1.008-3.621,14.21,14.21,0,0,0-1.679-2.948,6.837,6.837,0,0,1-1.273-2.542,9.841,9.841,0,0,1,.613-6.209l.057.023a9.78,9.78,0,0,0-.611,6.17,6.785,6.785,0,0,0,1.263,2.522,14.268,14.268,0,0,1,1.686,2.96,13.392,13.392,0,0,1,1.012,3.635,5.512,5.512,0,0,0,1.049,2.827,6.353,6.353,0,0,0,2.338,1.975,5.819,5.819,0,0,1,2.029,1.637C738.085,1396.316,738.432,1398.943,737.759,1402.349Z" transform="translate(-722.208 -1372.793)" fill="#fff"/>
              <path id="Path_5712" data-name="Path 5712" d="M502.451,1540.712l-.038-.015a9.254,9.254,0,0,1-4.6-3.85,8.749,8.749,0,0,1-1.053-2.477l.06-.012a8.689,8.689,0,0,0,1.047,2.46,9.193,9.193,0,0,0,4.53,3.808c.047-.48.551-5.035,2.825-6.112l.026.055c-2.358,1.118-2.79,6.053-2.794,6.1Z" transform="translate(-495.824 -1531.628)" fill="#fff"/>
              <path id="Path_5713" data-name="Path 5713" d="M450.059,1845a11.285,11.285,0,0,1-8.674-4.509l.049-.036a11.225,11.225,0,0,0,8.621,4.484,13.1,13.1,0,0,1,1.261-3.725,20.049,20.049,0,0,1,1.011-1.821l.051.033a19.96,19.96,0,0,0-1.008,1.816,12.98,12.98,0,0,0-1.259,3.731l0,.026h-.05Z" transform="translate(-441.385 -1831.509)" fill="#fff"/>
              <path id="Path_5714" data-name="Path 5714" d="M682.781,2187.523a14.887,14.887,0,0,1-6.072-1.367l.025-.056a13.434,13.434,0,0,0,7.765,1.218c-.814-2.844,1.322-6.028,1.344-6.06l.051.034c-.022.032-2.158,3.216-1.327,6.04l.009.031-.031.008A8.607,8.607,0,0,1,682.781,2187.523Z" transform="translate(-672.733 -2167.599)" fill="#fff"/>
            </g>
          </g>
        </g>
      </g>
      <g id="Group_3831" data-name="Group 3831" transform="translate(0.568 11.041)">
        <path id="Path_5716" data-name="Path 5716" d="M548.971,2121.923a15.361,15.361,0,0,0-2.741-3.339c-2.424-2.217-3.983-2.174-4.68-3.889-.722-1.776.608-2.663-.3-4.689-.076-.17-1.066-2.307-2.749-2.379a3.4,3.4,0,0,0-2.476,1.4c-1.61,1.8-2.547,5.179-.972,7.708,1.493,2.4,4.488,2.823,5.441,2.952,1.673.226,2.275-.208,3.956.067A9.45,9.45,0,0,1,548.971,2121.923Z" transform="translate(-534.245 -2107.624)" fill="url(#linear-gradient-8)"/>
      </g>
    </g>
    <g id="Group_3837" data-name="Group 3837" transform="translate(409.309 375.571)">
      <path id="Path_5717" data-name="Path 5717" d="M1253.373,529.853l-.034,0a.362.362,0,0,1-.35-.342,21.012,21.012,0,0,0-2.967-9.285c-1.422-2.23-3.115-3.561-4.529-3.561h0c-5.152.011-6.229,12.714-6.24,12.843a.36.36,0,0,1-.38.344.371.371,0,0,1-.32-.409c.044-.552,1.147-13.521,6.939-13.534h.006c1.671,0,3.533,1.417,5.109,3.889a21.817,21.817,0,0,1,3.087,9.641A.372.372,0,0,1,1253.373,529.853Z" transform="translate(-1231.156 -515.911)" fill="url(#linear-gradient-9)"/>
      <path id="Path_5718" data-name="Path 5718" d="M801.792,1258.714l6.781,3.688,4.109-13.543-6.77-18.156-1.92.506-2.913,26.075A1.441,1.441,0,0,0,801.792,1258.714Z" transform="translate(-801.07 -1218.625)" fill="url(#linear-gradient-10)"/>
      <path id="Path_5719" data-name="Path 5719" d="M995.089,1248.859l-6.77-18.156-1.132.3a42.494,42.494,0,0,0,.019,5.872c.454,6.181,1.961,7.9,1.231,12.214-.607,3.586-1.933,4.072-1.817,6.485.126,2.627,1.833,4.828,3.861,6.558l.5.272Z" transform="translate(-983.477 -1218.625)" opacity="0.3" fill="url(#linear-gradient-10)" style="mix-blend-mode: multiply;isolation: isolate"/>
      <path id="Path_5720" data-name="Path 5720" d="M1087.64,1230.7l25.538,1.39,8.116,27.626L1090.3,1262.4Z" transform="translate(-1082.798 -1218.625)" fill="url(#linear-gradient-12)"/>
      <g id="Group_3833" data-name="Group 3833" transform="translate(9.02 12.743)" opacity="0.3" style="mix-blend-mode: multiply;isolation: isolate">
        <path id="Path_5721" data-name="Path 5721" d="M1356.259,1270.8l-13.318-.725a3.622,3.622,0,0,0-.578,1.663c-.328,4.343,8.634,5.75,9.437,11.081.611,4.059-3.15,8.742-6.507,10.829-3.536,2.2-5.932,1.085-8.324,3.526a8.579,8.579,0,0,0-2.071,3.8l29.476-2.551Z" transform="translate(-1334.899 -1270.076)" fill="url(#linear-gradient-13)"/>
      </g>
      <path id="Path_5722" data-name="Path 5722" d="M1494.178,548.031a.358.358,0,0,1-.342-.292c-.072-.329-1.733-8.1.609-11.92a4.078,4.078,0,0,1,2.788-1.985c6.055-1.146,9.784,12.823,9.939,13.418a.382.382,0,0,1-.244.466.349.349,0,0,1-.434-.261c-.036-.139-3.706-13.909-9.14-12.879a3.358,3.358,0,0,0-2.323,1.656c-2.177,3.547-.529,11.254-.511,11.332a.38.38,0,0,1-.262.454A.328.328,0,0,1,1494.178,548.031Z" transform="translate(-1481.503 -533.466)" fill="url(#linear-gradient-14)"/>
      <ellipse id="Ellipse_133" data-name="Ellipse 133" cx="0.983" cy="1.056" rx="0.983" ry="1.056" transform="translate(11.695 13.566)" fill="url(#linear-gradient-15)"/>
      <ellipse id="Ellipse_134" data-name="Ellipse 134" cx="0.983" cy="1.056" rx="0.983" ry="1.056" transform="translate(24.513 13.468)" fill="url(#linear-gradient-16)"/>
      <path id="Path_5723" data-name="Path 5723" d="M1950.1,1640.381l-7.929-7.731a.557.557,0,0,0-.616-.117l-4.231,1.847a.652.652,0,0,0-.249.962l6.906,9.887a.561.561,0,0,0,.809.136l5.254-4A.66.66,0,0,0,1950.1,1640.381Zm-9.067-5.013c-.267.193-.688.023-.94-.38a.828.828,0,0,1,.027-1.079c.267-.193.688-.023.941.38A.828.828,0,0,1,1941.031,1635.367Z" transform="translate(-1917.763 -1613.619)" fill="#d8dee8"/>
      <path id="Path_5724" data-name="Path 5724" d="M1950.1,1634.135l-7.929-7.731a.557.557,0,0,0-.616-.117l-4.231,1.847a.652.652,0,0,0-.249.962l6.906,9.887a.561.561,0,0,0,.809.136l5.254-4A.66.66,0,0,0,1950.1,1634.135Zm-9.067-5.013c-.267.193-.688.023-.94-.38a.828.828,0,0,1,.027-1.079c.267-.193.688-.023.941.38A.828.828,0,0,1,1941.031,1629.122Z" transform="translate(-1917.763 -1607.48)" fill="#f4f7fa"/>
      <g id="Group_3834" data-name="Group 3834" transform="translate(11.707 13.504)">
        <path id="Path_5725" data-name="Path 5725" d="M1503.832,1321.378a.065.065,0,0,1-.06-.04,5.2,5.2,0,0,0-1.1-1.662c-1.25-1.248-2.863-1.444-4.423-1.634s-3.019-.367-3.9-1.6c-.222-.313-.566-.878-.381-1.15a.471.471,0,0,1,.439-.149.065.065,0,1,1-.006.13c-.116-.005-.267.006-.326.092-.1.145.051.538.38,1,.843,1.189,2.281,1.363,3.8,1.549,1.582.193,3.218.391,4.5,1.672a5.33,5.33,0,0,1,1.129,1.7.065.065,0,0,1-.035.085A.061.061,0,0,1,1503.832,1321.378Z" transform="translate(-1493.918 -1315.139)" fill="#26264f"/>
      </g>
      <g id="Group_3835" data-name="Group 3835" transform="translate(13.373 13.878)">
        <path id="Path_5726" data-name="Path 5726" d="M1601.434,1344.447a.065.065,0,0,1-.046-.111,2.023,2.023,0,0,0,.546-1.288,1.79,1.79,0,0,0-.609-1.274c-.853-.838-3.116-1.808-5.113-2.664-1.219-.522-2.37-1.016-3.126-1.441-.171-.1-.353-.188-.539-.272a.065.065,0,1,1,.054-.118c.19.086.374.179.549.277.75.422,1.9.914,3.113,1.435,2.007.86,4.282,1.836,5.153,2.69a1.914,1.914,0,0,1,.647,1.367,2.118,2.118,0,0,1-.584,1.379A.065.065,0,0,1,1601.434,1344.447Z" transform="translate(-1592.509 -1337.273)" fill="#26264f"/>
      </g>
      <path id="Path_5727" data-name="Path 5727" d="M2195.664,1634.136l-7.928-7.731a.557.557,0,0,0-.615-.117l-.377.165a5.5,5.5,0,0,0,.471,1.177c1.171,2.148,3.093,2.055,3.537,3.545.394,1.321-.926,2.029-1.1,3.883a5.544,5.544,0,0,0,1.174,3.705l4.784-3.645A.66.66,0,0,0,2195.664,1634.136Z" transform="translate(-2163.33 -1607.48)" fill="#fff"/>
      <g id="Group_3836" data-name="Group 3836" transform="translate(23.658 22.278)">
        <path id="Path_5728" data-name="Path 5728" d="M2202.779,1836.159c.434.718.345,1.314,0,1.555-.365.254-.888.064-1.278-.581-.37-.612-.39-1.26.019-1.544S2202.425,1835.573,2202.779,1836.159Zm-.876.664c.217.359.458.559.62.446s.095-.4-.138-.782c-.211-.348-.44-.572-.613-.451S2201.7,1836.479,2201.9,1836.822Zm1.772,2.308-.773-4.507.3-.211.77,4.509Zm1.688-2.747c.434.718.344,1.314,0,1.555s-.884.061-1.277-.581c-.371-.613-.39-1.26.018-1.545S2205.01,1835.8,2205.364,1836.383Zm-.872.661c.214.362.455.562.617.449s.1-.4-.138-.782c-.211-.349-.436-.574-.609-.453S2204.285,1836.7,2204.492,1837.044Z" transform="translate(-2201.217 -1834.413)" fill="#d8dee8"/>
      </g>
      <path id="Path_5729" data-name="Path 5729" d="M2338.232,2077.009a.31.31,0,0,1-.269-.163.352.352,0,0,1,.105-.464l3.818-2.49a.3.3,0,0,1,.432.113.352.352,0,0,1-.105.464l-3.818,2.49A.294.294,0,0,1,2338.232,2077.009Z" transform="translate(-2311.95 -2047.52)" fill="#d8dee8"/>
    </g>
    <g id="Group_3846" data-name="Group 3846" transform="translate(407.867 405.051)">
      <g id="Group_3842" data-name="Group 3842" transform="translate(0 0)">
        <path id="Path_5730" data-name="Path 5730" d="M738.4,2276.356a.639.639,0,0,1-.548.663l-21.279,1.3a.823.823,0,0,1-.858-.72v-14.891a.844.844,0,0,1,.869-.725l21.268.91a.626.626,0,0,1,.548.653Z" transform="translate(-715.719 -2261.959)" fill="url(#linear-gradient-17)"/>
        <path id="Path_5731" data-name="Path 5731" d="M755.367,2275.084a.642.642,0,0,1-.551.666l-21.506,1.275a.689.689,0,0,1-.738-.692v-14.963a.7.7,0,0,1,.738-.706l21.506.892a.629.629,0,0,1,.551.656Z" transform="translate(-732.287 -2260.662)" fill="url(#linear-gradient-18)"/>
        <g id="Group_3838" data-name="Group 3838" transform="translate(0.285 10.913)">
          <path id="Path_5732" data-name="Path 5732" d="M755.367,2906.557l-22.795,1.169v2.74l22.795-1.338Z" transform="translate(-732.572 -2906.557)" fill="url(#linear-gradient-19)"/>
        </g>
        <g id="Group_3841" data-name="Group 3841" transform="translate(2.439 2.287)">
          <g id="Group_3839" data-name="Group 3839" transform="translate(0 0.079)" opacity="0.15" style="mix-blend-mode: multiply;isolation: isolate">
            <path id="Path_5733" data-name="Path 5733" d="M864.612,2403.292a2.3,2.3,0,1,1-2.131-2.575A2.3,2.3,0,0,1,864.612,2403.292Zm-3.063-.033c-.013.887.277,1.532.844,1.542.546.01.818-.546.832-1.477.013-.841-.2-1.505-.8-1.541C861.846,2401.75,861.562,2402.412,861.549,2403.26Zm1.2,5.467,4.109-7.44a.416.416,0,0,1,.4-.214h0a.416.416,0,0,1,.334.614l-4.064,7.438a.415.415,0,0,1-.346.216l-.045,0A.416.416,0,0,1,862.747,2408.727Zm7.031-2.1c-.024,1.575-.937,2.437-1.95,2.481-1.09.048-1.969-.821-1.958-2.318.022-1.424.851-2.482,2.084-2.448C869.155,2404.377,869.8,2405.345,869.778,2406.63Zm-2.61.1c-.024.819.223,1.4.708,1.387.467-.013.7-.539.713-1.4.012-.778-.161-1.382-.671-1.388S867.18,2405.951,867.168,2406.733Z" transform="translate(-860.039 -2400.71)" fill="url(#linear-gradient-20)"/>
          </g>
          <g id="Group_3840" data-name="Group 3840" transform="translate(0.198)">
            <path id="Path_5734" data-name="Path 5734" d="M876.357,2398.605a2.305,2.305,0,1,1-4.573-.038,2.3,2.3,0,1,1,4.573.038Zm-3.063-.032c-.013.887.277,1.532.844,1.542.546.01.818-.546.832-1.477.013-.842-.2-1.505-.8-1.541C873.591,2397.063,873.307,2397.725,873.295,2398.573Zm1.2,5.467,4.109-7.44a.416.416,0,0,1,.4-.214h0a.416.416,0,0,1,.334.614l-4.064,7.438a.415.415,0,0,1-.347.216l-.045,0A.416.416,0,0,1,874.492,2404.04Zm7.031-2.1c-.024,1.575-.937,2.437-1.95,2.481-1.09.048-1.969-.821-1.958-2.318.022-1.423.851-2.482,2.084-2.449C880.9,2399.69,881.542,2400.657,881.523,2401.943Zm-2.61.1c-.024.819.223,1.4.708,1.388.467-.014.7-.539.713-1.4.012-.778-.161-1.382-.671-1.388S878.925,2401.264,878.913,2402.046Z" transform="translate(-871.784 -2396.023)" fill="#fff"/>
          </g>
        </g>
        <path id="Path_5735" data-name="Path 5735" d="M812.167,2262.189l-21.258-.881c.959,2.842,2.334,4.114,3.514,4.737,2.247,1.186,3.858.053,5.784,1.589,1.976,1.576,1.224,3.521,3.305,4.831,1.564.985,2.573.254,4.2,1.144a5.78,5.78,0,0,1,2.433,2.9l2.027-.12a.643.643,0,0,0,.551-.666v-12.873A.629.629,0,0,0,812.167,2262.189Z" transform="translate(-789.639 -2261.297)" opacity="0.3" fill="url(#linear-gradient-21)" style="mix-blend-mode: multiply;isolation: isolate"/>
        <path id="Path_5736" data-name="Path 5736" d="M1521.955,2687.892l-.519-.492-.492.519-.519-.492-.492.519-.519-.492-.492.519-.519-.492-.492.519-.519-.492-.492.519-.519-.492-.492.519-.519-.492-.492.519-.519-.492-.492.519-.663-.629v7.77a.657.657,0,0,1-.565.562l9.174-.673a.748.748,0,0,0,.291-.083.722.722,0,0,0,.15-.441v-7.034Z" transform="translate(-1499.175 -2680.189)" opacity="0.3" fill="url(#linear-gradient-22)" style="mix-blend-mode: multiply;isolation: isolate"/>
      </g>
      <g id="Group_3845" data-name="Group 3845" transform="translate(14.349 7.445)">
        <path id="Path_5737" data-name="Path 5737" d="M1575.019,2701.277v7.078a.763.763,0,0,1-.708.752l-2.909.213-6.286.46a.631.631,0,0,0,.55-.562v-7.77l.676.629.354-.366.148-.153.52.492.493-.519.519.492.492-.519.519.492.492-.519.519.492.492-.519.519.492.492-.519.519.492.492-.519.519.492.492-.519.529.492Z" transform="translate(-1565.114 -2701.277)" fill="#fff"/>
        <g id="Group_3843" data-name="Group 3843" transform="translate(7.575 1.593)">
          <path id="Path_5738" data-name="Path 5738" d="M2014.583,2944.544l-1.135.051a.143.143,0,0,0-.136.143v.521a.143.143,0,0,0,.151.143l1.134-.064a.143.143,0,0,0,.135-.143v-.508A.143.143,0,0,0,2014.583,2944.544Z" transform="translate(-2013.312 -2942.027)" fill="#d8dee8"/>
          <path id="Path_5739" data-name="Path 5739" d="M2014.581,3004.1l-1.135.064a.143.143,0,0,0-.135.143v.544a.143.143,0,0,0,.152.143l1.134-.073a.143.143,0,0,0,.134-.143v-.535A.143.143,0,0,0,2014.581,3004.1Z" transform="translate(-2013.312 -3000.573)" fill="#d8dee8"/>
          <path id="Path_5740" data-name="Path 5740" d="M2014.732,2796.616v-.932a.143.143,0,0,0-.148-.143l-1.134.041a.143.143,0,0,0-.138.143v.942a.143.143,0,0,0,.149.143l1.134-.051A.143.143,0,0,0,2014.732,2796.616Z" transform="translate(-2013.312 -2795.542)" fill="#d8dee8"/>
        </g>
        <g id="Group_3844" data-name="Group 3844" transform="translate(1.733 1.678)">
          <path id="Path_5741" data-name="Path 5741" d="M1672.307,2950.834l-4.62.208a.143.143,0,0,0-.136.143v.587a.143.143,0,0,0,.151.143l4.619-.26a.143.143,0,0,0,.135-.143v-.534A.143.143,0,0,0,1672.307,2950.834Z" transform="translate(-1667.551 -2948.295)" fill="#d8dee8"/>
          <path id="Path_5742" data-name="Path 5742" d="M1672.305,3011.962l-4.62.26a.143.143,0,0,0-.135.143v.587a.143.143,0,0,0,.152.143l4.62-.295a.143.143,0,0,0,.134-.142v-.553A.143.143,0,0,0,1672.305,3011.962Z" transform="translate(-1667.551 -3008.39)" fill="#d8dee8"/>
          <path id="Path_5743" data-name="Path 5743" d="M1672.456,2801.659v-.953a.143.143,0,0,0-.148-.143l-4.62.166a.143.143,0,0,0-.138.143v1a.142.142,0,0,0,.149.143l4.62-.208A.142.142,0,0,0,1672.456,2801.659Z" transform="translate(-1667.551 -2800.563)" fill="#d8dee8"/>
        </g>
        <path id="Path_5744" data-name="Path 5744" d="M1571.253,2719.247l-6.283.46a.634.634,0,0,0,.552-.562v-7.77l.676.629.354-.366a2.034,2.034,0,0,1,.6,1.376c.22,2.263,1.28,2.115,2.532,2.2a1.819,1.819,0,0,1,1.321,2.653A1.171,1.171,0,0,0,1571.253,2719.247Z" transform="translate(-1564.97 -2711.204)" fill="#f4f7fa" opacity="0.4" style="mix-blend-mode: multiply;isolation: isolate"/>
      </g>
    </g>
    <g id="Group_3865" data-name="Group 3865" transform="translate(406.405 413.369)">
      <g id="Group_3848" data-name="Group 3848" transform="translate(1.163 6.893)">
        <path id="Path_5745" data-name="Path 5745" d="M698.188,3193.029v.928c0,.3,1.873.543,4.183.543s4.183-.243,4.183-.543v-.928Z" transform="translate(-698.186 -3192.487)" fill="url(#linear-gradient-23)"/>
        <path id="Path_5746" data-name="Path 5746" d="M706.554,3161.446c0,.3-1.873.543-4.183.543s-4.183-.243-4.183-.543,1.873-.543,4.183-.543S706.554,3161.146,706.554,3161.446Z" transform="translate(-698.186 -3160.903)" fill="url(#linear-gradient-24)"/>
        <path id="Path_5747" data-name="Path 5747" d="M702.229,3190.75c-2.046,0-4.185-.2-4.185-.572,0-.021.007-.057.028-.057s.012.029.012.049c0,.239,1.7.505,4.145.505s4.146-.266,4.146-.505c0-.021,0-.04.024-.04s.016.028.016.048C706.415,3190.554,704.275,3190.75,702.229,3190.75Z" transform="translate(-698.044 -3189.626)" fill="url(#linear-gradient-25)"/>
        <g id="Group_3847" data-name="Group 3847" transform="translate(1.55 0.337)">
          <path id="Path_5748" data-name="Path 5748" d="M792.039,3181.094c.041-.029.085-.057.131-.084a.835.835,0,0,1,.18-.075,1.714,1.714,0,0,1,.276-.054,3.45,3.45,0,0,1,.413-.023q.242,0,.455.016a3.147,3.147,0,0,1,.374.049,1.161,1.161,0,0,1,.263.082.207.207,0,0,1,.12.111l.471,0a.487.487,0,0,1,.09.008c.026.006.039.012.039.021v.039l-.605-.006a.3.3,0,0,1-.162.13,1.634,1.634,0,0,1-.332.1l-.22-.031a.235.235,0,0,1-.049-.011c-.013,0-.019-.01-.019-.015s.017-.016.051-.026l.115-.035a1.181,1.181,0,0,0,.126-.05.173.173,0,0,0,.083-.069l-1.429-.014a1.268,1.268,0,0,1-.126.081.81.81,0,0,1-.185.072,1.93,1.93,0,0,1-.288.052,4,4,0,0,1-.434.021c-.131,0-.258,0-.383-.015a2.621,2.621,0,0,1-.333-.047,1.046,1.046,0,0,1-.239-.078c-.062-.031-.1-.067-.1-.107l-.388,0a.514.514,0,0,1-.092-.008c-.027-.005-.04-.012-.04-.021v-.039l.53,0a.286.286,0,0,1,.145-.107,1.649,1.649,0,0,1,.269-.081l.178.024c.054.007.081.016.081.027s-.011.012-.033.02l-.08.029a.724.724,0,0,0-.088.04.193.193,0,0,0-.065.052Zm-1.308.053a.14.14,0,0,0,.07.066.541.541,0,0,0,.135.046,1.336,1.336,0,0,0,.182.026q.1.008.212.008a2.193,2.193,0,0,0,.225-.011,1.278,1.278,0,0,0,.168-.029.782.782,0,0,0,.126-.042.7.7,0,0,0,.1-.052Zm3.111-.035a.145.145,0,0,0-.077-.068.672.672,0,0,0-.155-.049,1.745,1.745,0,0,0-.22-.03c-.083-.006-.175-.009-.276-.009a2.066,2.066,0,0,0-.231.012,1.244,1.244,0,0,0-.168.031.635.635,0,0,0-.121.045.84.84,0,0,0-.093.054Z" transform="translate(-789.799 -3180.858)" fill="#fcb048"/>
        </g>
        <path id="Path_5749" data-name="Path 5749" d="M706.2,3164.381c-1.865,0-3.807.164-4.118.482a.315.315,0,0,1,.034.036,11.564,11.564,0,0,1,4.084-.443c2.275,0,3.9.234,4.1.46a.45.45,0,0,1,.031-.035C710.077,3164.551,708.1,3164.381,706.2,3164.381Z" transform="translate(-702.015 -3164.322)" fill="url(#linear-gradient-26)"/>
      </g>
      <g id="Group_3850" data-name="Group 3850" transform="translate(0 5.918)">
        <path id="Path_5750" data-name="Path 5750" d="M629.369,3135.353v.928c0,.3,1.873.543,4.183.543s4.183-.243,4.183-.543v-.928Z" transform="translate(-629.367 -3134.81)" fill="url(#linear-gradient-23)"/>
        <path id="Path_5751" data-name="Path 5751" d="M637.735,3103.77c0,.3-1.873.543-4.183.543s-4.183-.243-4.183-.543,1.873-.543,4.183-.543S637.735,3103.47,637.735,3103.77Z" transform="translate(-629.367 -3103.227)" fill="url(#linear-gradient-28)"/>
        <path id="Path_5752" data-name="Path 5752" d="M633.409,3133.074c-2.046,0-4.185-.2-4.185-.572,0-.021.007-.057.028-.057s.012.028.012.049c0,.239,1.7.505,4.145.505s4.146-.266,4.146-.505c0-.021,0-.04.024-.04s.016.028.016.049C637.595,3132.879,635.455,3133.074,633.409,3133.074Z" transform="translate(-629.224 -3131.951)" fill="url(#linear-gradient-25)"/>
        <g id="Group_3849" data-name="Group 3849" transform="translate(1.55 0.337)">
          <path id="Path_5753" data-name="Path 5753" d="M723.219,3123.418c.041-.028.085-.056.132-.084a.813.813,0,0,1,.18-.075,1.732,1.732,0,0,1,.276-.055,3.632,3.632,0,0,1,.413-.022q.243,0,.455.015a3.094,3.094,0,0,1,.374.05,1.165,1.165,0,0,1,.263.081.209.209,0,0,1,.12.112l.471,0a.432.432,0,0,1,.09.008c.026.005.039.012.039.021v.039l-.605-.006a.305.305,0,0,1-.162.13,1.65,1.65,0,0,1-.332.1l-.221-.031a.251.251,0,0,1-.049-.012c-.013,0-.019-.01-.019-.015s.017-.016.051-.025l.115-.036a1.171,1.171,0,0,0,.126-.05.172.172,0,0,0,.083-.069l-1.429-.014a1.4,1.4,0,0,1-.126.082.821.821,0,0,1-.185.072,1.9,1.9,0,0,1-.288.052,4.059,4.059,0,0,1-.434.021c-.131,0-.258,0-.383-.015a2.712,2.712,0,0,1-.333-.047,1.044,1.044,0,0,1-.239-.078c-.062-.031-.1-.067-.1-.107l-.388,0a.515.515,0,0,1-.092-.008c-.027,0-.04-.012-.04-.021v-.039l.53.005a.284.284,0,0,1,.145-.107,1.677,1.677,0,0,1,.269-.081l.178.024c.054.008.081.016.081.027s-.011.012-.033.021l-.08.029a.766.766,0,0,0-.088.04.183.183,0,0,0-.065.052Zm-1.308.053a.14.14,0,0,0,.07.066.563.563,0,0,0,.135.045,1.371,1.371,0,0,0,.182.026c.067.005.138.008.212.008s.161,0,.225-.011a1.319,1.319,0,0,0,.168-.029.751.751,0,0,0,.126-.042.655.655,0,0,0,.1-.052Zm3.111-.035a.146.146,0,0,0-.077-.068.685.685,0,0,0-.155-.049,1.666,1.666,0,0,0-.22-.029q-.125-.01-.276-.009a2.188,2.188,0,0,0-.231.012,1.209,1.209,0,0,0-.168.031.6.6,0,0,0-.121.045.887.887,0,0,0-.093.054Z" transform="translate(-720.979 -3123.183)" fill="#fcb048"/>
        </g>
        <path id="Path_5754" data-name="Path 5754" d="M637.38,3106.705c-1.865,0-3.807.164-4.118.482a.4.4,0,0,1,.034.036,11.573,11.573,0,0,1,4.084-.443c2.275,0,3.9.234,4.1.459a.444.444,0,0,1,.031-.035C641.256,3106.875,639.278,3106.705,637.38,3106.705Z" transform="translate(-633.194 -3106.646)" fill="url(#linear-gradient-30)"/>
      </g>
      <g id="Group_3852" data-name="Group 3852" transform="translate(1.003 4.947)">
        <path id="Path_5755" data-name="Path 5755" d="M688.75,3077.846v.928c0,.3,1.873.543,4.183.543s4.183-.243,4.183-.543v-.928Z" transform="translate(-688.748 -3077.303)" fill="url(#linear-gradient-23)"/>
        <path id="Path_5756" data-name="Path 5756" d="M697.116,3046.263c0,.3-1.873.543-4.183.543s-4.183-.243-4.183-.543,1.873-.543,4.183-.543S697.116,3045.963,697.116,3046.263Z" transform="translate(-688.748 -3045.72)" fill="url(#linear-gradient-28)"/>
        <path id="Path_5757" data-name="Path 5757" d="M692.792,3075.567c-2.046,0-4.185-.2-4.185-.572,0-.021.007-.057.028-.057s.012.029.012.049c0,.239,1.7.505,4.145.505s4.146-.266,4.146-.505c0-.021,0-.04.024-.04s.016.028.016.048C696.978,3075.372,694.838,3075.567,692.792,3075.567Z" transform="translate(-688.607 -3074.444)" fill="url(#linear-gradient-25)"/>
        <g id="Group_3851" data-name="Group 3851" transform="translate(1.55 0.337)">
          <path id="Path_5758" data-name="Path 5758" d="M782.6,3065.911c.041-.028.085-.056.131-.084a.824.824,0,0,1,.18-.075,1.772,1.772,0,0,1,.276-.054,3.507,3.507,0,0,1,.413-.022c.162,0,.313,0,.455.015a3.143,3.143,0,0,1,.374.05,1.163,1.163,0,0,1,.263.082.209.209,0,0,1,.12.111l.471,0a.448.448,0,0,1,.09.008c.026.005.039.012.039.02v.039l-.605-.006a.3.3,0,0,1-.162.13,1.634,1.634,0,0,1-.332.1l-.22-.031a.234.234,0,0,1-.049-.012c-.013,0-.019-.009-.019-.015s.017-.016.051-.025.073-.021.115-.036a1.032,1.032,0,0,0,.126-.05.172.172,0,0,0,.083-.069l-1.429-.014a1.338,1.338,0,0,1-.126.081.777.777,0,0,1-.185.072,1.962,1.962,0,0,1-.288.052,4.134,4.134,0,0,1-.434.021c-.131,0-.259,0-.383-.015a2.671,2.671,0,0,1-.333-.047,1.046,1.046,0,0,1-.239-.078c-.062-.031-.1-.067-.1-.107l-.388,0a.517.517,0,0,1-.092-.008c-.027-.005-.04-.012-.04-.021v-.039l.53.005a.284.284,0,0,1,.145-.107,1.6,1.6,0,0,1,.269-.081l.178.024c.054.007.081.017.081.026s-.011.012-.033.021l-.08.029a.67.67,0,0,0-.088.04.189.189,0,0,0-.065.051Zm-1.308.053a.14.14,0,0,0,.07.066.572.572,0,0,0,.135.045,1.372,1.372,0,0,0,.181.026c.068.006.138.008.212.008a2.133,2.133,0,0,0,.225-.011,1.321,1.321,0,0,0,.168-.029.738.738,0,0,0,.126-.042.675.675,0,0,0,.1-.052Zm3.111-.035a.143.143,0,0,0-.077-.067.686.686,0,0,0-.155-.049,1.709,1.709,0,0,0-.22-.029c-.083-.007-.175-.009-.276-.009a2.2,2.2,0,0,0-.231.012,1.246,1.246,0,0,0-.168.03.634.634,0,0,0-.121.045.855.855,0,0,0-.093.055Z" transform="translate(-780.362 -3065.675)" fill="#fcb048"/>
        </g>
        <path id="Path_5759" data-name="Path 5759" d="M696.763,3049.2c-1.865,0-3.807.164-4.118.482a.433.433,0,0,1,.034.036,11.582,11.582,0,0,1,4.084-.442c2.275,0,3.9.233,4.1.459a.419.419,0,0,1,.031-.036C700.639,3049.368,698.661,3049.2,696.763,3049.2Z" transform="translate(-692.577 -3049.139)" fill="url(#linear-gradient-34)"/>
      </g>
      <g id="Group_3854" data-name="Group 3854" transform="translate(1.612 3.972)">
        <path id="Path_5760" data-name="Path 5760" d="M724.786,3020.171v.928c0,.3,1.873.543,4.183.543s4.183-.243,4.183-.543v-.928Z" transform="translate(-724.784 -3019.628)" fill="url(#linear-gradient-23)"/>
        <ellipse id="Ellipse_135" data-name="Ellipse 135" cx="4.183" cy="0.543" rx="4.183" ry="0.543" transform="translate(0.002)" fill="url(#linear-gradient-28)"/>
        <path id="Path_5761" data-name="Path 5761" d="M728.826,3017.891c-2.046,0-4.185-.2-4.185-.572,0-.021.007-.057.028-.057s.012.028.012.049c0,.239,1.7.505,4.145.505s4.146-.266,4.146-.505c0-.021,0-.04.024-.04s.016.028.016.048C733.012,3017.7,730.872,3017.891,728.826,3017.891Z" transform="translate(-724.641 -3016.768)" fill="url(#linear-gradient-25)"/>
        <g id="Group_3853" data-name="Group 3853" transform="translate(1.55 0.337)">
          <path id="Path_5762" data-name="Path 5762" d="M818.637,3008.235c.041-.028.085-.056.132-.084a.813.813,0,0,1,.18-.075,1.709,1.709,0,0,1,.276-.055,3.57,3.57,0,0,1,.413-.022q.242,0,.455.015a3.142,3.142,0,0,1,.374.05,1.177,1.177,0,0,1,.263.081.21.21,0,0,1,.12.112l.471,0a.449.449,0,0,1,.09.008c.026.006.039.012.039.021v.039l-.605-.006a.3.3,0,0,1-.162.13,1.65,1.65,0,0,1-.332.1l-.221-.031a.251.251,0,0,1-.049-.011c-.013,0-.019-.01-.019-.015s.017-.016.051-.025l.115-.036a1.124,1.124,0,0,0,.126-.05.171.171,0,0,0,.083-.069l-1.429-.014a1.355,1.355,0,0,1-.126.082.843.843,0,0,1-.185.072,1.963,1.963,0,0,1-.288.052,4.067,4.067,0,0,1-.434.021c-.131,0-.259,0-.383-.015a2.618,2.618,0,0,1-.333-.047,1.057,1.057,0,0,1-.239-.078c-.062-.031-.1-.067-.1-.107l-.388,0a.539.539,0,0,1-.092-.008c-.027-.005-.04-.012-.04-.021v-.039l.53,0a.285.285,0,0,1,.145-.107,1.7,1.7,0,0,1,.269-.081l.178.024c.054.007.081.016.081.027s-.011.012-.033.021l-.08.029a.771.771,0,0,0-.088.04.186.186,0,0,0-.065.052Zm-1.308.053a.143.143,0,0,0,.07.066.563.563,0,0,0,.135.045,1.37,1.37,0,0,0,.182.026q.1.008.212.008.129,0,.225-.011a1.276,1.276,0,0,0,.168-.029.752.752,0,0,0,.126-.042.7.7,0,0,0,.1-.052Zm3.111-.035a.146.146,0,0,0-.077-.068.672.672,0,0,0-.155-.049,1.7,1.7,0,0,0-.22-.03c-.083-.006-.175-.01-.276-.009a2.188,2.188,0,0,0-.231.012,1.206,1.206,0,0,0-.168.031.6.6,0,0,0-.121.044.9.9,0,0,0-.093.055Z" transform="translate(-816.397 -3008)" fill="#fcb048"/>
        </g>
        <path id="Path_5763" data-name="Path 5763" d="M732.8,2991.522c-1.865,0-3.807.164-4.118.482a.364.364,0,0,1,.034.035,11.572,11.572,0,0,1,4.084-.443c2.275,0,3.9.234,4.1.46a.426.426,0,0,1,.031-.035C736.673,2991.692,734.695,2991.522,732.8,2991.522Z" transform="translate(-728.611 -2991.463)" fill="url(#linear-gradient-38)"/>
      </g>
      <g id="Group_3856" data-name="Group 3856" transform="translate(1.163 2.921)">
        <path id="Path_5764" data-name="Path 5764" d="M698.188,2957.945v.928c0,.3,1.873.542,4.183.542s4.183-.243,4.183-.542v-.928Z" transform="translate(-698.186 -2957.403)" fill="url(#linear-gradient-23)"/>
        <path id="Path_5765" data-name="Path 5765" d="M706.554,2926.362c0,.3-1.873.543-4.183.543s-4.183-.243-4.183-.543,1.873-.543,4.183-.543S706.554,2926.062,706.554,2926.362Z" transform="translate(-698.186 -2925.819)" fill="url(#linear-gradient-24)"/>
        <path id="Path_5766" data-name="Path 5766" d="M702.229,2955.666c-2.046,0-4.185-.2-4.185-.572,0-.021.007-.057.028-.057s.012.028.012.049c0,.239,1.7.505,4.145.505s4.146-.266,4.146-.505c0-.021,0-.04.024-.04s.016.028.016.048C706.415,2955.47,704.275,2955.666,702.229,2955.666Z" transform="translate(-698.044 -2954.542)" fill="url(#linear-gradient-25)"/>
        <g id="Group_3855" data-name="Group 3855" transform="translate(1.55 0.337)">
          <path id="Path_5767" data-name="Path 5767" d="M792.039,2946.009c.041-.028.085-.056.131-.084a.822.822,0,0,1,.18-.075,1.739,1.739,0,0,1,.276-.054,3.569,3.569,0,0,1,.413-.022q.242,0,.455.015a3.143,3.143,0,0,1,.374.05,1.161,1.161,0,0,1,.263.082.208.208,0,0,1,.12.111l.471,0a.448.448,0,0,1,.09.008c.026.005.039.012.039.02v.039l-.605-.006a.306.306,0,0,1-.162.13,1.648,1.648,0,0,1-.332.1l-.22-.031a.235.235,0,0,1-.049-.011c-.013,0-.019-.01-.019-.015s.017-.016.051-.025.073-.021.115-.036a1.128,1.128,0,0,0,.126-.05.172.172,0,0,0,.083-.069l-1.429-.014a1.415,1.415,0,0,1-.126.081.8.8,0,0,1-.185.072,1.93,1.93,0,0,1-.288.052,4.057,4.057,0,0,1-.434.021c-.131,0-.258,0-.383-.015a2.621,2.621,0,0,1-.333-.047,1.046,1.046,0,0,1-.239-.078c-.062-.031-.1-.067-.1-.107l-.388,0a.514.514,0,0,1-.092-.008c-.027-.005-.04-.012-.04-.021v-.039l.53.005a.284.284,0,0,1,.145-.107,1.647,1.647,0,0,1,.269-.081l.178.024c.054.008.081.016.081.027s-.011.012-.033.021l-.08.029a.727.727,0,0,0-.088.04.187.187,0,0,0-.065.052Zm-1.308.053a.141.141,0,0,0,.07.066.562.562,0,0,0,.135.045,1.371,1.371,0,0,0,.182.026q.1.008.212.008a2.187,2.187,0,0,0,.225-.011,1.281,1.281,0,0,0,.168-.028.757.757,0,0,0,.126-.042.675.675,0,0,0,.1-.052Zm3.111-.035a.145.145,0,0,0-.077-.068.684.684,0,0,0-.155-.049,1.708,1.708,0,0,0-.22-.029q-.125-.01-.276-.009a2.19,2.19,0,0,0-.231.012,1.172,1.172,0,0,0-.168.031.6.6,0,0,0-.121.045.881.881,0,0,0-.093.054Z" transform="translate(-789.799 -2945.773)" fill="#fcb048"/>
        </g>
        <path id="Path_5768" data-name="Path 5768" d="M706.2,2929.3c-1.865,0-3.807.164-4.118.482a.389.389,0,0,1,.034.036,11.573,11.573,0,0,1,4.084-.443c2.275,0,3.9.234,4.1.459a.41.41,0,0,1,.031-.035C710.077,2929.466,708.1,2929.3,706.2,2929.3Z" transform="translate(-702.015 -2929.237)" fill="url(#linear-gradient-42)"/>
      </g>
      <g id="Group_3858" data-name="Group 3858" transform="translate(0 1.946)">
        <path id="Path_5769" data-name="Path 5769" d="M629.369,2900.269v.928c0,.3,1.873.543,4.183.543s4.183-.243,4.183-.543v-.928Z" transform="translate(-629.367 -2899.726)" fill="url(#linear-gradient-23)"/>
        <ellipse id="Ellipse_136" data-name="Ellipse 136" cx="4.183" cy="0.543" rx="4.183" ry="0.543" transform="translate(0.002)" fill="url(#linear-gradient-28)"/>
        <path id="Path_5770" data-name="Path 5770" d="M633.409,2897.99c-2.046,0-4.185-.2-4.185-.572,0-.021.007-.057.028-.057s.012.029.012.049c0,.239,1.7.506,4.145.506s4.146-.266,4.146-.506c0-.021,0-.04.024-.04s.016.028.016.048C637.595,2897.794,635.455,2897.99,633.409,2897.99Z" transform="translate(-629.224 -2896.866)" fill="url(#linear-gradient-25)"/>
        <g id="Group_3857" data-name="Group 3857" transform="translate(1.55 0.337)">
          <path id="Path_5771" data-name="Path 5771" d="M723.219,2888.334c.041-.028.085-.056.132-.084a.813.813,0,0,1,.18-.075,1.682,1.682,0,0,1,.276-.055,3.516,3.516,0,0,1,.413-.022q.243,0,.455.015a3.042,3.042,0,0,1,.374.05,1.165,1.165,0,0,1,.263.081.209.209,0,0,1,.12.111l.471.005a.432.432,0,0,1,.09.008c.026.006.039.012.039.02v.039l-.605-.006a.3.3,0,0,1-.162.13,1.65,1.65,0,0,1-.332.1l-.221-.031a.272.272,0,0,1-.049-.011c-.013,0-.019-.01-.019-.015s.017-.016.051-.025.073-.021.115-.036a1.169,1.169,0,0,0,.126-.05.173.173,0,0,0,.083-.069l-1.429-.014a1.346,1.346,0,0,1-.126.082.831.831,0,0,1-.185.072,1.966,1.966,0,0,1-.288.052,4.125,4.125,0,0,1-.434.021c-.131,0-.258,0-.383-.015a2.618,2.618,0,0,1-.333-.048,1.033,1.033,0,0,1-.239-.078c-.062-.031-.1-.067-.1-.107l-.388,0a.494.494,0,0,1-.092-.008c-.027-.005-.04-.012-.04-.021v-.039l.53.005a.285.285,0,0,1,.145-.107,1.7,1.7,0,0,1,.269-.081l.178.024c.054.008.081.017.081.027s-.011.012-.033.02l-.08.029a.727.727,0,0,0-.088.04.185.185,0,0,0-.065.052Zm-1.308.053a.14.14,0,0,0,.07.066.574.574,0,0,0,.135.045,1.371,1.371,0,0,0,.182.026q.1.008.212.008.129,0,.225-.011a1.363,1.363,0,0,0,.168-.029.751.751,0,0,0,.126-.042.679.679,0,0,0,.1-.052Zm3.111-.035a.146.146,0,0,0-.077-.068.685.685,0,0,0-.155-.049,1.7,1.7,0,0,0-.22-.03q-.125-.01-.276-.009a2.124,2.124,0,0,0-.231.012,1.174,1.174,0,0,0-.168.031.618.618,0,0,0-.121.045.81.81,0,0,0-.093.055Z" transform="translate(-720.979 -2888.099)" fill="#fcb048"/>
        </g>
        <path id="Path_5772" data-name="Path 5772" d="M637.38,2871.62c-1.865,0-3.807.164-4.118.482a.407.407,0,0,1,.034.036,11.573,11.573,0,0,1,4.084-.443c2.275,0,3.9.234,4.1.46a.345.345,0,0,1,.031-.035C641.256,2871.791,639.278,2871.62,637.38,2871.62Z" transform="translate(-633.194 -2871.561)" fill="url(#linear-gradient-46)"/>
      </g>
      <g id="Group_3860" data-name="Group 3860" transform="translate(1.003 0.975)">
        <path id="Path_5773" data-name="Path 5773" d="M688.75,2842.763v.927c0,.3,1.873.543,4.183.543s4.183-.243,4.183-.543v-.927Z" transform="translate(-688.748 -2842.22)" fill="url(#linear-gradient-23)"/>
        <ellipse id="Ellipse_137" data-name="Ellipse 137" cx="4.183" cy="0.543" rx="4.183" ry="0.543" transform="translate(0.002)" fill="url(#linear-gradient-28)"/>
        <path id="Path_5774" data-name="Path 5774" d="M692.792,2840.482c-2.046,0-4.185-.2-4.185-.572,0-.021.007-.057.028-.057s.012.028.012.049c0,.239,1.7.505,4.145.505s4.146-.266,4.146-.505c0-.021,0-.04.024-.04s.016.028.016.048C696.978,2840.287,694.838,2840.482,692.792,2840.482Z" transform="translate(-688.607 -2839.359)" fill="url(#linear-gradient-25)"/>
        <g id="Group_3859" data-name="Group 3859" transform="translate(1.55 0.337)">
          <path id="Path_5775" data-name="Path 5775" d="M782.6,2830.827c.041-.028.085-.056.131-.084a.836.836,0,0,1,.18-.075,1.766,1.766,0,0,1,.276-.055,3.63,3.63,0,0,1,.413-.022q.243,0,.455.015a3.15,3.15,0,0,1,.374.049,1.162,1.162,0,0,1,.263.082.209.209,0,0,1,.12.111l.471,0a.448.448,0,0,1,.09.008c.026.005.039.012.039.02v.039l-.605-.006a.3.3,0,0,1-.162.13,1.648,1.648,0,0,1-.332.1l-.22-.031a.237.237,0,0,1-.049-.011c-.013,0-.019-.01-.019-.015s.017-.016.051-.026.073-.021.115-.036a1.116,1.116,0,0,0,.126-.05.171.171,0,0,0,.083-.069l-1.429-.014a1.338,1.338,0,0,1-.126.081.8.8,0,0,1-.185.072,1.933,1.933,0,0,1-.288.052,4.06,4.06,0,0,1-.434.021c-.131,0-.259,0-.383-.015a2.62,2.62,0,0,1-.333-.047,1.034,1.034,0,0,1-.239-.078c-.062-.031-.1-.067-.1-.107l-.388,0a.515.515,0,0,1-.092-.008c-.027-.005-.04-.012-.04-.021v-.039l.53.005a.283.283,0,0,1,.145-.107,1.621,1.621,0,0,1,.269-.081l.178.024c.054.007.081.016.081.026s-.011.012-.033.021l-.08.029a.74.74,0,0,0-.088.04.187.187,0,0,0-.065.052Zm-1.308.053a.141.141,0,0,0,.07.066.561.561,0,0,0,.135.045,1.411,1.411,0,0,0,.181.026q.1.008.212.008a2.188,2.188,0,0,0,.225-.011,1.285,1.285,0,0,0,.168-.028.782.782,0,0,0,.126-.042.7.7,0,0,0,.1-.052Zm3.111-.035a.145.145,0,0,0-.077-.068.7.7,0,0,0-.155-.049,1.709,1.709,0,0,0-.22-.029q-.125-.01-.276-.009a2.19,2.19,0,0,0-.231.012,1.243,1.243,0,0,0-.168.031.6.6,0,0,0-.121.045.9.9,0,0,0-.093.054Z" transform="translate(-780.362 -2830.591)" fill="#fcb048"/>
        </g>
        <path id="Path_5776" data-name="Path 5776" d="M696.763,2814.113c-1.865,0-3.807.164-4.118.482a.369.369,0,0,1,.034.036,11.56,11.56,0,0,1,4.084-.443c2.275,0,3.9.233,4.1.459a.353.353,0,0,1,.031-.035C700.639,2814.283,698.661,2814.113,696.763,2814.113Z" transform="translate(-692.577 -2814.054)" fill="url(#linear-gradient-50)"/>
      </g>
      <g id="Group_3862" data-name="Group 3862" transform="translate(0.481 0)">
        <path id="Path_5777" data-name="Path 5777" d="M657.864,2785.087v.928c0,.3,1.873.543,4.183.543s4.183-.243,4.183-.543v-.928Z" transform="translate(-657.862 -2784.544)" fill="url(#linear-gradient-23)"/>
        <ellipse id="Ellipse_138" data-name="Ellipse 138" cx="4.183" cy="0.543" rx="4.183" ry="0.543" transform="translate(0.002)" fill="url(#linear-gradient-28)"/>
        <path id="Path_5778" data-name="Path 5778" d="M661.905,2782.808c-2.046,0-4.185-.2-4.185-.572,0-.021.007-.057.028-.057s.012.028.012.049c0,.239,1.7.505,4.145.505s4.145-.266,4.145-.505c0-.021,0-.04.024-.04s.016.028.016.048C666.091,2782.613,663.951,2782.808,661.905,2782.808Z" transform="translate(-657.72 -2781.685)" fill="url(#linear-gradient-25)"/>
        <g id="Group_3861" data-name="Group 3861" transform="translate(1.55 0.337)">
          <path id="Path_5779" data-name="Path 5779" d="M751.714,2773.151c.041-.028.085-.056.132-.084a.813.813,0,0,1,.18-.075,1.707,1.707,0,0,1,.276-.055,3.513,3.513,0,0,1,.413-.022q.243,0,.455.015a3.139,3.139,0,0,1,.374.05,1.176,1.176,0,0,1,.263.081.208.208,0,0,1,.12.112l.471,0a.448.448,0,0,1,.09.008c.026.006.039.012.039.02v.039l-.605-.006a.305.305,0,0,1-.162.13,1.65,1.65,0,0,1-.332.1l-.221-.031a.238.238,0,0,1-.049-.011c-.013,0-.019-.01-.019-.015s.017-.016.051-.025l.115-.036a1.121,1.121,0,0,0,.126-.05.173.173,0,0,0,.083-.069l-1.429-.014a1.314,1.314,0,0,1-.126.082.831.831,0,0,1-.185.072,1.994,1.994,0,0,1-.288.052,4.133,4.133,0,0,1-.434.021c-.131,0-.259,0-.383-.015a2.615,2.615,0,0,1-.333-.048,1.045,1.045,0,0,1-.239-.078c-.062-.031-.1-.067-.1-.107l-.388,0a.539.539,0,0,1-.092-.008c-.027-.005-.04-.012-.04-.021v-.039l.53,0a.288.288,0,0,1,.145-.107,1.7,1.7,0,0,1,.269-.081l.178.024c.054.008.081.016.081.027s-.011.012-.033.021l-.08.029a.767.767,0,0,0-.088.04.186.186,0,0,0-.065.052Zm-1.308.053a.141.141,0,0,0,.07.065.561.561,0,0,0,.135.046,1.374,1.374,0,0,0,.182.026c.068.006.138.008.212.008s.161,0,.225-.011a1.321,1.321,0,0,0,.168-.029.754.754,0,0,0,.126-.042.708.708,0,0,0,.1-.052Zm3.111-.035a.147.147,0,0,0-.077-.068.683.683,0,0,0-.155-.049,1.746,1.746,0,0,0-.22-.03q-.125-.009-.276-.009a2.123,2.123,0,0,0-.231.012,1.21,1.21,0,0,0-.168.031.636.636,0,0,0-.121.045.853.853,0,0,0-.093.055Z" transform="translate(-749.474 -2772.916)" fill="#fcb048"/>
        </g>
        <path id="Path_5780" data-name="Path 5780" d="M665.875,2756.438c-1.865,0-3.807.164-4.118.482a.406.406,0,0,1,.034.036,11.572,11.572,0,0,1,4.084-.443c2.275,0,3.9.234,4.1.46a.345.345,0,0,1,.031-.035C669.751,2756.608,667.773,2756.438,665.875,2756.438Z" transform="translate(-661.689 -2756.379)" fill="url(#linear-gradient-54)"/>
      </g>
      <g id="Group_3864" data-name="Group 3864" transform="translate(9.243 1.182)">
        <path id="Path_5781" data-name="Path 5781" d="M1177.055,2823.8l-.756.538c-.244.174.643,1.841,1.982,3.723s2.623,3.267,2.867,3.094l.756-.538Z" transform="translate(-1176.259 -2823.781)" fill="url(#linear-gradient-55)"/>
        <path id="Path_5782" data-name="Path 5782" d="M1225.894,2829.757c-.244.174-1.528-1.211-2.867-3.094s-2.226-3.549-1.982-3.723,1.528,1.211,2.867,3.094S1226.138,2829.583,1225.894,2829.757Z" transform="translate(-1220.248 -2822.925)" fill="url(#linear-gradient-56)"/>
        <path id="Path_5783" data-name="Path 5783" d="M1221.816,2826.662c-1.186-1.667-2.267-3.524-1.96-3.742.017-.012.051-.027.063-.01s-.016.026-.033.038c-.195.139.575,1.68,1.991,3.671s2.62,3.224,2.815,3.085c.017-.012.035-.02.047,0s-.014.029-.03.041C1224.4,2829.959,1223,2828.329,1221.816,2826.662Z" transform="translate(-1219.068 -2822.902)" fill="url(#linear-gradient-57)"/>
        <g id="Group_3863" data-name="Group 3863" transform="translate(1.652 1.281)">
          <path id="Path_5784" data-name="Path 5784" d="M1275.341,2900.552c.047.017.095.036.145.059a.833.833,0,0,1,.165.1,1.7,1.7,0,0,1,.2.193,3.517,3.517,0,0,1,.258.323q.142.2.251.38a3.073,3.073,0,0,1,.177.334,1.158,1.158,0,0,1,.086.261.208.208,0,0,1-.021.162l.269.387a.473.473,0,0,1,.045.078c.011.025.013.039.006.044l-.031.023-.346-.5a.307.307,0,0,1-.2-.057,1.636,1.636,0,0,1-.276-.211l-.1-.2a.262.262,0,0,1-.019-.046c0-.013,0-.021,0-.024s.023,0,.05.027.059.046.1.073a1.168,1.168,0,0,0,.114.074.172.172,0,0,0,.1.028l-.817-1.173a1.439,1.439,0,0,1-.139-.056.809.809,0,0,1-.166-.109,1.938,1.938,0,0,1-.209-.2,4.091,4.091,0,0,1-.269-.341q-.115-.16-.21-.321a2.648,2.648,0,0,1-.154-.3,1.038,1.038,0,0,1-.075-.24.167.167,0,0,1,.027-.147l-.221-.318a.507.507,0,0,1-.047-.08c-.011-.025-.014-.04-.007-.045l.032-.023.3.435a.284.284,0,0,1,.171.056,1.685,1.685,0,0,1,.222.172l.083.159c.025.048.033.075.025.081s-.016,0-.036-.015l-.07-.048a.7.7,0,0,0-.084-.049.184.184,0,0,0-.08-.022Zm-.8-1.035a.14.14,0,0,0-.013.1.567.567,0,0,0,.041.136,1.412,1.412,0,0,0,.084.163c.035.058.073.117.116.177s.1.128.139.177a1.345,1.345,0,0,0,.121.12.789.789,0,0,0,.107.079.7.7,0,0,0,.1.049Zm1.832,2.515a.146.146,0,0,0,.01-.1.691.691,0,0,0-.05-.155,1.674,1.674,0,0,0-.1-.2q-.064-.108-.153-.23a2.121,2.121,0,0,0-.144-.181,1.22,1.22,0,0,0-.122-.119.622.622,0,0,0-.106-.072.855.855,0,0,0-.1-.044Z" transform="translate(-1274.025 -2898.714)" fill="#fcb048"/>
        </g>
        <path id="Path_5785" data-name="Path 5785" d="M1227.993,2829.968c-1.081-1.52-2.34-3.007-2.779-3.076a.364.364,0,0,1-.009.048,11.569,11.569,0,0,1,2.728,3.072c1.319,1.854,2.073,3.317,2,3.609l.047.005C1230.1,2833.226,1229.093,2831.515,1227.993,2829.968Z" transform="translate(-1224.377 -2826.825)" fill="url(#linear-gradient-58)"/>
      </g>
    </g>
    <g id="Group_3870" data-name="Group 3870" transform="translate(435.584 407.689)">
      <path id="Path_5786" data-name="Path 5786" d="M2361.417,2626.748l-.379.03a1.209,1.209,0,0,1-.294-.012l-1.5-.245-.025,0-1.744-.285h-.011l-1.367-.221v-7.692h1.378l1.744.087.026.013,2.11.082Z" transform="translate(-2356.096 -2614.912)" fill="url(#linear-gradient-59)"/>
      <path id="Path_5787" data-name="Path 5787" d="M2645.678,2623.26v7.179a.48.48,0,0,1-.452.482l-5.007.3a.361.361,0,0,1-.375-.365v-7.48a.385.385,0,0,1,.367-.388l5.043-.141A.412.412,0,0,1,2645.678,2623.26Z" transform="translate(-2635.049 -2619.365)" fill="url(#linear-gradient-60)"/>
      <path id="Path_5788" data-name="Path 5788" d="M2356.732,2612.266l4.784.227,5.41-.151-5.547-.181Z" transform="translate(-2356.721 -2608.86)" fill="url(#linear-gradient-61)"/>
      <path id="Path_5789" data-name="Path 5789" d="M2706.083,2622.858l-3.949.11a.425.425,0,0,0-.408.426,2.861,2.861,0,0,0,.233,1.161c.562,1.273,1.819,1.32,2.08,2.489.218.974-.553,1.393-.635,2.638a3.327,3.327,0,0,0,.1,1.056.428.428,0,0,0,.437.321l2.174-.129a.42.42,0,0,0,.4-.421v-7.229A.419.419,0,0,0,2706.083,2622.858Z" transform="translate(-2695.886 -2619.376)" opacity="0.3" fill="url(#linear-gradient-62)" style="mix-blend-mode: multiply;isolation: isolate"/>
      <path id="Path_5790" data-name="Path 5790" d="M2743.711,2634.063l1.856-.111v-8.13l-1.856.052Z" transform="translate(-2737.161 -2622.291)" fill="url(#linear-gradient-63)"/>
      <path id="Path_5791" data-name="Path 5791" d="M2748.659,2634.059l1.773-.106v-8.13l-1.773.049Z" transform="translate(-2742.026 -2622.291)" fill="url(#linear-gradient-64)"/>
      <path id="Path_5792" data-name="Path 5792" d="M2440.472,2621.64v8.092l-1.7-.289v-7.849l.542-.01Z" transform="translate(-2437.375 -2618.124)" fill="url(#linear-gradient-65)"/>
      <path id="Path_5793" data-name="Path 5793" d="M2479.341,2614.014l5.175.294h-1.861l-4.524-.267Z" transform="translate(-2476.069 -2610.682)" fill="url(#linear-gradient-66)"/>
      <g id="Group_3867" data-name="Group 3867" transform="translate(5.766 0.792)">
        <path id="Path_5794" data-name="Path 5794" d="M2697.385,2465.947a2.931,2.931,0,0,1,.69-1.776,1.409,1.409,0,0,1,.79-.5,1.052,1.052,0,0,1,1.1.437c.139.325-.189.536-.049.909s.547.367.592.669c.038.257-.212.548-.465.684-.436.236-.684-.1-1.536-.042-.587.037-.927.223-1.086.035C2697.344,2466.273,2697.352,2466.149,2697.385,2465.947Z" transform="translate(-2697.361 -2463.655)" fill="url(#linear-gradient-67)"/>
        <g id="Group_3866" data-name="Group 3866" transform="translate(0.011 1.452)" opacity="0.3" style="mix-blend-mode: multiply;isolation: isolate">
          <path id="Path_5795" data-name="Path 5795" d="M2700.366,2550.138c-.526-.2-.8-.639-1.029-.536-.207.092-.081.476-.324.789a1.231,1.231,0,0,1-.992.354.232.232,0,0,0,.048.1c.159.188.5,0,1.085-.035.852-.053,1.1.278,1.536.042a.853.853,0,0,0,.468-.619A1.7,1.7,0,0,1,2700.366,2550.138Z" transform="translate(-2698.02 -2549.587)" fill="url(#linear-gradient-68)"/>
        </g>
      </g>
      <g id="Group_3869" data-name="Group 3869" transform="translate(2.261 0)">
        <path id="Path_5796" data-name="Path 5796" d="M2490.247,2418.061c.354-.28.727.032,1.163-.275s.313-.81.656-.951c.4-.164.987.337,1.269.656.716.808,1.052,2.244.486,2.749-.213.189-.814.111-2.008-.053-1.365-.187-1.561-.322-1.692-.5A1.306,1.306,0,0,1,2490.247,2418.061Z" transform="translate(-2489.896 -2416.802)" fill="url(#linear-gradient-69)"/>
        <g id="Group_3868" data-name="Group 3868" transform="translate(0 1.167)" opacity="0.3" style="mix-blend-mode: multiply;isolation: isolate">
          <path id="Path_5797" data-name="Path 5797" d="M2492.488,2486.56c-.2-.062-.286.163-.69.254a1.271,1.271,0,0,1-1.17-.282.971.971,0,0,1-.215-.669.565.565,0,0,0-.166.092,1.306,1.306,0,0,0-.127,1.628c.131.176.327.31,1.692.5,1.194.164,1.8.242,2.008.053a.729.729,0,0,0,.078-.084,1.182,1.182,0,0,1-.8-.29C2492.676,2487.351,2492.823,2486.665,2492.488,2486.56Z" transform="translate(-2489.896 -2485.862)" fill="url(#linear-gradient-70)"/>
        </g>
      </g>
      <path id="Path_5798" data-name="Path 5798" d="M2441.055,2619.048l-1.815.069-1.747-.083.565-.011,2.473-.044Z" transform="translate(-2436.118 -2615.563)" fill="url(#linear-gradient-71)"/>
    </g>
  </g>
</svg>
